<?xml version="1.0" standalone="no"?>
<!DOCTYPE svg PUBLIC "-//W3C//DTD SVG 1.1//EN" "http://www.w3.org/Graphics/SVG/1.1/DTD/svg11.dtd" >
<svg xmlns="http://www.w3.org/2000/svg" xmlns:xlink="http://www.w3.org/1999/xlink" version="1.1">
<metadata>
Created by FontForge 20170731 at Sat Jan 16 01:03:17 2016
 By Aleksey,,,
Copyright (C) 2016 Hoefler &#38; Co. http://www.typography.com
</metadata>
<defs>
<font id="OperatorSSm-LightItalic" horiz-adv-x="624" >
  <font-face 
    font-family="Operator SSm Light"
    font-weight="300"
    font-style="italic"
    font-stretch="normal"
    units-per-em="1000"
    panose-1="2 0 0 0 0 0 0 0 0 0"
    ascent="800"
    descent="-200"
    x-height="539"
    cap-height="688"
    bbox="-144 -386 1126 1257"
    underline-thickness="57"
    underline-position="-197"
    slope="-11"
    unicode-range="U+0020-E10D"
  />
<missing-glyph horiz-adv-x="500" 
d="M0 -200v1000h500v-1000h-500zM71 750l179 -390l179 390h-358zM450 676l-172 -376l172 -376v752zM50 -76l172 376l-172 376v-752zM250 240l-179 -390h358z" />
    <glyph glyph-name=".notdef" horiz-adv-x="500" 
d="M0 -200v1000h500v-1000h-500zM71 750l179 -390l179 390h-358zM450 676l-172 -376l172 -376v752zM50 -76l172 376l-172 376v-752zM250 240l-179 -390h358z" />
    <glyph glyph-name=".null" horiz-adv-x="0" 
 />
    <glyph glyph-name="nonmarkingreturn" horiz-adv-x="333" 
 />
    <glyph glyph-name="space" unicode=" " horiz-adv-x="308" 
 />
    <glyph glyph-name="exclam" unicode="!" horiz-adv-x="367" 
d="M203 254h-47q12 61 40 255t36 240h94q-11 -48 -60.5 -241.5t-62.5 -253.5zM177 0h-102l22 107h101z" />
    <glyph glyph-name="quotedbl" unicode="&#x22;" horiz-adv-x="634" 
d="M475 431h-50l55 310h93l-3 -33zM242 431h-49l54 310h93l-3 -33z" />
    <glyph glyph-name="numbersign" unicode="#" 
d="M231 255l146 24l40 166l-145 -24zM166 -13l-57 -7l48 198l-113 -19l14 67l115 19l41 167l-113 -19l14 67l115 19l50 204l57 7l-49 -201l146 24l48 198l57 6l-48 -195l114 19l-14 -67l-116 -19l-41 -167l115 19l-15 -67l-116 -19l-51 -207l-56 -6l49 203l-145 -24z" />
    <glyph glyph-name="dollar" unicode="$" horiz-adv-x="627" 
d="M224 532q0 -27 24.5 -58t71.5 -74l59 198q-79 5 -117 -14t-38 -52zM439 158q0 27 -25 58.5t-74 75.5l-61 -205q79 -3 119.5 17.5t40.5 53.5zM507 161q0 -56 -60.5 -95.5t-183.5 -38.5l-31 -118l-67 1l36 120q-63 4 -152 23l17 70q87 -23 157 -31l73 239q-44 39 -69.5 65
t-48 62.5t-22.5 67.5q0 59 59 98t181 34l36 120h68l-41 -125q53 -6 126 -23l-13 -69q-66 19 -137 30l-71 -230q45 -41 70.5 -67t49 -63.5t23.5 -69.5z" />
    <glyph glyph-name="percent" unicode="%" horiz-adv-x="894" 
d="M308 702q48 0 80.5 -32.5t32.5 -87.5q0 -70 -45.5 -119.5t-105.5 -49.5q-48 0 -80 32.5t-32 87.5q0 70 45.5 119.5t104.5 49.5zM147 -7l-37 40l666 662l37 -40zM302 651q-37 0 -64 -32t-27 -77q0 -36 18.5 -57t47.5 -21q37 0 64 32t27 78q0 35 -18.5 56t-47.5 21z
M613 -15q-48 0 -80 32.5t-32 87.5q0 70 45.5 119.5t105.5 49.5q48 0 80 -32.5t32 -87.5q0 -70 -45.5 -119.5t-105.5 -49.5zM645 223q-36 0 -63 -32t-27 -77q0 -36 18.5 -57t47.5 -21q36 0 63 32t27 78q0 35 -18.5 56t-47.5 21z" />
    <glyph glyph-name="ampersand" unicode="&#x26;" horiz-adv-x="671" 
d="M581 -21q-84 74 -150 157q-144 -146 -265 -146q-64 0 -100 35.5t-36 97.5q0 154 255 363v6q0 85 39.5 152t80.5 67q23 0 36.5 -14.5t13.5 -41.5q0 -39 -28 -89.5t-79 -99.5q15 -116 94 -230q60 78 111 174l66 -22q-70 -119 -141 -200q60 -75 155 -157zM185 56
q95 0 211 126q-84 119 -105 239q-191 -173 -191 -284q0 -38 23 -59.5t62 -21.5z" />
    <glyph glyph-name="quotesingle" unicode="'" horiz-adv-x="362" 
d="M231 431h-50l55 310h93l-3 -33z" />
    <glyph glyph-name="parenleft" unicode="(" horiz-adv-x="479" 
d="M474 789l39 -52q-194 -133 -276.5 -254.5t-82.5 -252.5q0 -189 193 -413l-56 -42q-205 249 -205 453q0 144 91.5 278.5t296.5 282.5z" />
    <glyph glyph-name="parenright" unicode=")" horiz-adv-x="479" 
d="M5 -235l-38 52q194 133 276.5 254.5t82.5 252.5q0 188 -194 413l56 42q206 -250 206 -453q0 -144 -91.5 -278.5t-297.5 -282.5z" />
    <glyph glyph-name="asterisk" unicode="*" horiz-adv-x="586" 
d="M397 300l-81 156l-150 -88l-28 34l124 123l-133 117l25 37l155 -81l71 163l44 -12l-28 -174l175 -17l2 -44l-174 -27l39 -170z" />
    <glyph glyph-name="plus" unicode="+" 
d="M552 291h-203l-41 -211h-67l41 211h-203l12 63h203l41 211h67l-41 -211h204z" />
    <glyph glyph-name="comma" unicode="," horiz-adv-x="343" 
d="M9 -177q59 65 78 128.5t11 158.5l99 3q-7 -96 -44.5 -167t-114.5 -141z" />
    <glyph glyph-name="hyphen" unicode="-" horiz-adv-x="449" 
d="M384 354l-11 -62h-300l12 62h299z" />
    <glyph glyph-name="period" unicode="." horiz-adv-x="333" 
d="M174 0h-102l21 112h101z" />
    <glyph glyph-name="slash" unicode="/" horiz-adv-x="491" 
d="M541 788l60 -22l-636 -963l-64 15z" />
    <glyph glyph-name="zero" unicode="0" 
d="M72 241q0 119 40.5 224.5t113 170.5t159.5 65q89 0 141 -65t52 -188q0 -119 -40.5 -225t-113 -171t-159.5 -65q-89 0 -141 65.5t-52 188.5zM143 253q0 -100 36 -151.5t101 -51.5t118 56.5t81 144t28 184.5q0 100 -36 151.5t-100 51.5q-65 0 -118 -56.5t-81.5 -144
t-28.5 -184.5z" />
    <glyph glyph-name="one" unicode="1" 
d="M496 0h-431l12 62h192l96 497l-181 -9l9 54l185 23l17 85l71 6l-127 -656h175z" />
    <glyph glyph-name="two" unicode="2" 
d="M492 0h-439l-1 59q118 79 188 130t132 107.5t88.5 104t26.5 96.5q0 165 -313 118l12 69q180 28 276 -17.5t96 -153.5q0 -46 -19 -90.5t-49.5 -84t-86 -87t-111.5 -88.5t-143 -100h356z" />
    <glyph glyph-name="three" unicode="3" 
d="M527 190q0 -33 -14 -63t-46.5 -58.5t-86 -45.5t-131.5 -25.5t-184 2.5l9 71q386 -42 386 105q0 107 -278 171l5 37l317 240h-324l13 64h400l-7 -64l-313 -238q254 -65 254 -196z" />
    <glyph glyph-name="four" unicode="4" 
d="M542 150h-80l-29 -150h-66l29 150h-333l2 48q73 121 123 232.5t97 265.5l77 -5q-49 -155 -101 -260.5t-126 -216.5l273 -1l47 245l69 6l-49 -251h88z" />
    <glyph glyph-name="five" unicode="5" 
d="M526 214q0 -45 -26 -86t-78 -74.5t-145 -48.5t-213 -5l10 71q112 -9 186 -3.5t118 28t62 48.5t18 58q0 119 -305 172l76 314h363l-19 -64h-293l-48 -201q294 -59 294 -209z" />
    <glyph glyph-name="six" unicode="6" 
d="M290 -12q-92 0 -149.5 59t-57.5 171q0 56 14 110t46.5 110t82 105t125.5 93t171 75l18 -67q-167 -49 -256.5 -130.5t-118.5 -177.5q82 72 169.5 81.5t144.5 -41.5t57 -141q0 -108 -71.5 -177.5t-174.5 -69.5zM305 50q75 0 119.5 49.5t44.5 124.5q0 52 -28 87.5
t-71.5 46.5t-101.5 -8t-114 -68q-3 -23 -3 -44q0 -97 43 -142.5t111 -45.5z" />
    <glyph glyph-name="seven" unicode="7" 
d="M197 -6l-72 10q187 343 410 615l-1 4h-367l13 65h446l-12 -57q-225 -280 -417 -637z" />
    <glyph glyph-name="eight" unicode="8" 
d="M503 164q0 -73 -69 -125t-170 -52q-88 0 -143.5 40.5t-55.5 105.5q0 53 41.5 105t158.5 129q-103 97 -103 167q0 83 97 133t260 26l-16 -71q-101 23 -161.5 13.5t-85 -32t-24.5 -56.5q0 -52 94 -141q113 70 244 141l29 -48q-148 -79 -233 -131q43 -41 67.5 -67t47 -64.5
t22.5 -72.5zM283 48q67 0 110 31t43 76q0 27 -22 59.5t-43.5 54t-66.5 61.5q-100 -65 -133.5 -104.5t-33.5 -75.5q0 -47 41 -74.5t105 -27.5z" />
    <glyph glyph-name="nine" unicode="9" 
d="M128 -21l-18 67q167 49 256 130t118 177q-61 -54 -128.5 -72t-120 -2.5t-87 62.5t-34.5 114q0 108 71.5 177.5t174.5 69.5q92 0 149.5 -59t57.5 -171q0 -56 -14 -110t-46.5 -110t-82 -105t-125.5 -93t-171 -75zM181 467q0 -52 28 -87.5t71 -47t101 7t114 67.5q3 24 3 45
q0 97 -43 142.5t-110 45.5q-75 0 -119.5 -49.5t-44.5 -123.5z" />
    <glyph glyph-name="colon" unicode=":" horiz-adv-x="333" 
d="M250 427h-102l22 112h101zM167 0h-101l21 112h101z" />
    <glyph glyph-name="semicolon" unicode=";" horiz-adv-x="333" 
d="M252 427h-102l21 112h102zM3 -177q59 65 78 128.5t11 158.5l100 3q-7 -96 -45 -167t-115 -141z" />
    <glyph glyph-name="less" unicode="&#x3c;" 
d="M447 70l-344 214l15 78l422 209l22 -61l-382 -184l-2 -10l303 -185z" />
    <glyph glyph-name="equal" unicode="=" 
d="M571 480l-13 -62h-435l12 62h436zM524 236l-13 -62h-435l12 62h436z" />
    <glyph glyph-name="greater" unicode="&#x3e;" 
d="M103 75l-22 61l383 184l2 10l-304 184l34 62l345 -215l-16 -78z" />
    <glyph glyph-name="question" unicode="?" horiz-adv-x="565" 
d="M161 681l14 71q183 -21 271.5 -67.5t88.5 -125.5q0 -71 -71.5 -142t-234.5 -161l-24 41q138 78 194 131.5t56 104.5q0 62 -69 94t-225 54zM228 0h-101l21 107h102z" />
    <glyph glyph-name="at" unicode="@" horiz-adv-x="821" 
d="M603 -148q-140 -30 -239 -22.5t-161.5 54t-91 117t-28.5 167.5q0 151 64.5 286.5t178 219t247.5 83.5q241 0 187 -275l-46 -227q-14 -66 -28 -185l-65 2l12 92q-46 -45 -96.5 -74.5t-91.5 -29.5q-47 0 -77 40t-30 112q0 128 78.5 222.5t198.5 94.5q39 0 87 -9
q12 90 -23.5 134t-125.5 44q-110 0 -203.5 -72.5t-147 -192.5t-53.5 -257q0 -87 24 -147t78.5 -98t142.5 -41t217 24zM473 126q35 0 83 28.5t87 69.5l46 228q-63 17 -108 17q-72 0 -123 -73t-51 -168q0 -50 18 -76t48 -26z" />
    <glyph glyph-name="A" unicode="A" horiz-adv-x="661" 
d="M484 -3q-16 150 -25 226h-268q-88 -174 -112 -223h-74q175 352 358 691h104q53 -359 89 -688zM400 624q-85 -159 -180 -344h232q-16 128 -44 344h-8z" />
    <glyph glyph-name="B" unicode="B" horiz-adv-x="623" 
d="M542 208q0 -49 -25.5 -90.5t-82.5 -75t-147.5 -44.5t-220.5 2l133 686q187 27 281.5 -14.5t94.5 -125.5q0 -64 -49 -115t-134 -76q68 -13 109 -52.5t41 -94.5zM504 529q0 56 -63 85.5t-180 17.5l-51 -264q146 6 220 51.5t74 109.5zM470 199q0 60 -67.5 95t-201.5 26
l-50 -260q154 -18 236.5 25t82.5 114z" />
    <glyph glyph-name="C" unicode="C" horiz-adv-x="652" 
d="M441 703q93 0 128.5 -61.5t31.5 -189.5l-70 -1q1 100 -20 143.5t-87 43.5q-78 0 -141 -56.5t-95.5 -142t-32.5 -177.5q0 -150 100 -193.5t285 24.5l-6 -68q-207 -72 -329.5 -12t-122.5 234q0 117 48 222t131.5 169.5t179.5 64.5z" />
    <glyph glyph-name="D" unicode="D" horiz-adv-x="685" 
d="M633 422q0 -97 -35.5 -179.5t-103.5 -143.5t-178.5 -88.5t-249.5 -10.5l133 687q203 32 318.5 -36t115.5 -229zM560 413q0 122 -77 177t-223 41l-110 -573q202 -13 306 89t104 266z" />
    <glyph glyph-name="E" unicode="E" horiz-adv-x="587" 
d="M470 65l-18 -65h-386l133 688h389l-12 -65h-317l-47 -246h271l-12 -57h-270l-49 -255h318z" />
    <glyph glyph-name="F" unicode="F" horiz-adv-x="571" 
d="M470 307h-272l-60 -307h-72l133 688h392l-12 -65h-320l-50 -259h272z" />
    <glyph glyph-name="G" unicode="G" horiz-adv-x="680" 
d="M495 -123l-68 -1l31 132q-171 -49 -273.5 15.5t-102.5 222.5q0 117 48.5 222t133.5 170t182 65q94 0 131.5 -60.5t34.5 -190.5l-70 -1q1 99 -22.5 143t-91.5 44q-78 0 -142 -56.5t-97.5 -142t-33.5 -177.5q0 -137 83 -186t234 -4l45 193l71 2z" />
    <glyph glyph-name="H" unicode="H" horiz-adv-x="722" 
d="M479 0l62 320h-340l-62 -320h-73l133 688h73l-60 -311h340l61 311h72l-133 -688h-73z" />
    <glyph glyph-name="I" unicode="I" horiz-adv-x="547" 
d="M269 60h155l-15 -60h-376l12 60h151l110 568h-154l12 60h376l-12 -60h-149z" />
    <glyph glyph-name="J" unicode="J" horiz-adv-x="517" 
d="M20 -13l11 70q121 -1 173 5.5t73 27.5q16 16 28 55.5t33 152.5l64 330h-208l13 60h280l-73 -377q-28 -143 -43.5 -190t-39.5 -71q-63 -63 -311 -63z" />
    <glyph glyph-name="K" unicode="K" horiz-adv-x="631" 
d="M465 -6l-219 352l329 342h82l-327 -343l213 -339zM199 688h73l-133 -688h-73z" />
    <glyph glyph-name="L" unicode="L" horiz-adv-x="561" 
d="M455 0h-389l133 688h73l-120 -623h317z" />
    <glyph glyph-name="M" unicode="M" horiz-adv-x="820" 
d="M305 691l80 -523h3l285 520h111l-134 -688h-73l121 602h-5l-294 -536h-64l-84 536h-6l-111 -602h-68l133 686z" />
    <glyph glyph-name="N" unicode="N" horiz-adv-x="729" 
d="M477 0l-223 594h-7l-113 -594h-68l133 686l94 4l216 -573h7l108 571h68l-133 -688h-82z" />
    <glyph glyph-name="O" unicode="O" horiz-adv-x="726" 
d="M439 703q104 0 169 -74t65 -201q0 -183 -105 -313t-252 -130q-104 0 -169 74.5t-65 201.5q0 182 105 312t252 130zM332 49q114 0 191 108t77 259q0 104 -49.5 163.5t-126.5 59.5q-115 0 -192 -107.5t-77 -258.5q0 -104 49.5 -164t127.5 -60z" />
    <glyph glyph-name="P" unicode="P" horiz-adv-x="605" 
d="M139 0h-73l133 685q198 27 295 -23t97 -152q0 -116 -107.5 -189.5t-300.5 -91.5zM519 498q0 72 -65 108t-194 22l-63 -328q154 0 238 53.5t84 144.5z" />
    <glyph glyph-name="Q" unicode="Q" horiz-adv-x="691" 
d="M526 -150l-340 144l19 51q165 61 268 174t103 240q0 85 -46.5 133.5t-129.5 48.5q-90 0 -152 -61.5t-77 -170.5t35 -258l-61 -26q-53 113 -50 217.5t43.5 184.5t116 128t165.5 48q108 0 169 -65t61 -169q0 -134 -98.5 -253.5t-258.5 -193.5l262 -107z" />
    <glyph glyph-name="R" unicode="R" horiz-adv-x="638" 
d="M478 -7l-205 314l1 2q130 57 185 105.5t55 108.5q0 62 -64 90t-189 16l-122 -629h-73l133 687q198 25 293 -18.5t95 -132.5q0 -73 -57 -130.5t-167 -109.5l194 -290z" />
    <glyph glyph-name="S" unicode="S" horiz-adv-x="577" 
d="M535 516l-67 -15q-19 138 -125 138q-55 0 -92 -37.5t-37 -88.5q0 -37 27.5 -73.5t66.5 -67.5t78 -62.5t66.5 -70.5t27.5 -80q0 -44 -25 -80t-79 -61t-138 -26.5t-203 24.5l17 73q132 -39 211 -34.5t111.5 29t32.5 64.5q0 33 -27.5 66.5t-66.5 63.5t-78 62t-66.5 73.5
t-27.5 86.5q0 79 65 140t158 61q148 0 171 -185z" />
    <glyph glyph-name="T" unicode="T" horiz-adv-x="594" 
d="M403 624l-121 -624h-73l121 624h-212l12 64h497l-12 -64h-212z" />
    <glyph glyph-name="U" unicode="U" horiz-adv-x="703" 
d="M186 288q-45 -238 134 -238q157 0 196 197l85 441h73l-86 -441q-25 -132 -98 -196.5t-179 -64.5q-54 0 -95 16t-71.5 52.5t-37.5 95.5t8 146l76 392h73z" />
    <glyph glyph-name="V" unicode="V" horiz-adv-x="629" 
d="M313 0h-107q-48 347 -78 685l73 6q23 -283 66 -624h10q181 343 313 621h73q-145 -302 -350 -688z" />
    <glyph glyph-name="W" unicode="W" horiz-adv-x="776" 
d="M479 0l-69 387l-218 -387h-84q4 238 63 688h72q-18 -133 -41.5 -339t-24.5 -259h6l221 400h54l68 -400h5q42 115 167 598h70q-110 -427 -206 -688h-83z" />
    <glyph glyph-name="X" unicode="X" horiz-adv-x="648" 
d="M465 -3l-136 293l-239 -290h-82l292 346l-160 339l77 7l137 -295l239 291h83l-293 -347l159 -338z" />
    <glyph glyph-name="Y" unicode="Y" horiz-adv-x="630" 
d="M299 0h-73l46 236l-148 450l75 4l123 -390h2l267 388h79l-327 -461z" />
    <glyph glyph-name="Z" unicode="Z" horiz-adv-x="611" 
d="M483 0h-454l11 63l479 561l-364 -2l14 66h443l-11 -63l-477 -561l372 2z" />
    <glyph glyph-name="bracketleft" unicode="[" horiz-adv-x="481" 
d="M23 -198l187 964h311l-12 -60h-242l-164 -844h243l-12 -60h-311z" />
    <glyph glyph-name="backslash" unicode="\" horiz-adv-x="491" 
d="M147 791l271 -976l-59 -17l-271 975z" />
    <glyph glyph-name="bracketright" unicode="]" horiz-adv-x="481" 
d="M464 767l-187 -963h-311l12 60h242l164 843h-243l12 60h311z" />
    <glyph glyph-name="asciicircum" unicode="^" 
d="M495 178l-155 266l-229 -269l-48 42l280 326l18 2l196 -327z" />
    <glyph glyph-name="underscore" unicode="_" horiz-adv-x="498" 
d="M434 -56l-11 -57h-493l11 57h493z" />
    <glyph glyph-name="grave" unicode="`" horiz-adv-x="571" 
d="M400 643l-20 -32q-126 84 -214 175l52 60q85 -115 182 -203z" />
    <glyph glyph-name="a" unicode="a" horiz-adv-x="614" 
d="M206 56q37 0 89.5 32t98.5 78l61 305q-66 18 -113 18q-87 0 -149.5 -95.5t-62.5 -217.5q0 -58 21 -89t55 -31zM575 41q-79 -45 -125 -49t-60.5 25t-6.5 87q-52 -51 -108 -83.5t-100 -32.5q-52 0 -83.5 43.5t-31.5 125.5q0 102 41.5 191.5t118 145.5t170.5 56
q62 0 145 -21l-77 -394q-10 -41 -6 -61t28.5 -19t83.5 23z" />
    <glyph glyph-name="b" unicode="b" horiz-adv-x="608" 
d="M219 -11q-65 0 -150 25l147 760l71 6l-66 -342q114 114 203 114q54 0 88 -46.5t34 -133.5q0 -99 -41 -186.5t-117 -142t-169 -54.5zM267 48q86 0 148 94.5t62 214.5q0 63 -23 96t-59 33q-39 0 -90.5 -32.5t-96.5 -80.5l-59 -305q71 -20 118 -20z" />
    <glyph glyph-name="c" unicode="c" horiz-adv-x="535" 
d="M491 377l-66 -1q1 60 -17.5 86.5t-60.5 26.5q-85 0 -148.5 -86.5t-63.5 -201.5q0 -225 308 -111l10 -38q-127 -68 -213.5 -64t-130.5 57t-44 143q0 143 92 253.5t210 110.5q69 0 99.5 -42t24.5 -133z" />
    <glyph glyph-name="d" unicode="d" horiz-adv-x="623" 
d="M215 55q39 0 90.5 30.5t94.5 76.5l60 310q-69 20 -118 20q-86 0 -148 -94t-62 -214q0 -62 23 -95.5t60 -33.5zM583 41q-77 -45 -123.5 -49.5t-61.5 24t-8 84.5q-116 -112 -205 -112q-55 0 -89 47t-34 133q0 100 41 187.5t117 142t170 54.5q35 0 85 -8l44 230l71 6
l-125 -642q-10 -43 -5.5 -63.5t28.5 -19.5t83 23z" />
    <glyph glyph-name="e" unicode="e" horiz-adv-x="549" 
d="M470 61q-98 -54 -177 -68t-128 8.5t-75 69t-26 112.5q0 89 39.5 173.5t110.5 140t152 55.5q64 0 100 -33.5t36 -90.5q0 -95 -97 -152.5t-272 -71.5v-10q0 -220 328 -96zM348 490q-79 0 -137 -71t-74 -169q138 12 217 53t79 109q0 36 -22.5 57t-62.5 21z" />
    <glyph glyph-name="f" unicode="f" horiz-adv-x="561" 
d="M402 1q0 -86 -52 -143t-124 -57q-65 0 -105.5 60t-40.5 178q0 114 37 251l-38 19l11 39h45q61 181 163.5 307t201.5 126q34 0 56.5 -15.5t29 -43t0 -62.5t-32 -78.5t-67.5 -86.5l-25 21q41 52 55 96.5t0 69.5t-50 25q-67 0 -141 -104t-123 -255l306 -1l-11 -58l-263 3
q168 -147 168 -291zM253 -138q42 0 69 34t27 89q0 141 -170 282q-29 -119 -29 -220q0 -94 28 -139.5t75 -45.5z" />
    <glyph glyph-name="g" unicode="g" horiz-adv-x="607" 
d="M228 91q87 0 170 130q15 119 63 235q-66 35 -119 35q-85 0 -144 -86.5t-59 -192.5q0 -59 24.5 -90t64.5 -31zM459 -96q-57 -114 -405 -93l9 74q165 -10 237.5 -2t92.5 28q13 13 13.5 42t-5 91.5t-6.5 104.5q-94 -126 -196 -126q-58 0 -94.5 44t-36.5 125q0 93 39.5 175
t112.5 133t162 51q57 0 112 -27q17 28 28 28q17 0 32.5 -9t15.5 -20q0 -28 -33.5 -116.5t-75.5 -170.5q-2 -38 -2 -51q0 -46 3.5 -96.5t6.5 -79t1.5 -57.5t-11.5 -48z" />
    <glyph glyph-name="h" unicode="h" horiz-adv-x="660" 
d="M612 39q-66 -38 -112 -46t-66.5 8.5t-20.5 52.5q0 43 38.5 181.5t38.5 184.5q0 65 -66 65q-96 0 -221 -137l-67 -348h-70l150 774l71 6l-70 -363q128 135 248 135q51 0 76 -27.5t25 -73.5q0 -60 -39 -201.5t-39 -169.5q0 -12 4 -18.5t16.5 -7.5t34.5 5t58 19z" />
    <glyph glyph-name="i" unicode="i" horiz-adv-x="405" 
d="M315 636l-75 -4l35 144l83 4zM380 45q-151 -79 -215 -47t-35 154l79 321l-139 -21l-7 39l170 50l59 -2l-90 -374q-21 -89 13 -106t155 24z" />
    <glyph glyph-name="j" unicode="j" horiz-adv-x="379" 
d="M339 637l-75 -5l36 146l84 5zM-55 -192l6 73q100 -3 135.5 1t52.5 21q14 14 19 58t6 105t16.5 173.5t47.5 234.5l-144 -21l-8 39l175 49l64 -2q-41 -141 -61.5 -272t-22.5 -201t-11.5 -125.5t-33.5 -79.5q-29 -29 -83 -40t-158 -13z" />
    <glyph glyph-name="k" unicode="k" horiz-adv-x="597" 
d="M448 -6l-204 227q126 65 181.5 120t55.5 94q0 24 -14 37t-39 13q-44 0 -103.5 -35.5t-121.5 -102.5l-67 -347h-70l150 774l71 6l-70 -364q63 66 127 101t117 35q44 0 70 -24t26 -63q0 -55 -55 -117.5t-171 -125.5l199 -216z" />
    <glyph glyph-name="l" unicode="l" horiz-adv-x="504" 
d="M439 74q-144 -97 -231 -80.5t-98 145.5q-27 -17 -50 -34l-22 36l70 49q2 110 33.5 220.5t78 191t103.5 131t108 50.5q42 0 66 -29t24 -81q0 -106 -85 -231t-258 -261q3 -113 64 -127.5t181 57.5zM403 710q-44 0 -93 -64.5t-86.5 -176t-44.5 -232.5q140 117 205.5 221.5
t65.5 186.5q0 31 -13 48t-34 17z" />
    <glyph glyph-name="m" unicode="m" horiz-adv-x="936" 
d="M886 39q-66 -38 -112 -46t-66.5 8.5t-20.5 52.5q0 42 38.5 180.5t38.5 185.5q0 65 -58 65q-81 0 -193 -128l-72 -357h-69l72 361q14 67 3.5 96t-49.5 29q-86 0 -192 -131q-8 -43 -36 -182.5t-34 -172.5h-70q75 380 98 537l70 5q-7 -37 -19 -123q115 133 217 133
q100 0 87 -134q119 134 226 134q49 0 72 -27.5t23 -72.5q0 -60 -39 -202t-39 -170q0 -12 4 -18.5t16.5 -7.5t34.5 5t58 19z" />
    <glyph glyph-name="n" unicode="n" horiz-adv-x="662" 
d="M612 39q-66 -38 -112 -46t-66.5 8.5t-20.5 52.5q0 42 38.5 180.5t38.5 184.5q0 66 -65 66q-97 0 -220 -135q-15 -80 -69 -350h-70q75 380 98 537l70 5q-2 -11 -9 -58.5t-11 -69.5q129 138 251 138q51 0 76 -27.5t25 -73.5q0 -60 -39 -201.5t-39 -169.5q0 -12 4 -18.5
t16.5 -7.5t34.5 5t58 19z" />
    <glyph glyph-name="o" unicode="o" horiz-adv-x="604" 
d="M65 205q0 142 86 244.5t201 102.5q86 0 136.5 -58t50.5 -160q0 -142 -85.5 -244t-200.5 -102q-86 0 -137 57.5t-51 159.5zM468 318q0 81 -35.5 127.5t-97.5 46.5q-87 0 -142.5 -79.5t-55.5 -191.5q0 -81 35.5 -127t97.5 -46q86 0 142 79t56 191z" />
    <glyph glyph-name="p" unicode="p" horiz-adv-x="607" 
d="M266 47q86 0 148 95t62 215q0 63 -23 96t-59 33q-38 0 -89.5 -32t-95.5 -78q-13 -71 -60 -309q69 -20 117 -20zM99 -189l-70 -6q112 580 135 732l70 5q-1 -6 -4 -26t-6.5 -42t-6.5 -39q51 51 106.5 84t100.5 33q54 0 88 -46.5t34 -133.5q0 -100 -41 -187.5t-117 -142
t-170 -54.5q-41 0 -83 7q-24 -120 -36 -184z" />
    <glyph glyph-name="q" unicode="q" horiz-adv-x="607" 
d="M549 -147q-124 -64 -169 -48t-28 108l36 183q-50 -48 -104 -78t-98 -30q-55 0 -89.5 46.5t-34.5 133.5q0 100 41 187.5t117 142t170 54.5q70 0 151 -27l-116 -593q-11 -55 6 -62t107 20zM215 55q38 0 89 29t96 74l61 315q-68 20 -119 20q-86 0 -148 -94.5t-62 -214.5
q0 -63 23 -96t60 -33z" />
    <glyph glyph-name="r" unicode="r" horiz-adv-x="587" 
d="M542 30q-181 -79 -214 6q-36 96 100 424q-102 -34 -179 -34q-60 -127 -170 -251l-30 27q109 138 147 229q-47 11 -47 48q0 34 31 68.5t65 34.5q37 0 37 -43q0 -22 -10 -55q105 11 218 62l30 -21q-135 -341 -127 -429q5 -54 63 -48q28 3 78 20z" />
    <glyph glyph-name="s" unicode="s" horiz-adv-x="521" 
d="M451 139q0 -73 -80.5 -115.5t-265.5 -30.5l4 67q108 -13 168.5 -4.5t82 26t21.5 46.5q0 38 -56 120t-70 111q-69 -68 -177 -142l-22 31q131 104 180 165q-5 22 -5 40q0 50 35 91.5t70 41.5q37 0 39 -37q1 -50 -64 -129q11 -35 47 -88t64.5 -103t28.5 -90z" />
    <glyph glyph-name="t" unicode="t" horiz-adv-x="475" 
d="M425 58q-53 -30 -98.5 -47.5t-79.5 -21.5t-60 2t-42.5 22t-24.5 40.5t-7.5 56t8.5 69.5l68 302h-98l16 56h62l85 155l53 4l-36 -159h193l-10 -56h-195l-67 -298q-15 -65 -3.5 -98.5t65.5 -31t161 43.5z" />
    <glyph glyph-name="u" unicode="u" horiz-adv-x="671" 
d="M630 41q-63 -35 -104.5 -45.5t-62 2.5t-26.5 45t4 81q-124 -136 -225 -136q-65 0 -92.5 51t-4.5 154l63 280l-117 -22l-7 39l149 51l60 -2l-78 -341q-17 -74 0 -109t59 -35q45 0 93.5 32.5t112.5 103.5l70 349h69l-80 -404q-10 -41 -5.5 -61t29 -19t82.5 23z" />
    <glyph glyph-name="v" unicode="v" horiz-adv-x="561" 
d="M249 66q116 208 250 473h74q-149 -288 -297 -544h-92q-55 303 -84 542l71 5q32 -267 70 -476h8z" />
    <glyph glyph-name="w" unicode="w" horiz-adv-x="691" 
d="M416 0l-68 308l-181 -308h-67q-3 213 34 539h73q-24 -208 -44 -444h5l181 309h49l63 -310h6q75 236 127 445h76q-69 -246 -187 -539h-67z" />
    <glyph glyph-name="x" unicode="x" horiz-adv-x="559" 
d="M380 -2l-111 224l-194 -222h-78l243 270l-138 267l79 5l114 -223l193 220h78l-242 -269l136 -267z" />
    <glyph glyph-name="y" unicode="y" horiz-adv-x="622" 
d="M465 -94q-58 -115 -399 -95l11 74q276 -23 326 27q8 8 12.5 22.5t5 39.5t0 47.5t-2.5 64t-2 71.5q-51 -57 -112 -93t-117 -36q-202 0 -10 510l70 3q-39 -109 -61 -190t-27.5 -129.5t2 -77.5t22 -39.5t37.5 -10.5q40 0 93.5 33.5t103.5 90.5q7 107 47 219.5t65 112.5
q17 0 32 -8.5t15 -20.5q0 -32 -30 -127t-69 -170q-1 -11 -1 -35q0 -36 3.5 -109t1 -110.5t-15.5 -63.5z" />
    <glyph glyph-name="z" unicode="z" horiz-adv-x="552" 
d="M435 0h-401l12 61l392 417l-317 -2l19 63h389l-11 -60l-393 -418l329 2z" />
    <glyph glyph-name="braceleft" unicode="{" horiz-adv-x="493" 
d="M332 -230q-138 68 -195 117t-57 100q0 27 13 52t31.5 43.5t37 35t31.5 34t13 33.5q0 62 -136 79l11 53q169 10 169 80q0 20 -32.5 78.5t-32.5 96.5q0 138 340 226l11 -65q-149 -34 -217 -69t-68 -79q0 -24 33 -84t33 -88q0 -36 -33.5 -70.5t-99.5 -52.5q91 -28 91 -93
q0 -27 -19.5 -54t-42.5 -46t-42.5 -44.5t-19.5 -50.5q0 -39 50 -78.5t165 -95.5z" />
    <glyph glyph-name="bar" unicode="|" horiz-adv-x="365" 
d="M250 778h66l-191 -978h-65z" />
    <glyph glyph-name="braceright" unicode="}" horiz-adv-x="493" 
d="M-26 -229l-11 65q149 33 216.5 69t67.5 79q0 24 -32.5 84t-32.5 88q0 36 33.5 70.5t99.5 52.5q-91 28 -91 93q0 27 19.5 54t42.5 46t42.5 44.5t19.5 50.5q0 39 -50 78.5t-165 95.5l34 58q138 -68 195 -117t57 -100q0 -33 -20 -64t-43.5 -50t-43.5 -41.5t-20 -42.5
q0 -62 137 -79l-11 -53q-170 -10 -170 -80q0 -20 33 -78.5t33 -96.5q0 -138 -340 -226z" />
    <glyph glyph-name="asciitilde" unicode="~" 
d="M424 222q-32 0 -63 25.5t-51.5 56.5t-45 56.5t-44.5 25.5q-52 0 -118 -155l-51 20q89 204 181 204q32 0 62.5 -25.5t50.5 -56.5t43.5 -56.5t43.5 -25.5q50 0 119 155l51 -20q-88 -204 -178 -204z" />
    <glyph glyph-name="uni00A0" unicode="&#xa0;" horiz-adv-x="308" 
 />
    <glyph glyph-name="exclamdown" unicode="&#xa1;" horiz-adv-x="367" 
d="M217 688h101l-21 -107h-102zM190 435h47q-11 -57 -38.5 -249t-37.5 -247h-93q10 45 59.5 239.5t62.5 256.5z" />
    <glyph glyph-name="cent" unicode="&#xa2;" 
d="M163 284q0 -103 122 -149l74 322q-196 -29 -196 -173zM475 36q-81 3 -147 17l-33 -148h-69l39 165q-170 57 -170 198q0 90 67.5 161.5t207.5 95.5l35 163h69l-36 -156q56 5 124 0l-13 -71q-81 5 -131 1l-78 -343q62 -14 148 -18z" />
    <glyph glyph-name="sterling" unicode="&#xa3;" 
d="M553 140q-12 -31 -25 -54.5t-25 -40.5t-28.5 -27.5t-30 -17t-35 -7.5t-37 -0.5t-43 6.5t-47 10.5t-55 13.5t-60.5 15q-49 -52 -114 -52q-54 0 -61 34q-7 32 33 58q43 29 112 25q27 71 40 184h-91l12 60h85q15 126 50 195q34 68 93 115t130 47q144 0 139 -205l-73 -3
q0 78 -21.5 109.5t-63.5 31.5q-44 0 -81 -30t-62 -79q-29 -59 -42 -181h221l-10 -60h-218q-13 -132 -42 -194q24 -5 59.5 -13t53 -11.5t43.5 -7t40 -2t33 7t31.5 17t26.5 30t27 45.5z" />
    <glyph glyph-name="yen" unicode="&#xa5;" 
d="M515 135h-197l-25 -135h-71l27 135h-200l13 61h200l15 79l-11 30h-183l12 61h149l-116 320l75 4l123 -348l252 346h78l-240 -322h145l-12 -61h-178l-28 -38l-13 -71h198z" />
    <glyph glyph-name="section" unicode="&#xa7;" horiz-adv-x="627" 
d="M153 279q0 -22 22 -43t47.5 -35t68.5 -35q7 -3 11 -5q92 21 133.5 44t41.5 53q0 14 -8 27t-27.5 26.5t-33 21.5t-45.5 24.5t-45 23.5q-70 -11 -117.5 -37t-47.5 -65zM466 13q0 -48 -44.5 -82.5t-142.5 -46.5t-255 23l18 73q77 -20 138.5 -29t100.5 -7.5t65 10.5
t36.5 22.5t10.5 30.5q0 26 -31.5 49.5t-77 44t-90.5 43t-76.5 54.5t-31.5 70q0 54 49.5 90.5t132.5 52.5q-79 54 -79 120q0 67 63 118.5t156 51.5q75 0 114.5 -41.5t51.5 -126.5l-66 -13q-10 62 -39 91t-82 29q-54 0 -89.5 -28.5t-35.5 -67.5q0 -33 29 -62t71 -51.5
t83.5 -45t70.5 -52.5t29 -64q0 -45 -44.5 -77.5t-140.5 -58.5q106 -58 106 -120z" />
    <glyph glyph-name="dieresis" unicode="&#xa8;" horiz-adv-x="571" 
d="M431 635l-75 -1l35 144l84 2zM214 633l-75 -2l35 144l83 2z" />
    <glyph glyph-name="copyright" unicode="&#xa9;" horiz-adv-x="924" 
d="M508 723q150 0 245.5 -91.5t95.5 -251.5q0 -184 -122 -299t-297 -115q-153 0 -249.5 89.5t-96.5 248.5q0 122 59 219t155.5 148.5t209.5 51.5zM506 672q-151 0 -258.5 -101.5t-107.5 -260.5q0 -140 81.5 -216.5t210.5 -76.5q150 0 256 99.5t106 257.5q0 141 -80.5 219.5
t-207.5 78.5zM510 538q114 0 101 -157h-55q1 55 -9 80.5t-44 25.5q-56 0 -93 -57t-37 -126q0 -154 205 -81l-5 -54q-119 -41 -189.5 -6.5t-70.5 132.5q0 94 58 168.5t139 74.5z" />
    <glyph glyph-name="ordfeminine" unicode="&#xaa;" horiz-adv-x="559" 
d="M239 330q28 0 66.5 23.5t70.5 57.5l44 220q-45 12 -80 12q-64 0 -110.5 -69t-46.5 -157q0 -42 15.5 -64.5t40.5 -22.5zM505 308q-84 -44 -115 -29.5t-24 77.5q-89 -82 -156 -82q-39 0 -63.5 32.5t-24.5 92.5q0 117 72.5 206.5t178.5 89.5q52 0 117 -16l-58 -290
q-5 -26 -5.5 -39t5.5 -21t21.5 -6t43.5 13zM92 188h372l-10 -53h-373z" />
    <glyph glyph-name="guillemotleft" unicode="&#xab;" horiz-adv-x="755" 
d="M259 -16l-189 246l18 83l277 245l45 -55l-281 -237l186 -234zM569 -16l-183 243l21 83l279 247l44 -57l-284 -237l180 -232z" />
    <glyph glyph-name="registered" unicode="&#xae;" horiz-adv-x="690" 
d="M639 508q0 -126 -85.5 -207.5t-204.5 -81.5q-104 0 -169 63t-65 174q0 126 85.5 207.5t204.5 81.5q104 0 169 -62.5t65 -174.5zM405 704q-101 0 -173 -68.5t-72 -175.5q0 -97 52.5 -148.5t137.5 -51.5q100 0 172 68t72 175q0 98 -52 149.5t-137 51.5zM434 357l-74 110
l-1 2q85 28 85 66q0 43 -88 35l-40 -210h-49l48 250q90 11 134.5 -8t44.5 -57q0 -51 -80 -85l71 -96z" />
    <glyph glyph-name="macron" unicode="&#xaf;" horiz-adv-x="571" 
d="M466 739l-12 -63h-334l13 63h333z" />
    <glyph glyph-name="degree" unicode="&#xb0;" 
d="M383 746q75 0 122.5 -48.5t47.5 -127.5q0 -94 -62.5 -154t-146.5 -60q-75 0 -123 48.5t-48 127.5q0 93 62.5 153.5t147.5 60.5zM352 413q60 0 100.5 42.5t40.5 108.5q0 55 -32.5 90.5t-86.5 35.5q-59 0 -99.5 -42.5t-40.5 -109.5q0 -55 32 -90t86 -35z" />
    <glyph glyph-name="plusminus" unicode="&#xb1;" 
d="M500 75h-452l12 62h192l38 194h-196l13 61h195l39 203h67l-40 -203h197l-13 -61h-196l-38 -194h195z" />
    <glyph glyph-name="two.sup" unicode="&#xb2;" horiz-adv-x="502" 
d="M411 361h-296l-1 49q150 97 215 154t65 111q0 96 -203 66l9 56q125 19 191 -10t66 -98q0 -67 -59.5 -127t-193.5 -147h219z" />
    <glyph glyph-name="three.sup" unicode="&#xb3;" horiz-adv-x="502" 
d="M434 484q0 -61 -75 -100t-237 -24l7 57q98 -11 152.5 -2t74 24t19.5 37q0 64 -178 101l4 27l200 142h-206l11 53h270l-6 -53l-196 -140q160 -39 160 -122z" />
    <glyph glyph-name="acute" unicode="&#xb4;" horiz-adv-x="571" 
d="M179 652q50 34 114.5 89t105.5 99l53 -61q-90 -76 -257 -160z" />
    <glyph glyph-name="mu" unicode="&#xb5;" horiz-adv-x="660" 
d="M99 -189l-70 -6l148 733l71 5l-71 -345q-15 -77 2 -110.5t63 -33.5q42 0 90 33t113 104l69 348h68l-81 -404q-10 -42 -5.5 -62t30 -19t85.5 23l11 -36q-64 -36 -107 -46t-63.5 4t-26 46t6.5 82q-127 -139 -215 -139q-56 0 -79 41z" />
    <glyph glyph-name="paragraph" unicode="&#xb6;" horiz-adv-x="737" 
d="M526 175l87 445q-65 4 -127 1l-84 -428q56 -14 124 -18zM170 398q0 -61 44 -109.5t127 -78.5l78 404q-122 -20 -185.5 -78.5t-63.5 -137.5zM341 -120l-68 -9l52 273q-109 33 -168.5 95.5t-59.5 145.5q0 146 164.5 235t431.5 70l-153 -781l-68 -9l42 212q-70 5 -125 16z
" />
    <glyph glyph-name="periodcentered" unicode="&#xb7;" horiz-adv-x="333" 
d="M222 252h-101l21 112h101z" />
    <glyph glyph-name="cedilla" unicode="&#xb8;" horiz-adv-x="571" 
d="M157 -159l-39 13q61 160 142 160q50 0 78.5 -51.5t21.5 -151.5l-65 -1q10 148 -43 148q-44 0 -95 -117z" />
    <glyph glyph-name="one.sup" unicode="&#xb9;" horiz-adv-x="502" 
d="M424 361h-307l10 53h130l56 287l-123 -7l6 44l128 16l12 62l61 4l-81 -406h121z" />
    <glyph glyph-name="ordmasculine" unicode="&#xba;" horiz-adv-x="574" 
d="M517 533q0 -104 -68 -181.5t-159 -77.5q-67 0 -106 43t-39 119q0 104 68 182t159 78q66 0 105.5 -43.5t39.5 -119.5zM456 522q0 58 -27 90t-74 32q-66 0 -107.5 -57.5t-41.5 -139.5q0 -57 27 -89t74 -32q65 0 107 57t42 139zM97 188h351l-10 -53h-352z" />
    <glyph glyph-name="guillemotright" unicode="&#xbb;" horiz-adv-x="759" 
d="M395 -15l-45 55l282 237l-186 234l55 48l190 -246l-19 -83zM74 -13l-44 56l285 237l-180 232l56 47l183 -243l-21 -82z" />
    <glyph glyph-name="onequarter" unicode="&#xbc;" horiz-adv-x="1126" 
d="M412 250h-307l10 53h130l56 287l-123 -7l6 44l128 16l12 62l61 4l-81 -406h121zM327 -22l-39 31l565 697l40 -31zM1012 92h-52l-18 -92h-56l18 92h-216l4 42q85 141 137 309l64 -3q-55 -164 -140 -295l161 -1l29 147l56 6l-29 -153h57z" />
    <glyph glyph-name="onehalf" unicode="&#xbd;" horiz-adv-x="1126" 
d="M412 250h-307l10 53h130l56 287l-123 -7l6 44l128 16l12 62l61 4l-81 -406h121zM318 -22l-39 31l565 697l40 -31zM974 0h-296l-1 49q150 97 215 154t65 111q0 96 -203 66l9 56q125 19 191 -10t66 -98q0 -67 -59.5 -127t-193.5 -147h219z" />
    <glyph glyph-name="threequarters" unicode="&#xbe;" horiz-adv-x="1126" 
d="M312 -22l-39 31l565 697l40 -31zM422 373q0 -61 -75 -100t-237 -24l7 57q98 -11 152.5 -2t74 24t19.5 37q0 64 -178 101l4 27l200 142h-206l11 53h270l-6 -53l-196 -140q160 -39 160 -122zM1012 92h-52l-18 -92h-56l18 92h-216l4 42q85 141 137 309l64 -3
q-55 -164 -140 -295l161 -1l29 147l56 6l-29 -153h57z" />
    <glyph glyph-name="questiondown" unicode="&#xbf;" horiz-adv-x="565" 
d="M373 688h101l-21 -107h-102zM440 7l-14 -71q-183 22 -271.5 68.5t-88.5 124.5q0 71 71.5 142t234.5 161l24 -41q-138 -77 -194 -131t-56 -105q0 -61 69.5 -93.5t224.5 -54.5z" />
    <glyph glyph-name="Agrave" unicode="&#xc0;" horiz-adv-x="661" 
d="M526 794l-20 -32q-126 84 -214 175l52 60q85 -115 182 -203zM484 -3q-16 150 -25 226h-268q-88 -174 -112 -223h-74q175 352 358 691h104q53 -359 89 -688zM400 624q-85 -159 -180 -344h232q-16 128 -44 344h-8z" />
    <glyph glyph-name="Aacute" unicode="&#xc1;" horiz-adv-x="661" 
d="M329 803q50 34 114.5 89t105.5 99l53 -61q-90 -76 -257 -160zM484 -3q-16 150 -25 226h-268q-88 -174 -112 -223h-74q175 352 358 691h104q53 -359 89 -688zM400 624q-85 -159 -180 -344h232q-16 128 -44 344h-8z" />
    <glyph glyph-name="Acircumflex" unicode="&#xc2;" horiz-adv-x="661" 
d="M562 770l-102 130l-164 -125l-34 40l211 163h1l139 -167zM484 -3q-16 150 -25 226h-268q-88 -174 -112 -223h-74q175 352 358 691h104q53 -359 89 -688zM400 624q-85 -159 -180 -344h232q-16 128 -44 344h-8z" />
    <glyph glyph-name="Atilde" unicode="&#xc3;" horiz-adv-x="661" 
d="M525 839q33 0 100 114l37 -23q-83 -149 -153 -149q-23 0 -43 18.5t-32 40.5t-27.5 40.5t-30.5 18.5q-36 0 -100 -109l-37 23q81 144 154 144q23 0 43 -18.5t32 -40.5t27 -40.5t30 -18.5zM484 -3q-16 150 -25 226h-268q-88 -174 -112 -223h-74q175 352 358 691h104
q53 -359 89 -688zM400 624q-85 -159 -180 -344h232q-16 128 -44 344h-8z" />
    <glyph glyph-name="Adieresis" unicode="&#xc4;" horiz-adv-x="661" 
d="M572 786l-75 -1l35 144l84 2zM355 784l-75 -2l35 144l83 2zM484 -3q-16 150 -25 226h-268q-88 -174 -112 -223h-74q175 352 358 691h104q53 -359 89 -688zM400 624q-85 -159 -180 -344h232q-16 128 -44 344h-8z" />
    <glyph glyph-name="Aring" unicode="&#xc5;" horiz-adv-x="661" 
d="M459 985q55 0 89.5 -29.5t34.5 -75.5q0 -52 -41 -88t-102 -36q-54 0 -88 30t-34 76q0 52 40 87.5t101 35.5zM454 938q-35 0 -58 -20.5t-23 -50.5q0 -27 20.5 -45t53.5 -18q34 0 57.5 20.5t23.5 49.5q0 28 -21 46t-53 18zM484 -3q-16 150 -25 226h-268q-88 -174 -112 -223
h-74q175 352 358 691h104q53 -359 89 -688zM400 624q-85 -159 -180 -344h232q-16 128 -44 344h-8z" />
    <glyph glyph-name="AE" unicode="&#xc6;" horiz-adv-x="957" 
d="M551 623q-158 -200 -274 -350h214l68 350h-8zM438 0l42 217h-247q-101 -131 -165 -217h-81q256 339 537 688h433l-12 -65h-313l-47 -246h267l-11 -57h-268l-49 -255h315l-18 -65h-383z" />
    <glyph glyph-name="Ccedilla" unicode="&#xc7;" horiz-adv-x="652" 
d="M387 -190l-65 -1q10 148 -43 148q-44 0 -95 -117l-39 13q43 112 95 146q-76 23 -117 86t-41 162q0 117 48 222t131.5 169.5t179.5 64.5q93 0 128.5 -61.5t31.5 -189.5l-70 -1q1 100 -20 143.5t-87 43.5q-78 0 -141 -56.5t-95.5 -142t-32.5 -177.5q0 -150 100 -193.5
t285 24.5l-6 -68q-97 -34 -186 -39q48 -49 39 -176z" />
    <glyph glyph-name="Egrave" unicode="&#xc8;" horiz-adv-x="587" 
d="M499 792l-20 -32q-126 84 -214 175l52 60q85 -115 182 -203zM470 65l-18 -65h-386l133 688h389l-12 -65h-317l-47 -246h271l-12 -57h-270l-49 -255h318z" />
    <glyph glyph-name="Eacute" unicode="&#xc9;" horiz-adv-x="587" 
d="M302 801q50 34 114.5 89t105.5 99l53 -61q-90 -76 -257 -160zM470 65l-18 -65h-386l133 688h389l-12 -65h-317l-47 -246h271l-12 -57h-270l-49 -255h318z" />
    <glyph glyph-name="Ecircumflex" unicode="&#xca;" horiz-adv-x="587" 
d="M535 768l-102 130l-164 -125l-34 40l211 163h1l139 -167zM470 65l-18 -65h-386l133 688h389l-12 -65h-317l-47 -246h271l-12 -57h-270l-49 -255h318z" />
    <glyph glyph-name="Edieresis" unicode="&#xcb;" horiz-adv-x="587" 
d="M545 784l-75 -1l35 144l84 2zM328 782l-75 -2l35 144l83 2zM470 65l-18 -65h-386l133 688h389l-12 -65h-317l-47 -246h271l-12 -57h-270l-49 -255h318z" />
    <glyph glyph-name="Igrave" unicode="&#xcc;" horiz-adv-x="547" 
d="M466 792l-20 -32q-126 84 -214 175l52 60q85 -115 182 -203zM269 60h155l-15 -60h-376l12 60h151l110 568h-154l12 60h376l-12 -60h-149z" />
    <glyph glyph-name="Iacute" unicode="&#xcd;" horiz-adv-x="547" 
d="M269 801q50 34 114.5 89t105.5 99l53 -61q-90 -76 -257 -160zM269 60h155l-15 -60h-376l12 60h151l110 568h-154l12 60h376l-12 -60h-149z" />
    <glyph glyph-name="Icircumflex" unicode="&#xce;" horiz-adv-x="547" 
d="M502 768l-102 130l-164 -125l-34 40l211 163h1l139 -167zM269 60h155l-15 -60h-376l12 60h151l110 568h-154l12 60h376l-12 -60h-149z" />
    <glyph glyph-name="Idieresis" unicode="&#xcf;" horiz-adv-x="547" 
d="M512 784l-75 -1l35 144l84 2zM295 782l-75 -2l35 144l83 2zM269 60h155l-15 -60h-376l12 60h151l110 568h-154l12 60h376l-12 -60h-149z" />
    <glyph glyph-name="Eth" unicode="&#xd0;" horiz-adv-x="696" 
d="M642 422q0 -97 -35.5 -179.5t-103.5 -143.5t-178 -88.5t-249 -10.5l61 320h-82l12 58h82l59 309q204 32 319 -36t115 -229zM382 320h-172l-50 -262q202 -13 306 89t104 266q0 122 -77 177t-223 41l-49 -253h172z" />
    <glyph glyph-name="Ntilde" unicode="&#xd1;" horiz-adv-x="729" 
d="M558 838q33 0 100 114l37 -23q-83 -149 -153 -149q-23 0 -43 18.5t-32 40.5t-27.5 40.5t-30.5 18.5q-36 0 -100 -109l-37 23q81 144 154 144q23 0 43 -18.5t32 -40.5t27 -40.5t30 -18.5zM477 0l-223 594h-7l-113 -594h-68l133 686l94 4l216 -573h7l108 571h68l-133 -688
h-82z" />
    <glyph glyph-name="Ograve" unicode="&#xd2;" horiz-adv-x="726" 
d="M557 804l-20 -32q-126 84 -214 175l52 60q85 -115 182 -203zM439 703q104 0 169 -74t65 -201q0 -183 -105 -313t-252 -130q-104 0 -169 74.5t-65 201.5q0 182 105 312t252 130zM332 49q114 0 191 108t77 259q0 104 -49.5 163.5t-126.5 59.5q-115 0 -192 -107.5
t-77 -258.5q0 -104 49.5 -164t127.5 -60z" />
    <glyph glyph-name="Oacute" unicode="&#xd3;" horiz-adv-x="726" 
d="M359 813q50 34 114.5 89t105.5 99l53 -61q-90 -76 -257 -160zM439 703q104 0 169 -74t65 -201q0 -183 -105 -313t-252 -130q-104 0 -169 74.5t-65 201.5q0 182 105 312t252 130zM332 49q114 0 191 108t77 259q0 104 -49.5 163.5t-126.5 59.5q-115 0 -192 -107.5
t-77 -258.5q0 -104 49.5 -164t127.5 -60z" />
    <glyph glyph-name="Ocircumflex" unicode="&#xd4;" horiz-adv-x="726" 
d="M592 780l-102 130l-164 -125l-34 40l211 163h1l139 -167zM439 703q104 0 169 -74t65 -201q0 -183 -105 -313t-252 -130q-104 0 -169 74.5t-65 201.5q0 182 105 312t252 130zM332 49q114 0 191 108t77 259q0 104 -49.5 163.5t-126.5 59.5q-115 0 -192 -107.5t-77 -258.5
q0 -104 49.5 -164t127.5 -60z" />
    <glyph glyph-name="Otilde" unicode="&#xd5;" horiz-adv-x="726" 
d="M556 849q33 0 100 114l37 -23q-83 -149 -153 -149q-23 0 -43 18.5t-32 40.5t-27.5 40.5t-30.5 18.5q-36 0 -100 -109l-37 23q81 144 154 144q23 0 43 -18.5t32 -40.5t27 -40.5t30 -18.5zM439 703q104 0 169 -74t65 -201q0 -183 -105 -313t-252 -130q-104 0 -169 74.5
t-65 201.5q0 182 105 312t252 130zM332 49q114 0 191 108t77 259q0 104 -49.5 163.5t-126.5 59.5q-115 0 -192 -107.5t-77 -258.5q0 -104 49.5 -164t127.5 -60z" />
    <glyph glyph-name="Odieresis" unicode="&#xd6;" horiz-adv-x="726" 
d="M602 796l-75 -1l35 144l84 2zM385 794l-75 -2l35 144l83 2zM439 703q104 0 169 -74t65 -201q0 -183 -105 -313t-252 -130q-104 0 -169 74.5t-65 201.5q0 182 105 312t252 130zM332 49q114 0 191 108t77 259q0 104 -49.5 163.5t-126.5 59.5q-115 0 -192 -107.5t-77 -258.5
q0 -104 49.5 -164t127.5 -60z" />
    <glyph glyph-name="multiply" unicode="&#xd7;" 
d="M452 106l-135 169l-193 -161l-41 52l192 160l-135 169l52 44l136 -169l192 160l41 -52l-192 -160l136 -168z" />
    <glyph glyph-name="Oslash" unicode="&#xd8;" horiz-adv-x="726" 
d="M154 273q0 -60 17 -106l382 408q-49 64 -130 64q-115 0 -192 -107.5t-77 -258.5zM331 49q114 0 191 108t77 259q0 58 -18 109l-383 -409q50 -67 133 -67zM315 -15q-106 0 -170 75l-80 -87l-41 36l91 97q-34 65 -34 155q0 182 105 312t252 130q104 0 167 -72l80 85l42 -36
l-90 -95q35 -67 35 -157q0 -183 -105 -313t-252 -130z" />
    <glyph glyph-name="Ugrave" unicode="&#xd9;" horiz-adv-x="703" 
d="M546 792l-20 -32q-126 84 -214 175l52 60q85 -115 182 -203zM186 288q-45 -238 134 -238q157 0 196 197l85 441h73l-86 -441q-25 -132 -98 -196.5t-179 -64.5q-54 0 -95 16t-71.5 52.5t-37.5 95.5t8 146l76 392h73z" />
    <glyph glyph-name="Uacute" unicode="&#xda;" horiz-adv-x="703" 
d="M349 801q50 34 114.5 89t105.5 99l53 -61q-90 -76 -257 -160zM186 288q-45 -238 134 -238q157 0 196 197l85 441h73l-86 -441q-25 -132 -98 -196.5t-179 -64.5q-54 0 -95 16t-71.5 52.5t-37.5 95.5t8 146l76 392h73z" />
    <glyph glyph-name="Ucircumflex" unicode="&#xdb;" horiz-adv-x="703" 
d="M582 768l-102 130l-164 -125l-34 40l211 163h1l139 -167zM186 288q-45 -238 134 -238q157 0 196 197l85 441h73l-86 -441q-25 -132 -98 -196.5t-179 -64.5q-54 0 -95 16t-71.5 52.5t-37.5 95.5t8 146l76 392h73z" />
    <glyph glyph-name="Udieresis" unicode="&#xdc;" horiz-adv-x="703" 
d="M592 784l-75 -1l35 144l84 2zM375 782l-75 -2l35 144l83 2zM186 288q-45 -238 134 -238q157 0 196 197l85 441h73l-86 -441q-25 -132 -98 -196.5t-179 -64.5q-54 0 -95 16t-71.5 52.5t-37.5 95.5t8 146l76 392h73z" />
    <glyph glyph-name="Yacute" unicode="&#xdd;" horiz-adv-x="630" 
d="M313 803q50 34 114.5 89t105.5 99l53 -61q-90 -76 -257 -160zM299 0h-73l46 236l-148 450l75 4l123 -390h2l267 388h79l-327 -461z" />
    <glyph glyph-name="Thorn" unicode="&#xde;" horiz-adv-x="604" 
d="M140 0h-73l133 687h73l-21 -108q162 10 240 -40.5t78 -142.5q0 -115 -107.5 -188.5t-300.5 -91.5zM498 384q0 72 -65 109t-193 24l-64 -331q154 0 238 54t84 144z" />
    <glyph glyph-name="germandbls" unicode="&#xdf;" horiz-adv-x="622" 
d="M225 -7l10 70q245 -26 245 72q0 86 -187 225q108 96 151.5 156.5t43.5 114.5q0 38 -23 61.5t-64 23.5q-63 0 -108.5 -71t-81.5 -255l-75 -390h-70l76 385q76 392 278 392q66 0 102.5 -36.5t36.5 -92.5q0 -119 -177 -272q166 -128 166 -228q0 -73 -79 -119t-244 -36z" />
    <glyph glyph-name="agrave" unicode="&#xe0;" horiz-adv-x="614" 
d="M481 650l-20 -32q-126 84 -214 175l52 60q85 -115 182 -203zM206 56q37 0 89.5 32t98.5 78l61 305q-66 18 -113 18q-87 0 -149.5 -95.5t-62.5 -217.5q0 -58 21 -89t55 -31zM575 41q-79 -45 -125 -49t-60.5 25t-6.5 87q-52 -51 -108 -83.5t-100 -32.5q-52 0 -83.5 43.5
t-31.5 125.5q0 102 41.5 191.5t118 145.5t170.5 56q62 0 145 -21l-77 -394q-10 -41 -6 -61t28.5 -19t83.5 23z" />
    <glyph glyph-name="aacute" unicode="&#xe1;" horiz-adv-x="614" 
d="M284 659q50 34 114.5 89t105.5 99l53 -61q-90 -76 -257 -160zM206 56q37 0 89.5 32t98.5 78l61 305q-66 18 -113 18q-87 0 -149.5 -95.5t-62.5 -217.5q0 -58 21 -89t55 -31zM575 41q-79 -45 -125 -49t-60.5 25t-6.5 87q-52 -51 -108 -83.5t-100 -32.5q-52 0 -83.5 43.5
t-31.5 125.5q0 102 41.5 191.5t118 145.5t170.5 56q62 0 145 -21l-77 -394q-10 -41 -6 -61t28.5 -19t83.5 23z" />
    <glyph glyph-name="acircumflex" unicode="&#xe2;" horiz-adv-x="614" 
d="M517 626l-102 130l-164 -125l-34 40l211 163h1l139 -167zM206 56q37 0 89.5 32t98.5 78l61 305q-66 18 -113 18q-87 0 -149.5 -95.5t-62.5 -217.5q0 -58 21 -89t55 -31zM575 41q-79 -45 -125 -49t-60.5 25t-6.5 87q-52 -51 -108 -83.5t-100 -32.5q-52 0 -83.5 43.5
t-31.5 125.5q0 102 41.5 191.5t118 145.5t170.5 56q62 0 145 -21l-77 -394q-10 -41 -6 -61t28.5 -19t83.5 23z" />
    <glyph glyph-name="atilde" unicode="&#xe3;" horiz-adv-x="614" 
d="M480 695q33 0 100 114l37 -23q-83 -149 -153 -149q-23 0 -43 18.5t-32 40.5t-27.5 40.5t-30.5 18.5q-36 0 -100 -109l-37 23q81 144 154 144q23 0 43 -18.5t32 -40.5t27 -40.5t30 -18.5zM206 56q37 0 89.5 32t98.5 78l61 305q-66 18 -113 18q-87 0 -149.5 -95.5
t-62.5 -217.5q0 -58 21 -89t55 -31zM575 41q-79 -45 -125 -49t-60.5 25t-6.5 87q-52 -51 -108 -83.5t-100 -32.5q-52 0 -83.5 43.5t-31.5 125.5q0 102 41.5 191.5t118 145.5t170.5 56q62 0 145 -21l-77 -394q-10 -41 -6 -61t28.5 -19t83.5 23z" />
    <glyph glyph-name="adieresis" unicode="&#xe4;" horiz-adv-x="614" 
d="M527 642l-75 -1l35 144l84 2zM310 640l-75 -2l35 144l83 2zM206 56q37 0 89.5 32t98.5 78l61 305q-66 18 -113 18q-87 0 -149.5 -95.5t-62.5 -217.5q0 -58 21 -89t55 -31zM575 41q-79 -45 -125 -49t-60.5 25t-6.5 87q-52 -51 -108 -83.5t-100 -32.5q-52 0 -83.5 43.5
t-31.5 125.5q0 102 41.5 191.5t118 145.5t170.5 56q62 0 145 -21l-77 -394q-10 -41 -6 -61t28.5 -19t83.5 23z" />
    <glyph glyph-name="aring" unicode="&#xe5;" horiz-adv-x="614" 
d="M414 841q55 0 89.5 -29.5t34.5 -75.5q0 -52 -41 -88t-102 -36q-54 0 -88 30t-34 76q0 52 40 87.5t101 35.5zM409 794q-35 0 -58 -20.5t-23 -50.5q0 -27 20.5 -45t53.5 -18q34 0 57.5 20.5t23.5 49.5q0 28 -21 46t-53 18zM206 56q37 0 89.5 32t98.5 78l61 305
q-66 18 -113 18q-87 0 -149.5 -95.5t-62.5 -217.5q0 -58 21 -89t55 -31zM575 41q-79 -45 -125 -49t-60.5 25t-6.5 87q-52 -51 -108 -83.5t-100 -32.5q-52 0 -83.5 43.5t-31.5 125.5q0 102 41.5 191.5t118 145.5t170.5 56q62 0 145 -21l-77 -394q-10 -41 -6 -61t28.5 -19
t83.5 23z" />
    <glyph glyph-name="ae" unicode="&#xe6;" horiz-adv-x="878" 
d="M677 490q-80 0 -138.5 -71t-72.5 -169q139 11 218 52t79 110q0 36 -23 57t-63 21zM205 56q39 0 91 44.5t98 109.5q9 141 92 240q-78 39 -144 39q-87 0 -149.5 -95.5t-62.5 -217.5q0 -58 21 -89t54 -31zM800 61q-95 -49 -171 -64.5t-124.5 1t-76 54t-33.5 93.5
q-52 -68 -110 -112.5t-108 -44.5q-51 0 -84 44t-33 125q0 101 41 191t116.5 146t166.5 56q78 0 160 -46q70 48 152 48q63 0 99 -33.5t36 -90.5q0 -97 -96 -154t-273 -70v-7q0 -73 30.5 -108.5t103.5 -34.5t194 44z" />
    <glyph glyph-name="ccedilla" unicode="&#xe7;" horiz-adv-x="535" 
d="M324 -190l-65 -1q10 148 -43 148q-44 0 -95 -117l-39 13q43 112 95 145q-55 19 -83.5 69t-28.5 121q0 143 92 253.5t210 110.5q69 0 99.5 -42t24.5 -133l-66 -1q1 60 -17.5 86.5t-60.5 26.5q-85 0 -148.5 -86.5t-63.5 -201.5q0 -225 308 -111l10 -38q-96 -52 -172 -61
q53 -51 43 -181z" />
    <glyph glyph-name="egrave" unicode="&#xe8;" horiz-adv-x="549" 
d="M474 653l-20 -32q-126 84 -214 175l52 60q85 -115 182 -203zM470 61q-98 -54 -177 -68t-128 8.5t-75 69t-26 112.5q0 89 39.5 173.5t110.5 140t152 55.5q64 0 100 -33.5t36 -90.5q0 -95 -97 -152.5t-272 -71.5v-10q0 -220 328 -96zM348 490q-79 0 -137 -71t-74 -169
q138 12 217 53t79 109q0 36 -22.5 57t-62.5 21z" />
    <glyph glyph-name="eacute" unicode="&#xe9;" horiz-adv-x="549" 
d="M277 662q50 34 114.5 89t105.5 99l53 -61q-90 -76 -257 -160zM470 61q-98 -54 -177 -68t-128 8.5t-75 69t-26 112.5q0 89 39.5 173.5t110.5 140t152 55.5q64 0 100 -33.5t36 -90.5q0 -95 -97 -152.5t-272 -71.5v-10q0 -220 328 -96zM348 490q-79 0 -137 -71t-74 -169
q138 12 217 53t79 109q0 36 -22.5 57t-62.5 21z" />
    <glyph glyph-name="ecircumflex" unicode="&#xea;" horiz-adv-x="549" 
d="M510 629l-102 130l-164 -125l-34 40l211 163h1l139 -167zM470 61q-98 -54 -177 -68t-128 8.5t-75 69t-26 112.5q0 89 39.5 173.5t110.5 140t152 55.5q64 0 100 -33.5t36 -90.5q0 -95 -97 -152.5t-272 -71.5v-10q0 -220 328 -96zM348 490q-79 0 -137 -71t-74 -169
q138 12 217 53t79 109q0 36 -22.5 57t-62.5 21z" />
    <glyph glyph-name="edieresis" unicode="&#xeb;" horiz-adv-x="549" 
d="M520 645l-75 -1l35 144l84 2zM303 643l-75 -2l35 144l83 2zM470 61q-98 -54 -177 -68t-128 8.5t-75 69t-26 112.5q0 89 39.5 173.5t110.5 140t152 55.5q64 0 100 -33.5t36 -90.5q0 -95 -97 -152.5t-272 -71.5v-10q0 -220 328 -96zM348 490q-79 0 -137 -71t-74 -169
q138 12 217 53t79 109q0 36 -22.5 57t-62.5 21z" />
    <glyph glyph-name="igrave" unicode="&#xec;" horiz-adv-x="405" 
d="M362 645l-20 -32q-126 84 -214 175l52 60q85 -115 182 -203zM380 45q-151 -79 -215 -47t-35 154l79 321l-139 -21l-7 39l170 50l59 -2l-90 -374q-21 -89 13 -106t155 24z" />
    <glyph glyph-name="iacute" unicode="&#xed;" horiz-adv-x="405" 
d="M165 654q50 34 114.5 89t105.5 99l53 -61q-90 -76 -257 -160zM380 45q-151 -79 -215 -47t-35 154l79 321l-139 -21l-7 39l170 50l59 -2l-90 -374q-21 -89 13 -106t155 24z" />
    <glyph glyph-name="icircumflex" unicode="&#xee;" horiz-adv-x="405" 
d="M398 621l-102 130l-164 -125l-34 40l211 163h1l139 -167zM380 45q-151 -79 -215 -47t-35 154l79 321l-139 -21l-7 39l170 50l59 -2l-90 -374q-21 -89 13 -106t155 24z" />
    <glyph glyph-name="idieresis" unicode="&#xef;" horiz-adv-x="405" 
d="M408 637l-75 -1l35 144l84 2zM191 635l-75 -2l35 144l83 2zM380 45q-151 -79 -215 -47t-35 154l79 321l-139 -21l-7 39l170 50l59 -2l-90 -374q-21 -89 13 -106t155 24z" />
    <glyph glyph-name="eth" unicode="&#xf0;" horiz-adv-x="595" 
d="M257 -12q-87 0 -139.5 57.5t-52.5 152.5q0 126 83.5 217.5t198.5 91.5q47 0 88 -12q-22 61 -67 119l-162 -48l-14 49l141 41q-43 46 -95 87l50 46q67 -55 115 -112l128 37l12 -49l-107 -31q95 -134 95 -293q0 -154 -78 -253.5t-196 -99.5zM275 48q84 0 135.5 80.5
t51.5 206.5q0 46 -7 82q-70 31 -134 31q-80 0 -132.5 -69.5t-52.5 -163.5q0 -76 38 -121.5t101 -45.5z" />
    <glyph glyph-name="ntilde" unicode="&#xf1;" horiz-adv-x="662" 
d="M493 700q33 0 100 114l37 -23q-83 -149 -153 -149q-23 0 -43 18.5t-32 40.5t-27.5 40.5t-30.5 18.5q-36 0 -100 -109l-37 23q81 144 154 144q23 0 43 -18.5t32 -40.5t27 -40.5t30 -18.5zM612 39q-66 -38 -112 -46t-66.5 8.5t-20.5 52.5q0 42 38.5 180.5t38.5 184.5
q0 66 -65 66q-97 0 -220 -135q-15 -80 -69 -350h-70q75 380 98 537l70 5q-2 -11 -9 -58.5t-11 -69.5q129 138 251 138q51 0 76 -27.5t25 -73.5q0 -60 -39 -201.5t-39 -169.5q0 -12 4 -18.5t16.5 -7.5t34.5 5t58 19z" />
    <glyph glyph-name="ograve" unicode="&#xf2;" horiz-adv-x="604" 
d="M467 653l-20 -32q-126 84 -214 175l52 60q85 -115 182 -203zM65 205q0 142 86 244.5t201 102.5q86 0 136.5 -58t50.5 -160q0 -142 -85.5 -244t-200.5 -102q-86 0 -137 57.5t-51 159.5zM468 318q0 81 -35.5 127.5t-97.5 46.5q-87 0 -142.5 -79.5t-55.5 -191.5
q0 -81 35.5 -127t97.5 -46q86 0 142 79t56 191z" />
    <glyph glyph-name="oacute" unicode="&#xf3;" horiz-adv-x="604" 
d="M270 662q50 34 114.5 89t105.5 99l53 -61q-90 -76 -257 -160zM65 205q0 142 86 244.5t201 102.5q86 0 136.5 -58t50.5 -160q0 -142 -85.5 -244t-200.5 -102q-86 0 -137 57.5t-51 159.5zM468 318q0 81 -35.5 127.5t-97.5 46.5q-87 0 -142.5 -79.5t-55.5 -191.5
q0 -81 35.5 -127t97.5 -46q86 0 142 79t56 191z" />
    <glyph glyph-name="ocircumflex" unicode="&#xf4;" horiz-adv-x="604" 
d="M503 629l-102 130l-164 -125l-34 40l211 163h1l139 -167zM65 205q0 142 86 244.5t201 102.5q86 0 136.5 -58t50.5 -160q0 -142 -85.5 -244t-200.5 -102q-86 0 -137 57.5t-51 159.5zM468 318q0 81 -35.5 127.5t-97.5 46.5q-87 0 -142.5 -79.5t-55.5 -191.5
q0 -81 35.5 -127t97.5 -46q86 0 142 79t56 191z" />
    <glyph glyph-name="otilde" unicode="&#xf5;" horiz-adv-x="604" 
d="M466 698q33 0 100 114l37 -23q-83 -149 -153 -149q-23 0 -43 18.5t-32 40.5t-27.5 40.5t-30.5 18.5q-36 0 -100 -109l-37 23q81 144 154 144q23 0 43 -18.5t32 -40.5t27 -40.5t30 -18.5zM65 205q0 142 86 244.5t201 102.5q86 0 136.5 -58t50.5 -160q0 -142 -85.5 -244
t-200.5 -102q-86 0 -137 57.5t-51 159.5zM468 318q0 81 -35.5 127.5t-97.5 46.5q-87 0 -142.5 -79.5t-55.5 -191.5q0 -81 35.5 -127t97.5 -46q86 0 142 79t56 191z" />
    <glyph glyph-name="odieresis" unicode="&#xf6;" horiz-adv-x="604" 
d="M513 645l-75 -1l35 144l84 2zM296 643l-75 -2l35 144l83 2zM65 205q0 142 86 244.5t201 102.5q86 0 136.5 -58t50.5 -160q0 -142 -85.5 -244t-200.5 -102q-86 0 -137 57.5t-51 159.5zM468 318q0 81 -35.5 127.5t-97.5 46.5q-87 0 -142.5 -79.5t-55.5 -191.5
q0 -81 35.5 -127t97.5 -46q86 0 142 79t56 191z" />
    <glyph glyph-name="divide" unicode="&#xf7;" 
d="M393 471h-88l20 96h87zM565 354l-13 -63h-473l12 63h474zM319 79h-88l19 95h87z" />
    <glyph glyph-name="oslash" unicode="&#xf8;" horiz-adv-x="604" 
d="M137 221q0 -43 11 -78l283 304q-34 45 -96 45q-87 0 -142.5 -79.5t-55.5 -191.5zM270 48q86 0 142 79t56 191q0 43 -11 78l-283 -304q35 -44 96 -44zM253 -12q-82 0 -130 50l-63 -67l-40 35l71 76q-26 50 -26 123q0 142 86 244.5t201 102.5q81 0 130 -51l63 68l40 -36
l-72 -76q26 -50 26 -123q0 -142 -85.5 -244t-200.5 -102z" />
    <glyph glyph-name="ugrave" unicode="&#xf9;" horiz-adv-x="671" 
d="M495 645l-20 -32q-126 84 -214 175l52 60q85 -115 182 -203zM630 41q-63 -35 -104.5 -45.5t-62 2.5t-26.5 45t4 81q-124 -136 -225 -136q-65 0 -92.5 51t-4.5 154l63 280l-117 -22l-7 39l149 51l60 -2l-78 -341q-17 -74 0 -109t59 -35q45 0 93.5 32.5t112.5 103.5l70 349
h69l-80 -404q-10 -41 -5.5 -61t29 -19t82.5 23z" />
    <glyph glyph-name="uacute" unicode="&#xfa;" horiz-adv-x="671" 
d="M298 654q50 34 114.5 89t105.5 99l53 -61q-90 -76 -257 -160zM630 41q-63 -35 -104.5 -45.5t-62 2.5t-26.5 45t4 81q-124 -136 -225 -136q-65 0 -92.5 51t-4.5 154l63 280l-117 -22l-7 39l149 51l60 -2l-78 -341q-17 -74 0 -109t59 -35q45 0 93.5 32.5t112.5 103.5
l70 349h69l-80 -404q-10 -41 -5.5 -61t29 -19t82.5 23z" />
    <glyph glyph-name="ucircumflex" unicode="&#xfb;" horiz-adv-x="671" 
d="M531 621l-102 130l-164 -125l-34 40l211 163h1l139 -167zM630 41q-63 -35 -104.5 -45.5t-62 2.5t-26.5 45t4 81q-124 -136 -225 -136q-65 0 -92.5 51t-4.5 154l63 280l-117 -22l-7 39l149 51l60 -2l-78 -341q-17 -74 0 -109t59 -35q45 0 93.5 32.5t112.5 103.5l70 349h69
l-80 -404q-10 -41 -5.5 -61t29 -19t82.5 23z" />
    <glyph glyph-name="udieresis" unicode="&#xfc;" horiz-adv-x="671" 
d="M541 637l-75 -1l35 144l84 2zM324 635l-75 -2l35 144l83 2zM630 41q-63 -35 -104.5 -45.5t-62 2.5t-26.5 45t4 81q-124 -136 -225 -136q-65 0 -92.5 51t-4.5 154l63 280l-117 -22l-7 39l149 51l60 -2l-78 -341q-17 -74 0 -109t59 -35q45 0 93.5 32.5t112.5 103.5l70 349
h69l-80 -404q-10 -41 -5.5 -61t29 -19t82.5 23z" />
    <glyph glyph-name="yacute" unicode="&#xfd;" horiz-adv-x="622" 
d="M298 662q50 34 114.5 89t105.5 99l53 -61q-90 -76 -257 -160zM465 -94q-58 -115 -399 -95l11 74q276 -23 326 27q8 8 12.5 22.5t5 39.5t0 47.5t-2.5 64t-2 71.5q-51 -57 -112 -93t-117 -36q-202 0 -10 510l70 3q-39 -109 -61 -190t-27.5 -129.5t2 -77.5t22 -39.5
t37.5 -10.5q40 0 93.5 33.5t103.5 90.5q7 107 47 219.5t65 112.5q17 0 32 -8.5t15 -20.5q0 -32 -30 -127t-69 -170q-1 -11 -1 -35q0 -36 3.5 -109t1 -110.5t-15.5 -63.5z" />
    <glyph glyph-name="thorn" unicode="&#xfe;" horiz-adv-x="607" 
d="M266 48q86 0 148 94.5t62 214.5q0 63 -23 96t-59 33q-38 0 -89.5 -32.5t-96.5 -79.5l-60 -306q75 -20 118 -20zM98 -189l-70 -6l188 969l71 6l-67 -341q117 113 204 113q54 0 88 -46.5t34 -133.5q0 -154 -93.5 -268.5t-234.5 -114.5q-38 0 -84 9z" />
    <glyph glyph-name="ydieresis" unicode="&#xff;" horiz-adv-x="622" 
d="M541 645l-75 -1l35 144l84 2zM324 643l-75 -2l35 144l83 2zM465 -94q-58 -115 -399 -95l11 74q276 -23 326 27q8 8 12.5 22.5t5 39.5t0 47.5t-2.5 64t-2 71.5q-51 -57 -112 -93t-117 -36q-202 0 -10 510l70 3q-39 -109 -61 -190t-27.5 -129.5t2 -77.5t22 -39.5
t37.5 -10.5q40 0 93.5 33.5t103.5 90.5q7 107 47 219.5t65 112.5q17 0 32 -8.5t15 -20.5q0 -32 -30 -127t-69 -170q-1 -11 -1 -35q0 -36 3.5 -109t1 -110.5t-15.5 -63.5z" />
    <glyph glyph-name="Amacron" unicode="&#x100;" horiz-adv-x="661" 
d="M621 890l-12 -63h-334l13 63h333zM484 -3q-16 150 -25 226h-268q-88 -174 -112 -223h-74q175 352 358 691h104q53 -359 89 -688zM400 624q-85 -159 -180 -344h232q-16 128 -44 344h-8z" />
    <glyph glyph-name="amacron" unicode="&#x101;" horiz-adv-x="614" 
d="M576 746l-12 -63h-334l13 63h333zM206 56q37 0 89.5 32t98.5 78l61 305q-66 18 -113 18q-87 0 -149.5 -95.5t-62.5 -217.5q0 -58 21 -89t55 -31zM575 41q-79 -45 -125 -49t-60.5 25t-6.5 87q-52 -51 -108 -83.5t-100 -32.5q-52 0 -83.5 43.5t-31.5 125.5
q0 102 41.5 191.5t118 145.5t170.5 56q62 0 145 -21l-77 -394q-10 -41 -6 -61t28.5 -19t83.5 23z" />
    <glyph glyph-name="Abreve" unicode="&#x102;" horiz-adv-x="661" 
d="M610 964l42 -28q-114 -158 -217 -158q-102 0 -158 161l56 30q26 -71 53 -101t65 -30q37 0 73 30t86 96zM484 -3q-16 150 -25 226h-268q-88 -174 -112 -223h-74q175 352 358 691h104q53 -359 89 -688zM400 624q-85 -159 -180 -344h232q-16 128 -44 344h-8z" />
    <glyph glyph-name="abreve" unicode="&#x103;" horiz-adv-x="614" 
d="M565 820l42 -28q-114 -158 -217 -158q-102 0 -158 161l56 30q26 -71 53 -101t65 -30q37 0 73 30t86 96zM206 56q37 0 89.5 32t98.5 78l61 305q-66 18 -113 18q-87 0 -149.5 -95.5t-62.5 -217.5q0 -58 21 -89t55 -31zM575 41q-79 -45 -125 -49t-60.5 25t-6.5 87
q-52 -51 -108 -83.5t-100 -32.5q-52 0 -83.5 43.5t-31.5 125.5q0 102 41.5 191.5t118 145.5t170.5 56q62 0 145 -21l-77 -394q-10 -41 -6 -61t28.5 -19t83.5 23z" />
    <glyph glyph-name="Aogonek" unicode="&#x104;" horiz-adv-x="661" 
d="M524 -180q-54 -30 -98.5 -41t-72 -3.5t-42.5 25.5t-15 43q0 87 186 171q-6 60 -23 208h-268q-88 -174 -112 -223h-74q175 352 358 691h104q53 -359 89 -688q-98 -36 -145.5 -71.5t-47.5 -66.5q0 -20 14.5 -30t49.5 -6.5t87 25.5zM400 624q-85 -159 -180 -344h232
q-16 128 -44 344h-8z" />
    <glyph glyph-name="aogonek" unicode="&#x105;" horiz-adv-x="614" 
d="M526 -182q-43 -25 -81 -36.5t-64.5 -10.5t-45.5 10t-28 24.5t-9 35.5q0 77 128 160q-55 10 -43 103q-52 -51 -108 -83.5t-100 -32.5q-52 0 -83.5 43.5t-31.5 125.5q0 102 41.5 191.5t118 145.5t170.5 56q62 0 145 -21l-77 -394q-10 -41 -6 -61t28.5 -19t83.5 23l11 -37
q-210 -99 -210 -178q0 -20 14.5 -30t49.5 -6.5t87 25.5zM206 56q37 0 89.5 32t98.5 78l61 305q-66 18 -113 18q-87 0 -149.5 -95.5t-62.5 -217.5q0 -58 21 -89t55 -31z" />
    <glyph glyph-name="Cacute" unicode="&#x106;" horiz-adv-x="652" 
d="M350 812q50 34 114.5 89t105.5 99l53 -61q-90 -76 -257 -160zM441 703q93 0 128.5 -61.5t31.5 -189.5l-70 -1q1 100 -20 143.5t-87 43.5q-78 0 -141 -56.5t-95.5 -142t-32.5 -177.5q0 -150 100 -193.5t285 24.5l-6 -68q-207 -72 -329.5 -12t-122.5 234q0 117 48 222
t131.5 169.5t179.5 64.5z" />
    <glyph glyph-name="cacute" unicode="&#x107;" horiz-adv-x="535" 
d="M275 661q50 34 114.5 89t105.5 99l53 -61q-90 -76 -257 -160zM491 377l-66 -1q1 60 -17.5 86.5t-60.5 26.5q-85 0 -148.5 -86.5t-63.5 -201.5q0 -225 308 -111l10 -38q-127 -68 -213.5 -64t-130.5 57t-44 143q0 143 92 253.5t210 110.5q69 0 99.5 -42t24.5 -133z" />
    <glyph glyph-name="Cdotaccent" unicode="&#x10a;" horiz-adv-x="652" 
d="M484 793l-75 -1l35 144l84 1zM441 703q93 0 128.5 -61.5t31.5 -189.5l-70 -1q1 100 -20 143.5t-87 43.5q-78 0 -141 -56.5t-95.5 -142t-32.5 -177.5q0 -150 100 -193.5t285 24.5l-6 -68q-207 -72 -329.5 -12t-122.5 234q0 117 48 222t131.5 169.5t179.5 64.5z" />
    <glyph glyph-name="cdotaccent" unicode="&#x10b;" horiz-adv-x="535" 
d="M409 642l-75 -1l35 144l84 1zM491 377l-66 -1q1 60 -17.5 86.5t-60.5 26.5q-85 0 -148.5 -86.5t-63.5 -201.5q0 -225 308 -111l10 -38q-127 -68 -213.5 -64t-130.5 57t-44 143q0 143 92 253.5t210 110.5q69 0 99.5 -42t24.5 -133z" />
    <glyph glyph-name="Ccaron" unicode="&#x10c;" horiz-adv-x="652" 
d="M450 775h-1l-139 167l51 41l103 -130l163 126l34 -40zM441 703q93 0 128.5 -61.5t31.5 -189.5l-70 -1q1 100 -20 143.5t-87 43.5q-78 0 -141 -56.5t-95.5 -142t-32.5 -177.5q0 -150 100 -193.5t285 24.5l-6 -68q-207 -72 -329.5 -12t-122.5 234q0 117 48 222t131.5 169.5
t179.5 64.5z" />
    <glyph glyph-name="ccaron" unicode="&#x10d;" horiz-adv-x="535" 
d="M375 624h-1l-139 167l51 41l103 -130l163 126l34 -40zM491 377l-66 -1q1 60 -17.5 86.5t-60.5 26.5q-85 0 -148.5 -86.5t-63.5 -201.5q0 -225 308 -111l10 -38q-127 -68 -213.5 -64t-130.5 57t-44 143q0 143 92 253.5t210 110.5q69 0 99.5 -42t24.5 -133z" />
    <glyph glyph-name="Dcaron" unicode="&#x10e;" horiz-adv-x="685" 
d="M422 773h-1l-139 167l51 41l103 -130l163 126l34 -40zM633 422q0 -97 -35.5 -179.5t-103.5 -143.5t-178.5 -88.5t-249.5 -10.5l133 687q203 32 318.5 -36t115.5 -229zM560 413q0 122 -77 177t-223 41l-110 -573q202 -13 306 89t104 266z" />
    <glyph glyph-name="dcaron" unicode="&#x10f;" horiz-adv-x="623" 
d="M690 885l86 5q-6 -148 -112 -278l-31 16q39 68 50 126.5t7 130.5zM215 55q39 0 90.5 30.5t94.5 76.5l60 310q-69 20 -118 20q-86 0 -148 -94t-62 -214q0 -62 23 -95.5t60 -33.5zM583 41q-77 -45 -123.5 -49.5t-61.5 24t-8 84.5q-116 -112 -205 -112q-55 0 -89 47t-34 133
q0 100 41 187.5t117 142t170 54.5q35 0 85 -8l44 230l71 6l-125 -642q-10 -43 -5.5 -63.5t28.5 -19.5t83 23z" />
    <glyph glyph-name="Dcroat" unicode="&#x110;" horiz-adv-x="696" 
d="M642 422q0 -97 -35.5 -179.5t-103.5 -143.5t-178 -88.5t-249 -10.5l61 320h-82l12 58h82l59 309q204 32 319 -36t115 -229zM382 320h-172l-50 -262q202 -13 306 89t104 266q0 122 -77 177t-223 41l-49 -253h172z" />
    <glyph glyph-name="dcroat" unicode="&#x111;" horiz-adv-x="623" 
d="M215 55q39 0 90.5 30.5t94.5 76.5l60 310q-69 20 -118 20q-86 0 -148 -94t-62 -214q0 -62 23 -95.5t60 -33.5zM585 41q-77 -45 -123.5 -49.5t-62.5 24t-9 84.5q-50 -49 -105 -80.5t-100 -31.5q-55 0 -89 47t-34 133q0 100 41 187.5t117 142t170 54.5q35 0 85 -8l19 101
h-152l10 52h152l15 77l71 6l-16 -83h81l-11 -52h-80l-99 -507q-10 -43 -5 -63.5t29.5 -19.5t84.5 23z" />
    <glyph glyph-name="Emacron" unicode="&#x112;" horiz-adv-x="587" 
d="M594 888l-12 -63h-334l13 63h333zM470 65l-18 -65h-386l133 688h389l-12 -65h-317l-47 -246h271l-12 -57h-270l-49 -255h318z" />
    <glyph glyph-name="emacron" unicode="&#x113;" horiz-adv-x="549" 
d="M569 749l-12 -63h-334l13 63h333zM470 61q-98 -54 -177 -68t-128 8.5t-75 69t-26 112.5q0 89 39.5 173.5t110.5 140t152 55.5q64 0 100 -33.5t36 -90.5q0 -95 -97 -152.5t-272 -71.5v-10q0 -220 328 -96zM348 490q-79 0 -137 -71t-74 -169q138 12 217 53t79 109
q0 36 -22.5 57t-62.5 21z" />
    <glyph glyph-name="Ebreve" unicode="&#x114;" horiz-adv-x="587" 
d="M583 962l42 -28q-114 -158 -217 -158q-102 0 -158 161l56 30q26 -71 53 -101t65 -30q37 0 73 30t86 96zM470 65l-18 -65h-386l133 688h389l-12 -65h-317l-47 -246h271l-12 -57h-270l-49 -255h318z" />
    <glyph glyph-name="ebreve" unicode="&#x115;" horiz-adv-x="549" 
d="M558 823l42 -28q-114 -158 -217 -158q-102 0 -158 161l56 30q26 -71 53 -101t65 -30q37 0 73 30t86 96zM470 61q-98 -54 -177 -68t-128 8.5t-75 69t-26 112.5q0 89 39.5 173.5t110.5 140t152 55.5q64 0 100 -33.5t36 -90.5q0 -95 -97 -152.5t-272 -71.5v-10
q0 -220 328 -96zM348 490q-79 0 -137 -71t-74 -169q138 12 217 53t79 109q0 36 -22.5 57t-62.5 21z" />
    <glyph glyph-name="Edotaccent" unicode="&#x116;" horiz-adv-x="587" 
d="M436 782l-75 -1l35 144l84 1zM470 65l-18 -65h-386l133 688h389l-12 -65h-317l-47 -246h271l-12 -57h-270l-49 -255h318z" />
    <glyph glyph-name="edotaccent" unicode="&#x117;" horiz-adv-x="549" 
d="M411 643l-75 -1l35 144l84 1zM470 61q-98 -54 -177 -68t-128 8.5t-75 69t-26 112.5q0 89 39.5 173.5t110.5 140t152 55.5q64 0 100 -33.5t36 -90.5q0 -95 -97 -152.5t-272 -71.5v-10q0 -220 328 -96zM348 490q-79 0 -137 -71t-74 -169q138 12 217 53t79 109
q0 36 -22.5 57t-62.5 21z" />
    <glyph glyph-name="Eogonek" unicode="&#x118;" horiz-adv-x="587" 
d="M420 -183q-54 -30 -98.5 -41t-72 -3.5t-42.5 25.5t-15 43q0 81 161 159h-287l133 688h389l-12 -65h-317l-47 -246h271l-12 -57h-270l-49 -255h318l-18 -65q-98 -36 -145.5 -71.5t-47.5 -66.5q0 -20 14.5 -30t49.5 -6.5t87 25.5z" />
    <glyph glyph-name="eogonek" unicode="&#x119;" horiz-adv-x="549" 
d="M405 -182q-43 -25 -80.5 -36.5t-64 -10.5t-46 10t-28.5 24.5t-9 35.5q0 76 122 156q-35 -8 -61 -8q-83 0 -128.5 53.5t-45.5 140.5q0 89 39.5 173.5t110.5 140t152 55.5q64 0 100 -33.5t36 -90.5q0 -95 -97 -152.5t-272 -71.5v-10q0 -220 328 -96l9 -37
q-226 -121 -226 -198q0 -20 14.5 -30t49.5 -6.5t87 25.5zM348 490q-79 0 -137 -71t-74 -169q138 12 217 53t79 109q0 36 -22.5 57t-62.5 21z" />
    <glyph glyph-name="Ecaron" unicode="&#x11a;" horiz-adv-x="587" 
d="M402 764h-1l-139 167l51 41l103 -130l163 126l34 -40zM470 65l-18 -65h-386l133 688h389l-12 -65h-317l-47 -246h271l-12 -57h-270l-49 -255h318z" />
    <glyph glyph-name="ecaron" unicode="&#x11b;" horiz-adv-x="549" 
d="M377 625h-1l-139 167l51 41l103 -130l163 126l34 -40zM470 61q-98 -54 -177 -68t-128 8.5t-75 69t-26 112.5q0 89 39.5 173.5t110.5 140t152 55.5q64 0 100 -33.5t36 -90.5q0 -95 -97 -152.5t-272 -71.5v-10q0 -220 328 -96zM348 490q-79 0 -137 -71t-74 -169
q138 12 217 53t79 109q0 36 -22.5 57t-62.5 21z" />
    <glyph glyph-name="Gbreve" unicode="&#x11e;" horiz-adv-x="680" 
d="M639 973l42 -28q-114 -158 -217 -158q-102 0 -158 161l56 30q26 -71 53 -101t65 -30q37 0 73 30t86 96zM495 -123l-68 -1l31 132q-171 -49 -273.5 15.5t-102.5 222.5q0 117 48.5 222t133.5 170t182 65q94 0 131.5 -60.5t34.5 -190.5l-70 -1q1 99 -22.5 143t-91.5 44
q-78 0 -142 -56.5t-97.5 -142t-33.5 -177.5q0 -137 83 -186t234 -4l45 193l71 2z" />
    <glyph glyph-name="gbreve" unicode="&#x11f;" horiz-adv-x="607" 
d="M570 824l42 -28q-114 -158 -217 -158q-102 0 -158 161l56 30q26 -71 53 -101t65 -30q37 0 73 30t86 96zM228 91q87 0 170 130q15 119 63 235q-66 35 -119 35q-85 0 -144 -86.5t-59 -192.5q0 -59 24.5 -90t64.5 -31zM459 -96q-57 -114 -405 -93l9 74q165 -10 237.5 -2
t92.5 28q13 13 13.5 42t-5 91.5t-6.5 104.5q-94 -126 -196 -126q-58 0 -94.5 44t-36.5 125q0 93 39.5 175t112.5 133t162 51q57 0 112 -27q17 28 28 28q17 0 32.5 -9t15.5 -20q0 -28 -33.5 -116.5t-75.5 -170.5q-2 -38 -2 -51q0 -46 3.5 -96.5t6.5 -79t1.5 -57.5t-11.5 -48z
" />
    <glyph glyph-name="Gdotaccent" unicode="&#x120;" horiz-adv-x="680" 
d="M492 793l-75 -1l35 144l84 1zM495 -123l-68 -1l31 132q-171 -49 -273.5 15.5t-102.5 222.5q0 117 48.5 222t133.5 170t182 65q94 0 131.5 -60.5t34.5 -190.5l-70 -1q1 99 -22.5 143t-91.5 44q-78 0 -142 -56.5t-97.5 -142t-33.5 -177.5q0 -137 83 -186t234 -4l45 193
l71 2z" />
    <glyph glyph-name="gdotaccent" unicode="&#x121;" horiz-adv-x="607" 
d="M423 644l-75 -1l35 144l84 1zM228 91q87 0 170 130q15 119 63 235q-66 35 -119 35q-85 0 -144 -86.5t-59 -192.5q0 -59 24.5 -90t64.5 -31zM459 -96q-57 -114 -405 -93l9 74q165 -10 237.5 -2t92.5 28q13 13 13.5 42t-5 91.5t-6.5 104.5q-94 -126 -196 -126
q-58 0 -94.5 44t-36.5 125q0 93 39.5 175t112.5 133t162 51q57 0 112 -27q17 28 28 28q17 0 32.5 -9t15.5 -20q0 -28 -33.5 -116.5t-75.5 -170.5q-2 -38 -2 -51q0 -46 3.5 -96.5t6.5 -79t1.5 -57.5t-11.5 -48z" />
    <glyph glyph-name="Gcommaaccent" unicode="&#x122;" horiz-adv-x="680" 
d="M495 -123l-68 -1l31 132q-171 -49 -273.5 15.5t-102.5 222.5q0 117 48.5 222t133.5 170t182 65q94 0 131.5 -60.5t34.5 -190.5l-70 -1q1 99 -22.5 143t-91.5 44q-78 0 -142 -56.5t-97.5 -142t-33.5 -177.5q0 -137 83 -186t234 -4l45 193l71 2zM187 -365q60 93 43 206
l94 3q-2 -56 -29.5 -114.5t-78.5 -108.5z" />
    <glyph glyph-name="gcommaaccent" unicode="&#x123;" horiz-adv-x="607" 
d="M481 841q-60 -95 -42 -206l-95 -3q5 120 109 224zM228 91q87 0 170 130q15 119 63 235q-66 35 -119 35q-85 0 -144 -86.5t-59 -192.5q0 -59 24.5 -90t64.5 -31zM459 -96q-57 -114 -405 -93l9 74q165 -10 237.5 -2t92.5 28q13 13 13.5 42t-5 91.5t-6.5 104.5
q-94 -126 -196 -126q-58 0 -94.5 44t-36.5 125q0 93 39.5 175t112.5 133t162 51q57 0 112 -27q17 28 28 28q17 0 32.5 -9t15.5 -20q0 -28 -33.5 -116.5t-75.5 -170.5q-2 -38 -2 -51q0 -46 3.5 -96.5t6.5 -79t1.5 -57.5t-11.5 -48z" />
    <glyph glyph-name="Hbar" unicode="&#x126;" horiz-adv-x="742" 
d="M560 363l26 134h-340l-26 -134h340zM490 0l59 306h-340l-59 -306h-73l95 494h-81l11 58h82l26 136h73l-27 -139h340l27 139h73l-26 -136h82l-11 -58h-83l-95 -494h-73z" />
    <glyph glyph-name="hbar" unicode="&#x127;" horiz-adv-x="660" 
d="M612 39q-66 -38 -112 -46t-66.5 8.5t-20.5 52.5q0 43 38.5 181.5t38.5 184.5q0 65 -66 65q-96 0 -221 -137l-67 -348h-70l125 645h-81l10 52h81l15 77l71 6l-16 -83h152l-10 -52h-152l-44 -228q128 135 248 135q51 0 76 -27.5t25 -73.5q0 -60 -39 -201.5t-39 -169.5
q0 -12 4 -18.5t16.5 -7.5t34.5 5t58 19z" />
    <glyph glyph-name="Imacron" unicode="&#x12a;" horiz-adv-x="547" 
d="M561 888l-12 -63h-334l13 63h333zM269 60h155l-15 -60h-376l12 60h151l110 568h-154l12 60h376l-12 -60h-149z" />
    <glyph glyph-name="imacron" unicode="&#x12b;" horiz-adv-x="405" 
d="M457 741l-12 -63h-334l13 63h333zM380 45q-151 -79 -215 -47t-35 154l79 321l-139 -21l-7 39l170 50l59 -2l-90 -374q-21 -89 13 -106t155 24z" />
    <glyph glyph-name="Ibreve" unicode="&#x12c;" horiz-adv-x="547" 
d="M549 962l42 -28q-114 -158 -217 -158q-102 0 -158 161l56 30q26 -71 53 -101t65 -30q37 0 73 30t86 96zM269 60h155l-15 -60h-376l12 60h151l110 568h-154l12 60h376l-12 -60h-149z" />
    <glyph glyph-name="ibreve" unicode="&#x12d;" horiz-adv-x="405" 
d="M446 815l42 -28q-114 -158 -217 -158q-102 0 -158 161l56 30q26 -71 53 -101t65 -30q37 0 73 30t86 96zM380 45q-151 -79 -215 -47t-35 154l79 321l-139 -21l-7 39l170 50l59 -2l-90 -374q-21 -89 13 -106t155 24z" />
    <glyph glyph-name="Iogonek" unicode="&#x12e;" horiz-adv-x="547" 
d="M302 -182q-69 -39 -122.5 -45t-79.5 14.5t-26 56.5q0 77 113 156h-154l12 60h151l110 568h-154l12 60h376l-12 -60h-149l-110 -568h155l-15 -60h-147q-59 -33 -90 -69.5t-31 -67.5q0 -21 15.5 -31t50.5 -6t85 26z" />
    <glyph glyph-name="iogonek" unicode="&#x12f;" horiz-adv-x="405" 
d="M315 636l-75 -4l35 144l83 4zM324 -182q-43 -25 -81 -36.5t-64.5 -10.5t-45.5 10t-28 24.5t-9 35.5q0 74 114 148q-57 1 -78 43.5t-2 119.5l79 321l-139 -21l-7 39l170 50l59 -2l-90 -374q-21 -89 13 -106t155 24l10 -38q-217 -109 -217 -182q0 -20 14.5 -30t49.5 -6.5
t87 25.5z" />
    <glyph glyph-name="Idotaccent" unicode="&#x130;" horiz-adv-x="547" 
d="M403 782l-75 -1l35 144l84 1zM269 60h155l-15 -60h-376l12 60h151l110 568h-154l12 60h376l-12 -60h-149z" />
    <glyph glyph-name="dotlessi" unicode="&#x131;" horiz-adv-x="405" 
d="M380 45q-151 -79 -215 -47t-35 154l79 321l-139 -21l-7 39l170 50l59 -2l-90 -374q-21 -89 13 -106t155 24z" />
    <glyph glyph-name="Kcommaaccent" unicode="&#x136;" horiz-adv-x="631" 
d="M465 -6l-219 352l329 342h82l-327 -343l213 -339zM199 688h73l-133 -688h-73zM185 -293q60 93 43 206l94 3q-2 -56 -29.5 -114.5t-78.5 -108.5z" />
    <glyph glyph-name="kcommaaccent" unicode="&#x137;" horiz-adv-x="597" 
d="M448 -6l-204 227q126 65 181.5 120t55.5 94q0 24 -14 37t-39 13q-44 0 -103.5 -35.5t-121.5 -102.5l-67 -347h-70l150 774l71 6l-70 -364q63 66 127 101t117 35q44 0 70 -24t26 -63q0 -55 -55 -117.5t-171 -125.5l199 -216zM174 -293q60 93 43 206l94 3
q-2 -56 -29.5 -114.5t-78.5 -108.5z" />
    <glyph glyph-name="Lacute" unicode="&#x139;" horiz-adv-x="561" 
d="M307 801q50 34 114.5 89t105.5 99l53 -61q-90 -76 -257 -160zM455 0h-389l133 688h73l-120 -623h317z" />
    <glyph glyph-name="lacute" unicode="&#x13a;" horiz-adv-x="504" 
d="M345 886q50 34 114.5 89t105.5 99l53 -61q-90 -76 -257 -160zM439 74q-144 -97 -231 -80.5t-98 145.5q-27 -17 -50 -34l-22 36l70 49q2 110 33.5 220.5t78 191t103.5 131t108 50.5q42 0 66 -29t24 -81q0 -106 -85 -231t-258 -261q3 -113 64 -127.5t181 57.5zM403 710
q-44 0 -93 -64.5t-86.5 -176t-44.5 -232.5q140 117 205.5 221.5t65.5 186.5q0 31 -13 48t-34 17z" />
    <glyph glyph-name="Lcommaaccent" unicode="&#x13b;" horiz-adv-x="561" 
d="M455 0h-389l133 688h73l-120 -623h317zM153 -287q60 93 43 206l94 3q-2 -56 -29.5 -114.5t-78.5 -108.5z" />
    <glyph glyph-name="lcommaaccent" unicode="&#x13c;" horiz-adv-x="504" 
d="M439 74q-144 -97 -231 -80.5t-98 145.5q-27 -17 -50 -34l-22 36l70 49q2 110 33.5 220.5t78 191t103.5 131t108 50.5q42 0 66 -29t24 -81q0 -106 -85 -231t-258 -261q3 -113 64 -127.5t181 57.5zM403 710q-44 0 -93 -64.5t-86.5 -176t-44.5 -232.5q140 117 205.5 221.5
t65.5 186.5q0 31 -13 48t-34 17zM108 -296q60 93 43 206l94 3q-2 -56 -29.5 -114.5t-78.5 -108.5z" />
    <glyph glyph-name="Lcaron" unicode="&#x13d;" horiz-adv-x="561" 
d="M483 773l86 5q-6 -148 -112 -278l-31 16q39 68 50 126.5t7 130.5zM455 0h-389l133 688h73l-120 -623h317z" />
    <glyph glyph-name="lcaron" unicode="&#x13e;" horiz-adv-x="504" 
d="M629 885l86 5q-6 -148 -112 -278l-31 16q39 68 50 126.5t7 130.5zM439 74q-144 -97 -231 -80.5t-98 145.5q-27 -17 -50 -34l-22 36l70 49q2 110 33.5 220.5t78 191t103.5 131t108 50.5q42 0 66 -29t24 -81q0 -106 -85 -231t-258 -261q3 -113 64 -127.5t181 57.5zM403 710
q-44 0 -93 -64.5t-86.5 -176t-44.5 -232.5q140 117 205.5 221.5t65.5 186.5q0 31 -13 48t-34 17z" />
    <glyph glyph-name="Ldot" unicode="&#x13f;" horiz-adv-x="561" 
d="M455 0h-389l133 688h73l-120 -623h317zM482 291h-90l21 108h90z" />
    <glyph glyph-name="ldot" unicode="&#x140;" horiz-adv-x="548" 
d="M439 74q-144 -97 -231 -80.5t-98 145.5q-27 -17 -50 -34l-22 36l70 49q2 110 33.5 220.5t78 191t103.5 131t108 50.5q42 0 66 -29t24 -81q0 -106 -85 -231t-258 -261q3 -113 64 -127.5t181 57.5zM403 710q-44 0 -93 -64.5t-86.5 -176t-44.5 -232.5q140 117 205.5 221.5
t65.5 186.5q0 31 -13 48t-34 17zM551 291h-88l21 105h87z" />
    <glyph glyph-name="Lslash" unicode="&#x141;" horiz-adv-x="561" 
d="M455 0h-389l62 323l-82 -40l-2 59l97 47l58 299h73l-50 -260l161 77l2 -59l-176 -85l-57 -296h317z" />
    <glyph glyph-name="lslash" unicode="&#x142;" horiz-adv-x="504" 
d="M125 798q0 58 74 94t195.5 37.5t277.5 -40.5l-24 -59q-127 38 -240.5 43.5t-173 -13.5t-59.5 -48q0 -22 60 -67l-40 -49q-70 50 -70 102zM439 74q-144 -97 -231 -80.5t-98 145.5q-27 -17 -50 -34l-22 36l70 49q2 110 33.5 220.5t78 191t103.5 131t108 50.5q42 0 66 -29
t24 -81q0 -106 -85 -231t-258 -261q3 -113 64 -127.5t181 57.5zM403 710q-44 0 -93 -64.5t-86.5 -176t-44.5 -232.5q140 117 205.5 221.5t65.5 186.5q0 31 -13 48t-34 17z" />
    <glyph glyph-name="Nacute" unicode="&#x143;" horiz-adv-x="729" 
d="M362 802q50 34 114.5 89t105.5 99l53 -61q-90 -76 -257 -160zM477 0l-223 594h-7l-113 -594h-68l133 686l94 4l216 -573h7l108 571h68l-133 -688h-82z" />
    <glyph glyph-name="nacute" unicode="&#x144;" horiz-adv-x="662" 
d="M296 664q50 34 114.5 89t105.5 99l53 -61q-90 -76 -257 -160zM612 39q-66 -38 -112 -46t-66.5 8.5t-20.5 52.5q0 42 38.5 180.5t38.5 184.5q0 66 -65 66q-97 0 -220 -135q-15 -80 -69 -350h-70q75 380 98 537l70 5q-2 -11 -9 -58.5t-11 -69.5q129 138 251 138
q51 0 76 -27.5t25 -73.5q0 -60 -39 -201.5t-39 -169.5q0 -12 4 -18.5t16.5 -7.5t34.5 5t58 19z" />
    <glyph glyph-name="Ncommaaccent" unicode="&#x145;" horiz-adv-x="729" 
d="M477 0l-223 594h-7l-113 -594h-68l133 686l94 4l216 -573h7l108 571h68l-133 -688h-82zM208 -287q60 93 43 206l94 3q-2 -56 -29.5 -114.5t-78.5 -108.5z" />
    <glyph glyph-name="ncommaaccent" unicode="&#x146;" horiz-adv-x="662" 
d="M612 39q-66 -38 -112 -46t-66.5 8.5t-20.5 52.5q0 42 38.5 180.5t38.5 184.5q0 66 -65 66q-97 0 -220 -135q-15 -80 -69 -350h-70q75 380 98 537l70 5q-2 -11 -9 -58.5t-11 -69.5q129 138 251 138q51 0 76 -27.5t25 -73.5q0 -60 -39 -201.5t-39 -169.5q0 -12 4 -18.5
t16.5 -7.5t34.5 5t58 19zM183 -297q60 93 43 206l94 3q-2 -56 -29.5 -114.5t-78.5 -108.5z" />
    <glyph glyph-name="Ncaron" unicode="&#x147;" horiz-adv-x="729" 
d="M462 765h-1l-139 167l51 41l103 -130l163 126l34 -40zM477 0l-223 594h-7l-113 -594h-68l133 686l94 4l216 -573h7l108 571h68l-133 -688h-82z" />
    <glyph glyph-name="ncaron" unicode="&#x148;" horiz-adv-x="662" 
d="M396 627h-1l-139 167l51 41l103 -130l163 126l34 -40zM612 39q-66 -38 -112 -46t-66.5 8.5t-20.5 52.5q0 42 38.5 180.5t38.5 184.5q0 66 -65 66q-97 0 -220 -135q-15 -80 -69 -350h-70q75 380 98 537l70 5q-2 -11 -9 -58.5t-11 -69.5q129 138 251 138q51 0 76 -27.5
t25 -73.5q0 -60 -39 -201.5t-39 -169.5q0 -12 4 -18.5t16.5 -7.5t34.5 5t58 19z" />
    <glyph glyph-name="Omacron" unicode="&#x14c;" horiz-adv-x="726" 
d="M651 900l-12 -63h-334l13 63h333zM439 703q104 0 169 -74t65 -201q0 -183 -105 -313t-252 -130q-104 0 -169 74.5t-65 201.5q0 182 105 312t252 130zM332 49q114 0 191 108t77 259q0 104 -49.5 163.5t-126.5 59.5q-115 0 -192 -107.5t-77 -258.5q0 -104 49.5 -164
t127.5 -60z" />
    <glyph glyph-name="omacron" unicode="&#x14d;" horiz-adv-x="604" 
d="M562 749l-12 -63h-334l13 63h333zM65 205q0 142 86 244.5t201 102.5q86 0 136.5 -58t50.5 -160q0 -142 -85.5 -244t-200.5 -102q-86 0 -137 57.5t-51 159.5zM468 318q0 81 -35.5 127.5t-97.5 46.5q-87 0 -142.5 -79.5t-55.5 -191.5q0 -81 35.5 -127t97.5 -46q86 0 142 79
t56 191z" />
    <glyph glyph-name="Obreve" unicode="&#x14e;" horiz-adv-x="726" 
d="M640 974l42 -28q-114 -158 -217 -158q-102 0 -158 161l56 30q26 -71 53 -101t65 -30q37 0 73 30t86 96zM439 703q104 0 169 -74t65 -201q0 -183 -105 -313t-252 -130q-104 0 -169 74.5t-65 201.5q0 182 105 312t252 130zM332 49q114 0 191 108t77 259q0 104 -49.5 163.5
t-126.5 59.5q-115 0 -192 -107.5t-77 -258.5q0 -104 49.5 -164t127.5 -60z" />
    <glyph glyph-name="obreve" unicode="&#x14f;" horiz-adv-x="604" 
d="M551 823l42 -28q-114 -158 -217 -158q-102 0 -158 161l56 30q26 -71 53 -101t65 -30q37 0 73 30t86 96zM65 205q0 142 86 244.5t201 102.5q86 0 136.5 -58t50.5 -160q0 -142 -85.5 -244t-200.5 -102q-86 0 -137 57.5t-51 159.5zM468 318q0 81 -35.5 127.5t-97.5 46.5
q-87 0 -142.5 -79.5t-55.5 -191.5q0 -81 35.5 -127t97.5 -46q86 0 142 79t56 191z" />
    <glyph glyph-name="Ohungarumlaut" unicode="&#x150;" horiz-adv-x="726" 
d="M332 781l-32 27q76 91 143 212l71 -39q-76 -103 -182 -200zM544 781l-33 26q72 87 141 209l73 -35q-32 -45 -83.5 -101.5t-97.5 -98.5zM439 703q104 0 169 -74t65 -201q0 -183 -105 -313t-252 -130q-104 0 -169 74.5t-65 201.5q0 182 105 312t252 130zM332 49
q114 0 191 108t77 259q0 104 -49.5 163.5t-126.5 59.5q-115 0 -192 -107.5t-77 -258.5q0 -104 49.5 -164t127.5 -60z" />
    <glyph glyph-name="ohungarumlaut" unicode="&#x151;" horiz-adv-x="604" 
d="M242 630l-32 27q76 91 143 212l71 -39q-76 -103 -182 -200zM454 630l-33 26q72 87 141 209l73 -35q-32 -45 -83.5 -101.5t-97.5 -98.5zM65 205q0 142 86 244.5t201 102.5q86 0 136.5 -58t50.5 -160q0 -142 -85.5 -244t-200.5 -102q-86 0 -137 57.5t-51 159.5zM468 318
q0 81 -35.5 127.5t-97.5 46.5q-87 0 -142.5 -79.5t-55.5 -191.5q0 -81 35.5 -127t97.5 -46q86 0 142 79t56 191z" />
    <glyph glyph-name="OE" unicode="&#x152;" horiz-adv-x="961" 
d="M154 283q0 -117 78 -166.5t224 -51.5l107 558q-200 -2 -304.5 -94.5t-104.5 -245.5zM843 65l-17 -65h-356q-88 0 -156 14t-122 44.5t-82.5 85.5t-28.5 132q0 184 137.5 298t404.5 114h339l-12 -65h-314l-47 -246h267l-11 -57h-267l-50 -255h315z" />
    <glyph glyph-name="oe" unicode="&#x153;" horiz-adv-x="937" 
d="M859 61q-111 -61 -196 -70t-132 24t-64 99q-40 -58 -96 -91.5t-119 -33.5q-87 0 -137.5 56.5t-50.5 157.5q0 142 86.5 245t202.5 103q68 0 113 -37.5t60 -105.5q42 66 101.5 105t127.5 39q64 0 100 -33.5t36 -90.5q0 -95 -97 -152.5t-272 -71.5v-10q0 -108 77 -133.5
t250 37.5zM469 320q0 80 -35.5 126t-97.5 46q-86 0 -143.5 -81.5t-57.5 -192.5q0 -80 36 -125t98 -45q85 0 142.5 80.5t57.5 191.5zM736 490q-79 0 -136.5 -71t-73.5 -169q137 12 216.5 53t79.5 109q0 36 -22.5 57t-63.5 21z" />
    <glyph glyph-name="Racute" unicode="&#x154;" horiz-adv-x="638" 
d="M310 808q50 34 114.5 89t105.5 99l53 -61q-90 -76 -257 -160zM478 -7l-205 314l1 2q130 57 185 105.5t55 108.5q0 62 -64 90t-189 16l-122 -629h-73l133 687q198 25 293 -18.5t95 -132.5q0 -73 -57 -130.5t-167 -109.5l194 -290z" />
    <glyph glyph-name="racute" unicode="&#x155;" horiz-adv-x="587" 
d="M291 672q50 34 114.5 89t105.5 99l53 -61q-90 -76 -257 -160zM542 30q-181 -79 -214 6q-36 96 100 424q-102 -34 -179 -34q-60 -127 -170 -251l-30 27q109 138 147 229q-47 11 -47 48q0 34 31 68.5t65 34.5q37 0 37 -43q0 -22 -10 -55q105 11 218 62l30 -21
q-135 -341 -127 -429q5 -54 63 -48q28 3 78 20z" />
    <glyph glyph-name="Rcommaaccent" unicode="&#x156;" horiz-adv-x="638" 
d="M478 -7l-205 314l1 2q130 57 185 105.5t55 108.5q0 62 -64 90t-189 16l-122 -629h-73l133 687q198 25 293 -18.5t95 -132.5q0 -73 -57 -130.5t-167 -109.5l194 -290zM187 -294q60 93 43 206l94 3q-2 -56 -29.5 -114.5t-78.5 -108.5z" />
    <glyph glyph-name="rcommaaccent" unicode="&#x157;" horiz-adv-x="587" 
d="M542 30q-181 -79 -214 6q-36 96 100 424q-102 -34 -179 -34q-60 -127 -170 -251l-30 27q109 138 147 229q-47 11 -47 48q0 34 31 68.5t65 34.5q37 0 37 -43q0 -22 -10 -55q105 11 218 62l30 -21q-135 -341 -127 -429q5 -54 63 -48q28 3 78 20zM113 -287q60 93 43 206
l94 3q-2 -56 -29.5 -114.5t-78.5 -108.5z" />
    <glyph glyph-name="Rcaron" unicode="&#x158;" horiz-adv-x="638" 
d="M410 771h-1l-139 167l51 41l103 -130l163 126l34 -40zM478 -7l-205 314l1 2q130 57 185 105.5t55 108.5q0 62 -64 90t-189 16l-122 -629h-73l133 687q198 25 293 -18.5t95 -132.5q0 -73 -57 -130.5t-167 -109.5l194 -290z" />
    <glyph glyph-name="rcaron" unicode="&#x159;" horiz-adv-x="587" 
d="M391 635h-1l-139 167l51 41l103 -130l163 126l34 -40zM542 30q-181 -79 -214 6q-36 96 100 424q-102 -34 -179 -34q-60 -127 -170 -251l-30 27q109 138 147 229q-47 11 -47 48q0 34 31 68.5t65 34.5q37 0 37 -43q0 -22 -10 -55q105 11 218 62l30 -21q-135 -341 -127 -429
q5 -54 63 -48q28 3 78 20z" />
    <glyph glyph-name="Sacute" unicode="&#x15a;" horiz-adv-x="577" 
d="M292 812q50 34 114.5 89t105.5 99l53 -61q-90 -76 -257 -160zM535 516l-67 -15q-19 138 -125 138q-55 0 -92 -37.5t-37 -88.5q0 -37 27.5 -73.5t66.5 -67.5t78 -62.5t66.5 -70.5t27.5 -80q0 -44 -25 -80t-79 -61t-138 -26.5t-203 24.5l17 73q132 -39 211 -34.5t111.5 29
t32.5 64.5q0 33 -27.5 66.5t-66.5 63.5t-78 62t-66.5 73.5t-27.5 86.5q0 79 65 140t158 61q148 0 171 -185z" />
    <glyph glyph-name="sacute" unicode="&#x15b;" horiz-adv-x="521" 
d="M246 687q50 34 114.5 89t105.5 99l53 -61q-90 -76 -257 -160zM451 139q0 -73 -80.5 -115.5t-265.5 -30.5l4 67q108 -13 168.5 -4.5t82 26t21.5 46.5q0 38 -56 120t-70 111q-69 -68 -177 -142l-22 31q131 104 180 165q-5 22 -5 40q0 50 35 91.5t70 41.5q37 0 39 -37
q1 -50 -64 -129q11 -35 47 -88t64.5 -103t28.5 -90z" />
    <glyph glyph-name="Scedilla" unicode="&#x15e;" horiz-adv-x="577" 
d="M263 -190q10 148 -43 148q-44 0 -95 -117l-39 13q40 105 86 140q-65 5 -137 22l17 73q132 -39 211 -34.5t111.5 29t32.5 64.5q0 33 -27.5 66.5t-66.5 63.5t-78 62t-66.5 73.5t-27.5 86.5q0 79 65 140t158 61q148 0 171 -185l-67 -15q-19 138 -125 138q-55 0 -92 -37.5
t-37 -88.5q0 -37 27.5 -73.5t66.5 -67.5t78 -62.5t66.5 -70.5t27.5 -80q0 -61 -50 -107.5t-148 -57.5q56 -48 46 -183z" />
    <glyph glyph-name="scedilla" unicode="&#x15f;" horiz-adv-x="521" 
d="M279 -188q10 148 -43 148q-44 0 -95 -117l-39 13q37 97 80 135q-30 -1 -77 2l4 67q108 -13 168.5 -4.5t82 26t21.5 46.5q0 38 -56 120t-70 111q-69 -68 -177 -142l-22 31q131 104 180 165q-5 22 -5 40q0 50 35 91.5t70 41.5q37 0 39 -37q1 -50 -64 -129q11 -35 47 -88
t64.5 -103t28.5 -90q0 -110 -158 -139q61 -44 51 -187z" />
    <glyph glyph-name="Scaron" unicode="&#x160;" horiz-adv-x="577" 
d="M392 775h-1l-139 167l51 41l103 -130l163 126l34 -40zM535 516l-67 -15q-19 138 -125 138q-55 0 -92 -37.5t-37 -88.5q0 -37 27.5 -73.5t66.5 -67.5t78 -62.5t66.5 -70.5t27.5 -80q0 -44 -25 -80t-79 -61t-138 -26.5t-203 24.5l17 73q132 -39 211 -34.5t111.5 29
t32.5 64.5q0 33 -27.5 66.5t-66.5 63.5t-78 62t-66.5 73.5t-27.5 86.5q0 79 65 140t158 61q148 0 171 -185z" />
    <glyph glyph-name="scaron" unicode="&#x161;" horiz-adv-x="521" 
d="M346 650h-1l-139 167l51 41l103 -130l163 126l34 -40zM451 139q0 -73 -80.5 -115.5t-265.5 -30.5l4 67q108 -13 168.5 -4.5t82 26t21.5 46.5q0 38 -56 120t-70 111q-69 -68 -177 -142l-22 31q131 104 180 165q-5 22 -5 40q0 50 35 91.5t70 41.5q37 0 39 -37
q1 -50 -64 -129q11 -35 47 -88t64.5 -103t28.5 -90z" />
    <glyph glyph-name="Tcommaaccent" unicode="&#x162;" horiz-adv-x="594" 
d="M403 624l-121 -624h-73l121 624h-212l12 64h497l-12 -64h-212zM139 -287q60 93 43 206l94 3q-2 -56 -29.5 -114.5t-78.5 -108.5z" />
    <glyph glyph-name="tcommaaccent" unicode="&#x163;" horiz-adv-x="475" 
d="M425 58q-53 -30 -98.5 -47.5t-79.5 -21.5t-60 2t-42.5 22t-24.5 40.5t-7.5 56t8.5 69.5l68 302h-98l16 56h62l85 155l53 4l-36 -159h193l-10 -56h-195l-67 -298q-15 -65 -3.5 -98.5t65.5 -31t161 43.5zM104 -300q60 93 43 206l94 3q-2 -56 -29.5 -114.5t-78.5 -108.5z
" />
    <glyph glyph-name="Tcaron" unicode="&#x164;" horiz-adv-x="594" 
d="M392 764h-1l-139 167l51 41l103 -130l163 126l34 -40zM403 624l-121 -624h-73l121 624h-212l12 64h497l-12 -64h-212z" />
    <glyph glyph-name="tcaron" unicode="&#x165;" horiz-adv-x="475" 
d="M441 917l86 5q-6 -148 -112 -278l-31 16q39 68 50 126.5t7 130.5zM425 58q-53 -30 -98.5 -47.5t-79.5 -21.5t-60 2t-42.5 22t-24.5 40.5t-7.5 56t8.5 69.5l68 302h-98l16 56h62l85 155l53 4l-36 -159h193l-10 -56h-195l-67 -298q-15 -65 -3.5 -98.5t65.5 -31t161 43.5z
" />
    <glyph glyph-name="Umacron" unicode="&#x16a;" horiz-adv-x="703" 
d="M640 888l-12 -63h-334l13 63h333zM186 288q-45 -238 134 -238q157 0 196 197l85 441h73l-86 -441q-25 -132 -98 -196.5t-179 -64.5q-54 0 -95 16t-71.5 52.5t-37.5 95.5t8 146l76 392h73z" />
    <glyph glyph-name="umacron" unicode="&#x16b;" horiz-adv-x="671" 
d="M589 741l-12 -63h-334l13 63h333zM630 41q-63 -35 -104.5 -45.5t-62 2.5t-26.5 45t4 81q-124 -136 -225 -136q-65 0 -92.5 51t-4.5 154l63 280l-117 -22l-7 39l149 51l60 -2l-78 -341q-17 -74 0 -109t59 -35q45 0 93.5 32.5t112.5 103.5l70 349h69l-80 -404
q-10 -41 -5.5 -61t29 -19t82.5 23z" />
    <glyph glyph-name="Ubreve" unicode="&#x16c;" horiz-adv-x="703" 
d="M629 962l42 -28q-114 -158 -217 -158q-102 0 -158 161l56 30q26 -71 53 -101t65 -30q37 0 73 30t86 96zM186 288q-45 -238 134 -238q157 0 196 197l85 441h73l-86 -441q-25 -132 -98 -196.5t-179 -64.5q-54 0 -95 16t-71.5 52.5t-37.5 95.5t8 146l76 392h73z" />
    <glyph glyph-name="ubreve" unicode="&#x16d;" horiz-adv-x="671" 
d="M578 815l42 -28q-114 -158 -217 -158q-102 0 -158 161l56 30q26 -71 53 -101t65 -30q37 0 73 30t86 96zM630 41q-63 -35 -104.5 -45.5t-62 2.5t-26.5 45t4 81q-124 -136 -225 -136q-65 0 -92.5 51t-4.5 154l63 280l-117 -22l-7 39l149 51l60 -2l-78 -341q-17 -74 0 -109
t59 -35q45 0 93.5 32.5t112.5 103.5l70 349h69l-80 -404q-10 -41 -5.5 -61t29 -19t82.5 23z" />
    <glyph glyph-name="Uring" unicode="&#x16e;" horiz-adv-x="703" 
d="M479 983q55 0 89.5 -29.5t34.5 -75.5q0 -52 -41 -88t-102 -36q-54 0 -88 30t-34 76q0 52 40 87.5t101 35.5zM474 936q-35 0 -58 -20.5t-23 -50.5q0 -27 20.5 -45t53.5 -18q34 0 57.5 20.5t23.5 49.5q0 28 -21 46t-53 18zM186 288q-45 -238 134 -238q157 0 196 197l85 441
h73l-86 -441q-25 -132 -98 -196.5t-179 -64.5q-54 0 -95 16t-71.5 52.5t-37.5 95.5t8 146l76 392h73z" />
    <glyph glyph-name="uring" unicode="&#x16f;" horiz-adv-x="658" 
d="M427 838q55 0 89.5 -29.5t34.5 -75.5q0 -52 -41 -88t-102 -36q-54 0 -88 30t-34 76q0 52 40 87.5t101 35.5zM422 791q-35 0 -58 -20.5t-23 -50.5q0 -27 20.5 -45t53.5 -18q34 0 57.5 20.5t23.5 49.5q0 28 -21 46t-53 18zM630 41q-63 -35 -104.5 -45.5t-62 2.5t-26.5 45
t4 81q-124 -136 -225 -136q-65 0 -92.5 51t-4.5 154l63 280l-117 -22l-7 39l149 51l60 -2l-78 -341q-17 -74 0 -109t59 -35q45 0 93.5 32.5t112.5 103.5l70 349h69l-80 -404q-10 -41 -5.5 -61t29 -19t82.5 23z" />
    <glyph glyph-name="Uhungarumlaut" unicode="&#x170;" horiz-adv-x="703" 
d="M321 769l-32 27q76 91 143 212l71 -39q-76 -103 -182 -200zM533 769l-33 26q72 87 141 209l73 -35q-32 -45 -83.5 -101.5t-97.5 -98.5zM186 288q-45 -238 134 -238q157 0 196 197l85 441h73l-86 -441q-25 -132 -98 -196.5t-179 -64.5q-54 0 -95 16t-71.5 52.5t-37.5 95.5
t8 146l76 392h73z" />
    <glyph glyph-name="uhungarumlaut" unicode="&#x171;" horiz-adv-x="671" 
d="M270 622l-32 27q76 91 143 212l71 -39q-76 -103 -182 -200zM482 622l-33 26q72 87 141 209l73 -35q-32 -45 -83.5 -101.5t-97.5 -98.5zM630 41q-63 -35 -104.5 -45.5t-62 2.5t-26.5 45t4 81q-124 -136 -225 -136q-65 0 -92.5 51t-4.5 154l63 280l-117 -22l-7 39l149 51
l60 -2l-78 -341q-17 -74 0 -109t59 -35q45 0 93.5 32.5t112.5 103.5l70 349h69l-80 -404q-10 -41 -5.5 -61t29 -19t82.5 23z" />
    <glyph glyph-name="Uogonek" unicode="&#x172;" horiz-adv-x="703" 
d="M399 -182q-53 -30 -98 -41t-72.5 -3.5t-42.5 25.5t-15 43q0 70 137 145q-110 1 -167 74.5t-26 234.5l76 392h73l-78 -400q-47 -238 134 -238q157 0 196 197l85 441h73l-86 -441q-24 -121 -92 -189q-27 -28 -99 -64q-79 -38 -119 -69.5t-40 -62.5q0 -20 14.5 -30t49.5 -6
t87 26z" />
    <glyph glyph-name="uogonek" unicode="&#x173;" horiz-adv-x="671" 
d="M583 -182q-43 -24 -80.5 -36t-64 -11t-46 10t-28.5 24.5t-9 35.5q0 77 125 157q-59 14 -39 126q-124 -136 -225 -136q-65 0 -92.5 51t-4.5 154l63 280l-117 -22l-7 39l149 51l60 -2l-78 -341q-17 -74 0 -109t59 -35q45 0 93.5 32.5t112.5 103.5l70 349h69l-80 -404
q-10 -41 -5.5 -61t29 -19t82.5 23l10 -33l3 -4q-210 -106 -210 -178q0 -20 14.5 -30t49.5 -6.5t87 25.5z" />
    <glyph glyph-name="Wcircumflex" unicode="&#x174;" horiz-adv-x="776" 
d="M621 768l-102 130l-164 -125l-34 40l211 163h1l139 -167zM479 0l-69 387l-218 -387h-84q4 238 63 688h72q-18 -133 -41.5 -339t-24.5 -259h6l221 400h54l68 -400h5q42 115 167 598h70q-110 -427 -206 -688h-83z" />
    <glyph glyph-name="wcircumflex" unicode="&#x175;" horiz-adv-x="691" 
d="M547 619l-102 130l-164 -125l-34 40l211 163h1l139 -167zM416 0l-68 308l-181 -308h-67q-3 213 34 539h73q-24 -208 -44 -444h5l181 309h49l63 -310h6q75 236 127 445h76q-69 -246 -187 -539h-67z" />
    <glyph glyph-name="Ycircumflex" unicode="&#x176;" horiz-adv-x="630" 
d="M546 770l-102 130l-164 -125l-34 40l211 163h1l139 -167zM299 0h-73l46 236l-148 450l75 4l123 -390h2l267 388h79l-327 -461z" />
    <glyph glyph-name="ycircumflex" unicode="&#x177;" horiz-adv-x="622" 
d="M531 629l-102 130l-164 -125l-34 40l211 163h1l139 -167zM465 -94q-58 -115 -399 -95l11 74q276 -23 326 27q8 8 12.5 22.5t5 39.5t0 47.5t-2.5 64t-2 71.5q-51 -57 -112 -93t-117 -36q-202 0 -10 510l70 3q-39 -109 -61 -190t-27.5 -129.5t2 -77.5t22 -39.5t37.5 -10.5
q40 0 93.5 33.5t103.5 90.5q7 107 47 219.5t65 112.5q17 0 32 -8.5t15 -20.5q0 -32 -30 -127t-69 -170q-1 -11 -1 -35q0 -36 3.5 -109t1 -110.5t-15.5 -63.5z" />
    <glyph glyph-name="Ydieresis" unicode="&#x178;" horiz-adv-x="630" 
d="M556 786l-75 -1l35 144l84 2zM339 784l-75 -2l35 144l83 2zM299 0h-73l46 236l-148 450l75 4l123 -390h2l267 388h79l-327 -461z" />
    <glyph glyph-name="Zacute" unicode="&#x179;" horiz-adv-x="611" 
d="M299 801q50 34 114.5 89t105.5 99l53 -61q-90 -76 -257 -160zM483 0h-454l11 63l479 561l-364 -2l14 66h443l-11 -63l-477 -561l372 2z" />
    <glyph glyph-name="zacute" unicode="&#x17a;" horiz-adv-x="552" 
d="M245 652q50 34 114.5 89t105.5 99l53 -61q-90 -76 -257 -160zM435 0h-401l12 61l392 417l-317 -2l19 63h389l-11 -60l-393 -418l329 2z" />
    <glyph glyph-name="Zdotaccent" unicode="&#x17b;" horiz-adv-x="611" 
d="M433 782l-75 -1l35 144l84 1zM483 0h-454l11 63l479 561l-364 -2l14 66h443l-11 -63l-477 -561l372 2z" />
    <glyph glyph-name="zdotaccent" unicode="&#x17c;" horiz-adv-x="552" 
d="M379 633l-75 -1l35 144l84 1zM435 0h-401l12 61l392 417l-317 -2l19 63h389l-11 -60l-393 -418l329 2z" />
    <glyph glyph-name="Zcaron" unicode="&#x17d;" horiz-adv-x="611" 
d="M399 764h-1l-139 167l51 41l103 -130l163 126l34 -40zM483 0h-454l11 63l479 561l-364 -2l14 66h443l-11 -63l-477 -561l372 2z" />
    <glyph glyph-name="zcaron" unicode="&#x17e;" horiz-adv-x="552" 
d="M345 615h-1l-139 167l51 41l103 -130l163 126l34 -40zM435 0h-401l12 61l392 417l-317 -2l19 63h389l-11 -60l-393 -418l329 2z" />
    <glyph glyph-name="Aringacute" unicode="&#x1fa;" horiz-adv-x="661" 
d="M381 1069q50 34 114.5 89t105.5 99l53 -61q-90 -76 -257 -160zM459 985q55 0 89.5 -29.5t34.5 -75.5q0 -52 -41 -88t-102 -36q-54 0 -88 30t-34 76q0 52 40 87.5t101 35.5zM454 938q-35 0 -58 -20.5t-23 -50.5q0 -27 20.5 -45t53.5 -18q34 0 57.5 20.5t23.5 49.5
q0 28 -21 46t-53 18zM484 -3q-16 150 -25 226h-268q-88 -174 -112 -223h-74q175 352 358 691h104q53 -359 89 -688zM400 624q-85 -159 -180 -344h232q-16 128 -44 344h-8z" />
    <glyph glyph-name="aringacute" unicode="&#x1fb;" horiz-adv-x="614" 
d="M335 925q50 34 114.5 89t105.5 99l53 -61q-90 -76 -257 -160zM414 841q55 0 89.5 -29.5t34.5 -75.5q0 -52 -41 -88t-102 -36q-54 0 -88 30t-34 76q0 52 40 87.5t101 35.5zM409 794q-35 0 -58 -20.5t-23 -50.5q0 -27 20.5 -45t53.5 -18q34 0 57.5 20.5t23.5 49.5
q0 28 -21 46t-53 18zM206 56q37 0 89.5 32t98.5 78l61 305q-66 18 -113 18q-87 0 -149.5 -95.5t-62.5 -217.5q0 -58 21 -89t55 -31zM575 41q-79 -45 -125 -49t-60.5 25t-6.5 87q-52 -51 -108 -83.5t-100 -32.5q-52 0 -83.5 43.5t-31.5 125.5q0 102 41.5 191.5t118 145.5
t170.5 56q62 0 145 -21l-77 -394q-10 -41 -6 -61t28.5 -19t83.5 23z" />
    <glyph glyph-name="AEacute" unicode="&#x1fc;" horiz-adv-x="957" 
d="M598 801q50 34 114.5 89t105.5 99l53 -61q-90 -76 -257 -160zM551 623q-158 -200 -274 -350h214l68 350h-8zM438 0l42 217h-247q-101 -131 -165 -217h-81q256 339 537 688h433l-12 -65h-313l-47 -246h267l-11 -57h-268l-49 -255h315l-18 -65h-383z" />
    <glyph glyph-name="aeacute" unicode="&#x1fd;" horiz-adv-x="878" 
d="M455 665q50 34 114.5 89t105.5 99l53 -61q-90 -76 -257 -160zM677 490q-80 0 -138.5 -71t-72.5 -169q139 11 218 52t79 110q0 36 -23 57t-63 21zM205 56q39 0 91 44.5t98 109.5q9 141 92 240q-78 39 -144 39q-87 0 -149.5 -95.5t-62.5 -217.5q0 -58 21 -89t54 -31z
M800 61q-95 -49 -171 -64.5t-124.5 1t-76 54t-33.5 93.5q-52 -68 -110 -112.5t-108 -44.5q-51 0 -84 44t-33 125q0 101 41 191t116.5 146t166.5 56q78 0 160 -46q70 48 152 48q63 0 99 -33.5t36 -90.5q0 -97 -96 -154t-273 -70v-7q0 -73 30.5 -108.5t103.5 -34.5t194 44z
" />
    <glyph glyph-name="Oslashacute" unicode="&#x1fe;" horiz-adv-x="726" 
d="M360 818q50 34 114.5 89t105.5 99l53 -61q-90 -76 -257 -160zM154 273q0 -60 17 -106l382 408q-49 64 -130 64q-115 0 -192 -107.5t-77 -258.5zM331 49q114 0 191 108t77 259q0 58 -18 109l-383 -409q50 -67 133 -67zM315 -15q-106 0 -170 75l-80 -87l-41 36l91 97
q-34 65 -34 155q0 182 105 312t252 130q104 0 167 -72l80 85l42 -36l-90 -95q35 -67 35 -157q0 -183 -105 -313t-252 -130z" />
    <glyph glyph-name="oslashacute" unicode="&#x1ff;" horiz-adv-x="604" 
d="M272 672q50 34 114.5 89t105.5 99l53 -61q-90 -76 -257 -160zM137 221q0 -43 11 -78l283 304q-34 45 -96 45q-87 0 -142.5 -79.5t-55.5 -191.5zM270 48q86 0 142 79t56 191q0 43 -11 78l-283 -304q35 -44 96 -44zM253 -12q-82 0 -130 50l-63 -67l-40 35l71 76
q-26 50 -26 123q0 142 86 244.5t201 102.5q81 0 130 -51l63 68l40 -36l-72 -76q26 -50 26 -123q0 -142 -85.5 -244t-200.5 -102z" />
    <glyph glyph-name="Scommaaccent" unicode="&#x218;" horiz-adv-x="577" 
d="M535 516l-67 -15q-19 138 -125 138q-55 0 -92 -37.5t-37 -88.5q0 -37 27.5 -73.5t66.5 -67.5t78 -62.5t66.5 -70.5t27.5 -80q0 -44 -25 -80t-79 -61t-138 -26.5t-203 24.5l17 73q132 -39 211 -34.5t111.5 29t32.5 64.5q0 33 -27.5 66.5t-66.5 63.5t-78 62t-66.5 73.5
t-27.5 86.5q0 79 65 140t158 61q148 0 171 -185zM122 -294q60 93 43 206l94 3q-2 -56 -29.5 -114.5t-78.5 -108.5z" />
    <glyph glyph-name="scommaaccent" unicode="&#x219;" horiz-adv-x="521" 
d="M451 139q0 -73 -80.5 -115.5t-265.5 -30.5l4 67q108 -13 168.5 -4.5t82 26t21.5 46.5q0 38 -56 120t-70 111q-69 -68 -177 -142l-22 31q131 104 180 165q-5 22 -5 40q0 50 35 91.5t70 41.5q37 0 39 -37q1 -50 -64 -129q11 -35 47 -88t64.5 -103t28.5 -90zM104 -294
q60 93 43 206l94 3q-2 -56 -29.5 -114.5t-78.5 -108.5z" />
    <glyph glyph-name="schwa" unicode="&#x259;" horiz-adv-x="549" 
d="M189 -12q-63 0 -99.5 33.5t-36.5 90.5q0 95 97 152.5t272 71.5v10q0 108 -77 133.5t-250 -37.5l-10 37q79 43 146 60.5t114.5 10.5t80.5 -33t49 -66.5t16 -93.5q0 -89 -39.5 -173.5t-110.5 -140t-152 -55.5zM208 50q79 0 136.5 71t73.5 169q-137 -12 -216.5 -53
t-79.5 -109q0 -36 23 -57t63 -21z" />
    <glyph glyph-name="circumflex" unicode="&#x2c6;" horiz-adv-x="571" 
d="M415 619l-102 130l-164 -125l-34 40l211 163h1l139 -167z" />
    <glyph glyph-name="caron" unicode="&#x2c7;" horiz-adv-x="571" 
d="M283 615h-1l-139 167l51 41l103 -130l163 126l34 -40z" />
    <glyph glyph-name="breve" unicode="&#x2d8;" horiz-adv-x="571" 
d="M453 813l42 -28q-114 -158 -217 -158q-102 0 -158 161l56 30q26 -71 53 -101t65 -30q37 0 73 30t86 96z" />
    <glyph glyph-name="dotaccent" unicode="&#x2d9;" horiz-adv-x="571" 
d="M313 633l-75 -1l35 144l84 1z" />
    <glyph glyph-name="ring" unicode="&#x2da;" horiz-adv-x="571" 
d="M372 834q55 0 89.5 -29.5t34.5 -75.5q0 -52 -41 -88t-102 -36q-54 0 -88 30t-34 76q0 52 40 87.5t101 35.5zM367 787q-35 0 -58 -20.5t-23 -50.5q0 -27 20.5 -45t53.5 -18q34 0 57.5 20.5t23.5 49.5q0 28 -21 46t-53 18z" />
    <glyph glyph-name="ogonek" unicode="&#x2db;" horiz-adv-x="571" 
d="M391 34l22 -33q-98 -36 -145.5 -71.5t-47.5 -66.5q0 -20 14.5 -30t49.5 -6.5t87 25.5l10 -34q-54 -30 -98.5 -41t-72 -3.5t-42.5 25.5t-15 43q0 100 238 192z" />
    <glyph glyph-name="tilde" unicode="&#x2dc;" horiz-adv-x="571" 
d="M371 688q33 0 100 114l37 -23q-83 -149 -153 -149q-23 0 -43 18.5t-32 40.5t-27.5 40.5t-30.5 18.5q-36 0 -100 -109l-37 23q81 144 154 144q23 0 43 -18.5t32 -40.5t27 -40.5t30 -18.5z" />
    <glyph glyph-name="hungarumlaut" unicode="&#x2dd;" horiz-adv-x="571" 
d="M179 620l-32 27q76 91 143 212l71 -39q-76 -103 -182 -200zM391 620l-33 26q72 87 141 209l73 -35q-32 -45 -83.5 -101.5t-97.5 -98.5z" />
    <glyph glyph-name="commaaccent" unicode="&#x326;" horiz-adv-x="571" 
d="M195 -287q60 93 43 206l94 3q-2 -56 -29.5 -114.5t-78.5 -108.5z" />
    <glyph glyph-name="Wgrave" unicode="&#x1e80;" horiz-adv-x="776" 
d="M585 792l-20 -32q-126 84 -214 175l52 60q85 -115 182 -203zM479 0l-69 387l-218 -387h-84q4 238 63 688h72q-18 -133 -41.5 -339t-24.5 -259h6l221 400h54l68 -400h5q42 115 167 598h70q-110 -427 -206 -688h-83z" />
    <glyph glyph-name="wgrave" unicode="&#x1e81;" horiz-adv-x="691" 
d="M512 643l-20 -32q-126 84 -214 175l52 60q85 -115 182 -203zM416 0l-68 308l-181 -308h-67q-3 213 34 539h73q-24 -208 -44 -444h5l181 309h49l63 -310h6q75 236 127 445h76q-69 -246 -187 -539h-67z" />
    <glyph glyph-name="Wacute" unicode="&#x1e82;" horiz-adv-x="776" 
d="M388 801q50 34 114.5 89t105.5 99l53 -61q-90 -76 -257 -160zM479 0l-69 387l-218 -387h-84q4 238 63 688h72q-18 -133 -41.5 -339t-24.5 -259h6l221 400h54l68 -400h5q42 115 167 598h70q-110 -427 -206 -688h-83z" />
    <glyph glyph-name="wacute" unicode="&#x1e83;" horiz-adv-x="691" 
d="M314 652q50 34 114.5 89t105.5 99l53 -61q-90 -76 -257 -160zM416 0l-68 308l-181 -308h-67q-3 213 34 539h73q-24 -208 -44 -444h5l181 309h49l63 -310h6q75 236 127 445h76q-69 -246 -187 -539h-67z" />
    <glyph glyph-name="Wdieresis" unicode="&#x1e84;" horiz-adv-x="776" 
d="M631 784l-75 -1l35 144l84 2zM414 782l-75 -2l35 144l83 2zM479 0l-69 387l-218 -387h-84q4 238 63 688h72q-18 -133 -41.5 -339t-24.5 -259h6l221 400h54l68 -400h5q42 115 167 598h70q-110 -427 -206 -688h-83z" />
    <glyph glyph-name="wdieresis" unicode="&#x1e85;" horiz-adv-x="691" 
d="M557 635l-75 -1l35 144l84 2zM340 633l-75 -2l35 144l83 2zM416 0l-68 308l-181 -308h-67q-3 213 34 539h73q-24 -208 -44 -444h5l181 309h49l63 -310h6q75 236 127 445h76q-69 -246 -187 -539h-67z" />
    <glyph glyph-name="Ygrave" unicode="&#x1ef2;" horiz-adv-x="630" 
d="M510 794l-20 -32q-126 84 -214 175l52 60q85 -115 182 -203zM299 0h-73l46 236l-148 450l75 4l123 -390h2l267 388h79l-327 -461z" />
    <glyph glyph-name="ygrave" unicode="&#x1ef3;" horiz-adv-x="622" 
d="M495 653l-20 -32q-126 84 -214 175l52 60q85 -115 182 -203zM465 -94q-58 -115 -399 -95l11 74q276 -23 326 27q8 8 12.5 22.5t5 39.5t0 47.5t-2.5 64t-2 71.5q-51 -57 -112 -93t-117 -36q-202 0 -10 510l70 3q-39 -109 -61 -190t-27.5 -129.5t2 -77.5t22 -39.5
t37.5 -10.5q40 0 93.5 33.5t103.5 90.5q7 107 47 219.5t65 112.5q17 0 32 -8.5t15 -20.5q0 -32 -30 -127t-69 -170q-1 -11 -1 -35q0 -36 3.5 -109t1 -110.5t-15.5 -63.5z" />
    <glyph glyph-name="enspace" unicode="&#x2002;" horiz-adv-x="500" 
 />
    <glyph glyph-name="emspace" unicode="&#x2003;" horiz-adv-x="1000" 
 />
    <glyph glyph-name="threeperemspace" unicode="&#x2004;" horiz-adv-x="333" 
 />
    <glyph glyph-name="fourperemspace" unicode="&#x2005;" horiz-adv-x="250" 
 />
    <glyph glyph-name="figurespace" unicode="&#x2007;" horiz-adv-x="550" 
 />
    <glyph glyph-name="thinspace" unicode="&#x2009;" horiz-adv-x="133" 
 />
    <glyph glyph-name="hairspace" unicode="&#x200a;" horiz-adv-x="75" 
 />
    <glyph glyph-name="endash" unicode="&#x2013;" horiz-adv-x="580" 
d="M513 351l-10 -56h-420l10 56h420z" />
    <glyph glyph-name="emdash" unicode="&#x2014;" horiz-adv-x="837" 
d="M770 351l-10 -56h-677l10 56h677z" />
    <glyph glyph-name="quoteleft" unicode="&#x2018;" horiz-adv-x="324" 
d="M329 734q-59 -65 -78 -128.5t-11 -159.5l-99 -3q7 96 44.5 167t114.5 142z" />
    <glyph glyph-name="quoteright" unicode="&#x2019;" horiz-adv-x="315" 
d="M118 447q59 65 78 128.5t11 159.5l99 2q-7 -95 -44.5 -166t-114.5 -142z" />
    <glyph glyph-name="quotesinglbase" unicode="&#x201a;" horiz-adv-x="343" 
d="M15 -177q59 65 78 128.5t11 158.5l100 3q-7 -96 -44.5 -167t-115.5 -141z" />
    <glyph glyph-name="quotedblleft" unicode="&#x201c;" horiz-adv-x="544" 
d="M549 734q-59 -65 -78 -128.5t-11 -159.5l-100 -3q7 96 44.5 167t114.5 142zM329 734q-59 -65 -78 -128.5t-11 -159.5l-99 -3q7 96 44.5 167t114.5 142z" />
    <glyph glyph-name="quotedblright" unicode="&#x201d;" horiz-adv-x="534" 
d="M118 447q59 65 78 128.5t11 159.5l99 2q-7 -95 -44.5 -166t-114.5 -142zM337 447q59 65 78 128.5t11 159.5l99 2q-6 -95 -43.5 -166t-115.5 -142z" />
    <glyph glyph-name="quotedblbase" unicode="&#x201e;" horiz-adv-x="562" 
d="M15 -177q59 65 78 128.5t11 158.5l100 3q-7 -96 -44.5 -167t-115.5 -141zM234 -177q59 65 78 128.5t11 158.5l100 3q-7 -96 -44.5 -167t-114.5 -141z" />
    <glyph glyph-name="dagger" unicode="&#x2020;" horiz-adv-x="525" 
d="M255 139l-47 -21l-10 9l82 407l-165 17l15 61l162 -17l36 178l69 -7l-37 -179l165 -17l-16 -60l-162 17z" />
    <glyph glyph-name="daggerdbl" unicode="&#x2021;" horiz-adv-x="526" 
d="M244 84l-47 -21l-10 9l49 242l-170 18l15 60l167 -18l32 160l-166 18l16 60l162 -17l36 178l69 -7l-37 -178l165 -18l-16 -60l-162 17l-37 -159l163 -18l-15 -60l-162 17z" />
    <glyph glyph-name="bullet" unicode="&#x2022;" horiz-adv-x="531" 
d="M403 343q0 -64 -41 -106.5t-96 -42.5q-48 0 -80.5 34t-32.5 86q0 64 40.5 105.5t95.5 41.5q50 0 82 -33t32 -85z" />
    <glyph glyph-name="ellipsis" unicode="&#x2026;" horiz-adv-x="968" 
d="M808 0h-101l21 112h101zM491 0h-101l20 112h102zM174 0h-102l21 112h101z" />
    <glyph glyph-name="guilsinglleft" unicode="&#x2039;" horiz-adv-x="441" 
d="M256 -16l-186 249l20 83l283 241l44 -57l-287 -232l182 -237z" />
    <glyph glyph-name="guilsinglright" unicode="&#x203a;" horiz-adv-x="443" 
d="M71 -15l-44 56l287 232l-182 237l56 47l187 -249l-21 -82z" />
    <glyph glyph-name="fraction" unicode="&#x2044;" horiz-adv-x="289" 
d="M-105 -22l-39 31l565 697l40 -31z" />
    <glyph glyph-name="zero.sup" unicode="&#x2070;" horiz-adv-x="502" 
d="M132 520q0 115 62.5 202t148.5 87q61 0 97.5 -44.5t36.5 -124.5q0 -115 -62.5 -202.5t-149.5 -87.5q-62 0 -97.5 44.5t-35.5 125.5zM416 631q0 124 -83 124q-61 0 -101 -69.5t-40 -159.5q0 -123 83 -123q60 0 100.5 69t40.5 159z" />
    <glyph glyph-name="four.sup" unicode="&#x2074;" horiz-adv-x="502" 
d="M449 453h-52l-18 -92h-56l18 92h-216l4 42q85 141 137 309l64 -3q-55 -164 -140 -295l161 -1l29 147l56 6l-29 -153h57z" />
    <glyph glyph-name="five.sup" unicode="&#x2075;" horiz-adv-x="502" 
d="M437 499q0 -66 -78 -108.5t-237 -30.5l8 57q90 -8 148.5 2.5t79 29t20.5 43.5q0 68 -200 99l50 208h251l-16 -53h-192l-28 -115q194 -37 194 -132z" />
    <glyph glyph-name="six.sup" unicode="&#x2076;" horiz-adv-x="502" 
d="M285 351q-65 0 -106 39t-41 114q0 97 71 181.5t223 127.5l13 -53q-197 -52 -239 -182q54 44 111.5 48.5t94.5 -28.5t37 -90q0 -69 -47 -113t-117 -44zM294 400q45 0 71.5 28t26.5 70q0 41 -28 64.5t-74.5 18t-92.5 -42.5q-1 -8 -1 -24q0 -58 28 -86t70 -28z" />
    <glyph glyph-name="seven.sup" unicode="&#x2077;" horiz-adv-x="502" 
d="M226 356l-64 8q117 207 263 379l-1 3h-239l12 54h303l-11 -50q-145 -177 -263 -394z" />
    <glyph glyph-name="eight.sup" unicode="&#x2078;" horiz-adv-x="502" 
d="M425 467q0 -49 -46 -83t-116 -34q-61 0 -98.5 27t-37.5 71q0 34 27 67t101 80q-65 61 -65 105q0 55 67 87.5t181 14.5l-18 -59q-65 16 -103.5 12t-54 -16t-15.5 -32q0 -29 58 -83q74 42 158 83l21 -36q-89 -43 -146 -76q87 -77 87 -128zM275 400q42 0 68 18t26 45
q0 15 -13.5 34.5t-27 32t-41.5 36.5q-60 -37 -81 -60.5t-21 -44.5q0 -28 25.5 -44.5t64.5 -16.5z" />
    <glyph glyph-name="nine.sup" unicode="&#x2079;" horiz-adv-x="502" 
d="M176 348l-14 53q197 50 239 181q-54 -43 -111 -47.5t-94 28.5t-37 90q0 70 46.5 113.5t116.5 43.5q65 0 106 -39.5t41 -113.5q0 -97 -71 -181.5t-222 -127.5zM215 662q0 -41 28 -64.5t74.5 -18t92.5 42.5q1 9 1 25q0 58 -28 86t-70 28q-45 0 -71.5 -28t-26.5 -71z" />
    <glyph glyph-name="zero.inf" unicode="&#x2080;" horiz-adv-x="502" 
d="M48 -8q0 115 62.5 202t148.5 87q61 0 97.5 -44.5t36.5 -124.5q0 -115 -62.5 -202.5t-149.5 -87.5q-62 0 -97.5 44.5t-35.5 125.5zM332 103q0 124 -83 124q-61 0 -101 -69.5t-40 -159.5q0 -123 83 -123q60 0 100.5 69t40.5 159z" />
    <glyph glyph-name="one.inf" unicode="&#x2081;" horiz-adv-x="502" 
d="M340 -167h-307l10 53h130l56 287l-123 -7l6 44l128 16l12 62l61 4l-81 -406h121z" />
    <glyph glyph-name="two.inf" unicode="&#x2082;" horiz-adv-x="502" 
d="M327 -167h-296l-1 49q150 97 215 154t65 111q0 96 -203 66l9 56q125 19 191 -10t66 -98q0 -67 -59.5 -127t-193.5 -147h219z" />
    <glyph glyph-name="three.inf" unicode="&#x2083;" horiz-adv-x="502" 
d="M350 -44q0 -61 -75 -100t-237 -24l7 57q98 -11 152.5 -2t74 24t19.5 37q0 64 -178 101l4 27l200 142h-206l11 53h270l-6 -53l-196 -140q160 -39 160 -122z" />
    <glyph glyph-name="four.inf" unicode="&#x2084;" horiz-adv-x="502" 
d="M365 -75h-52l-18 -92h-56l18 92h-216l4 42q85 141 137 309l64 -3q-55 -164 -140 -295l161 -1l29 147l56 6l-29 -153h57z" />
    <glyph glyph-name="five.inf" unicode="&#x2085;" horiz-adv-x="502" 
d="M353 -29q0 -66 -78 -108.5t-237 -30.5l8 57q90 -8 148.5 2.5t79 29t20.5 43.5q0 68 -200 99l50 208h251l-16 -53h-192l-28 -115q194 -37 194 -132z" />
    <glyph glyph-name="six.inf" unicode="&#x2086;" horiz-adv-x="502" 
d="M201 -177q-65 0 -106 39t-41 114q0 97 71 181.5t223 127.5l13 -53q-197 -52 -239 -182q54 44 111.5 48.5t94.5 -28.5t37 -90q0 -69 -47 -113t-117 -44zM210 -128q45 0 71.5 28t26.5 70q0 41 -28 64.5t-74.5 18t-92.5 -42.5q-1 -8 -1 -24q0 -58 28 -86t70 -28z" />
    <glyph glyph-name="seven.inf" unicode="&#x2087;" horiz-adv-x="502" 
d="M142 -172l-64 8q117 207 263 379l-1 3h-239l12 54h303l-11 -50q-145 -177 -263 -394z" />
    <glyph glyph-name="eight.inf" unicode="&#x2088;" horiz-adv-x="502" 
d="M341 -61q0 -49 -46 -83t-116 -34q-61 0 -98.5 27t-37.5 71q0 34 27 67t101 80q-65 61 -65 105q0 55 67 87.5t181 14.5l-18 -59q-65 16 -103.5 12t-54 -16t-15.5 -32q0 -29 58 -83q74 42 158 83l21 -36q-89 -43 -146 -76q87 -77 87 -128zM191 -128q42 0 68 18t26 45
q0 15 -13.5 34.5t-27 32t-41.5 36.5q-60 -37 -81 -60.5t-21 -44.5q0 -28 25.5 -44.5t64.5 -16.5z" />
    <glyph glyph-name="nine.inf" unicode="&#x2089;" horiz-adv-x="502" 
d="M92 -180l-14 53q197 50 239 181q-54 -43 -111 -47.5t-94 28.5t-37 90q0 70 46.5 113.5t116.5 43.5q65 0 106 -39.5t41 -113.5q0 -97 -71 -181.5t-222 -127.5zM131 134q0 -41 28 -64.5t74.5 -18t92.5 42.5q1 9 1 25q0 58 -28 86t-70 28q-45 0 -71.5 -28t-26.5 -71z" />
    <glyph glyph-name="colonmonetary" unicode="&#x20a1;" 
d="M354 113l131 472q-57 -8 -95 -19l-118 -425q31 -15 82 -28zM151 313q0 -95 75 -147l105 381q-180 -70 -180 -234zM297 -82l38 131q-42 10 -81 26l-44 -157h-60l52 182q-116 69 -116 201q0 102 62 184t196 128l42 156h60l-38 -137q39 11 93 19l32 118h60l-31 -111
q52 4 80 5l-6 -65q-51 -2 -96 -6l-136 -490q48 -9 101 -15l-27 -61q-49 5 -88 12l-33 -120h-60z" />
    <glyph glyph-name="naira" unicode="&#x20a6;" 
d="M225 570l-60 -316l152 2l-85 314h-7zM419 113h7l60 316l-151 -2zM387 0l-55 201l-178 -2l-38 -199h-60l38 198l-81 -1l12 60l81 1l32 163l-82 -1l12 61l81 1l40 204l76 4l55 -208l176 2l39 204h59l-39 -204l80 1l-12 -61l-80 -1l-32 -162l82 1l-12 -61l-81 -1l-39 -200
h-74z" />
    <glyph glyph-name="rupee" unicode="&#x20a8;" horiz-adv-x="966" 
d="M429 -7l-178 314l1 2q124 58 175 105t51 106q0 133 -221 110l-123 -630h-71l132 687q185 24 270.5 -19.5t85.5 -133.5q0 -73 -54 -130t-161 -111l166 -284zM903 139q0 -34 -15 -61t-49.5 -49.5t-100 -32t-156.5 -4.5l4 67q100 -12 155 -3t74 25.5t19 46.5q0 29 -20.5 65
t-53.5 83t-49 80q-53 -53 -134 -112l-21 33q95 78 136 130q-6 22 -6 46q0 50 34 91.5t69 41.5q38 0 40 -39q2 -52 -64 -133q12 -33 48 -85.5t63 -101t27 -88.5z" />
    <glyph glyph-name="Euro" unicode="&#x20ac;" 
d="M530 38q-128 -58 -217 -50.5t-137 66t-54 159.5h-87l12 63h75q5 61 19 114h-73l12 62h82q46 111 127 181t175 70q76 0 112 -46.5t40 -142.5l-69 -9q-4 70 -25.5 102.5t-76.5 32.5q-68 0 -125 -54t-92 -139h258l-15 -57h-263q-17 -62 -18 -113h259l-14 -58h-245
q10 -123 91.5 -156t238.5 20z" />
    <glyph glyph-name="peso" unicode="&#x20b1;" 
d="M504 480q-2 75 -65.5 118t-185.5 32l-29 -150h280zM185 281q129 -3 209.5 35.5t101.5 108.5h-283zM635 420h-72q-28 -88 -129.5 -142.5t-262.5 -68.5l-41 -209h-71l82 420h-88l11 61h88l40 204q191 26 286 -33t95 -167v-4h74z" />
    <glyph glyph-name="rupeeindia" unicode="&#x20b9;" 
d="M492 23l-65 -39q-86 81 -129 116.5t-96.5 66t-122.5 50.5l24 58q254 17 291 141h-275l11 57h269q-8 58 -67.5 99.5t-175.5 53.5l16 62h456l-16 -63h-274q60 -22 94 -62.5t39 -89.5h109l-11 -57h-102q-17 -67 -90 -114t-185 -63q65 -20 127.5 -67t172.5 -149z" />
    <glyph glyph-name="ruble" unicode="&#x20bd;" 
d="M539 508q0 141 -240 121l-53 -268q148 1 220.5 36.5t72.5 110.5zM449 139h-246l-27 -139h-73l27 139h-99l11 60h100l19 102q-32 -1 -98 -1l12 61h98l63 324q191 23 283 -23t92 -140q0 -96 -94.5 -152t-281.5 -66l-21 -107h252z" />
    <glyph glyph-name="numero" unicode="&#x2116;" horiz-adv-x="1172" 
d="M1126 501q0 -124 -78 -214.5t-185 -90.5q-77 0 -122 51t-45 143q0 124 78 214.5t185 90.5q76 0 121.5 -51t45.5 -143zM1056 490q0 70 -30.5 107t-86.5 37q-76 0 -124.5 -68.5t-48.5 -164.5q0 -70 31 -107t86 -37q76 0 124.5 68t48.5 165zM429 0l-176 586h-8l-112 -586
h-66l133 686l95 4l169 -565h7l108 563h66l-133 -688h-83zM635 19l12 61h392l-12 -61h-392z" />
    <glyph glyph-name="published" unicode="&#x2117;" horiz-adv-x="922" 
d="M849 385q0 -123 -59 -220t-155 -148t-209 -51q-151 0 -246.5 89.5t-95.5 248.5q0 122 59 219t155.5 148.5t209.5 51.5q150 0 245.5 -89.5t95.5 -248.5zM506 672q-98 0 -181 -44.5t-134 -128.5t-51 -189q0 -140 80 -216.5t207 -76.5q151 0 259 101.5t108 260.5
q0 140 -80.5 216.5t-207.5 76.5zM378 153h-59l74 376q123 16 185.5 -14.5t62.5 -93.5q0 -69 -67 -110.5t-176 -50.5zM581 414q0 38 -36 57t-106 10l-31 -168q84 1 128.5 27t44.5 74z" />
    <glyph glyph-name="servicemark" unicode="&#x2120;" horiz-adv-x="941" 
d="M565 618l-59 -316h-55l75 385l84 2l54 -268l155 267h89l-75 -386h-58l65 318h-4l-165 -282h-46l-56 280h-4zM411 588l-51 -10q-11 70 -72 70q-32 0 -51.5 -16t-19.5 -42q0 -21 25.5 -46t55.5 -44.5t55.5 -48.5t25.5 -58q0 -34 -27.5 -58.5t-89 -34.5t-161.5 13l13 57
q207 -53 207 15q0 20 -25.5 43.5t-55.5 42.5t-55.5 49t-25.5 61q0 45 41 80t100 35q99 0 111 -108z" />
    <glyph glyph-name="trademark" unicode="&#x2122;" horiz-adv-x="948" 
d="M446 688l-11 -52h-126l-65 -334h-57l65 334h-127l11 52h310zM573 618l-60 -316h-54l75 385l84 2l54 -267l155 266h89l-75 -386h-58l65 318h-4l-165 -282h-47l-55 280h-4z" />
    <glyph glyph-name="Omega" unicode="&#x2126;" horiz-adv-x="714" 
d="M254 5l-3 -5h-218l12 65h145q-51 165 -51 298q0 161 81.5 250t202.5 89q99 0 159 -59t60 -161q0 -175 -187 -417h145l-12 -65h-227l-3 5q215 286 215 457q0 81 -44 126.5t-116 45.5q-91 0 -150.5 -75t-59.5 -221q0 -154 51 -333z" />
    <glyph glyph-name="onethird" unicode="&#x2153;" horiz-adv-x="1126" 
d="M412 250h-307l10 53h130l56 287l-123 -7l6 44l128 16l12 62l61 4l-81 -406h121zM318 -22l-39 31l565 697l40 -31zM997 123q0 -61 -75 -100t-237 -24l7 57q98 -11 152.5 -2t74 24t19.5 37q0 64 -178 101l4 27l200 142h-206l11 53h270l-6 -53l-196 -140q160 -39 160 -122z
" />
    <glyph glyph-name="twothirds" unicode="&#x2154;" horiz-adv-x="1126" 
d="M318 -22l-39 31l565 697l40 -31zM399 250h-296l-1 49q150 97 215 154t65 111q0 96 -203 66l9 56q125 19 191 -10t66 -98q0 -67 -59.5 -127t-193.5 -147h219zM997 123q0 -61 -75 -100t-237 -24l7 57q98 -11 152.5 -2t74 24t19.5 37q0 64 -178 101l4 27l200 142h-206l11 53
h270l-6 -53l-196 -140q160 -39 160 -122z" />
    <glyph glyph-name="onefifth" unicode="&#x2155;" horiz-adv-x="1126" 
d="M412 250h-307l10 53h130l56 287l-123 -7l6 44l128 16l12 62l61 4l-81 -406h121zM316 -22l-39 31l565 697l40 -31zM1000 138q0 -66 -78 -108.5t-237 -30.5l8 57q90 -8 148.5 2.5t79 29t20.5 43.5q0 68 -200 99l50 208h251l-16 -53h-192l-28 -115q194 -37 194 -132z" />
    <glyph glyph-name="twofifths" unicode="&#x2156;" horiz-adv-x="1126" 
d="M313 -22l-39 31l565 697l40 -31zM399 250h-296l-1 49q150 97 215 154t65 111q0 96 -203 66l9 56q125 19 191 -10t66 -98q0 -67 -59.5 -127t-193.5 -147h219zM1000 138q0 -66 -78 -108.5t-237 -30.5l8 57q90 -8 148.5 2.5t79 29t20.5 43.5q0 68 -200 99l50 208h251
l-16 -53h-192l-28 -115q194 -37 194 -132z" />
    <glyph glyph-name="threefifths" unicode="&#x2157;" horiz-adv-x="1126" 
d="M313 -22l-39 31l565 697l40 -31zM422 373q0 -61 -75 -100t-237 -24l7 57q98 -11 152.5 -2t74 24t19.5 37q0 64 -178 101l4 27l200 142h-206l11 53h270l-6 -53l-196 -140q160 -39 160 -122zM1000 138q0 -66 -78 -108.5t-237 -30.5l8 57q90 -8 148.5 2.5t79 29t20.5 43.5
q0 68 -200 99l50 208h251l-16 -53h-192l-28 -115q194 -37 194 -132z" />
    <glyph glyph-name="fourfifths" unicode="&#x2158;" horiz-adv-x="1126" 
d="M317 -22l-39 31l565 697l40 -31zM437 342h-52l-18 -92h-56l18 92h-216l4 42q85 141 137 309l64 -3q-55 -164 -140 -295l161 -1l29 147l56 6l-29 -153h57zM1000 138q0 -66 -78 -108.5t-237 -30.5l8 57q90 -8 148.5 2.5t79 29t20.5 43.5q0 68 -200 99l50 208h251l-16 -53
h-192l-28 -115q194 -37 194 -132z" />
    <glyph glyph-name="onesixth" unicode="&#x2159;" horiz-adv-x="1126" 
d="M412 250h-307l10 53h130l56 287l-123 -7l6 44l128 16l12 62l61 4l-81 -406h121zM325 -22l-39 31l565 697l40 -31zM848 -10q-65 0 -106 39t-41 114q0 97 71 181.5t223 127.5l13 -53q-197 -52 -239 -182q54 44 111.5 48.5t94.5 -28.5t37 -90q0 -69 -47 -113t-117 -44z
M857 39q45 0 71.5 28t26.5 70q0 41 -28 64.5t-74.5 18t-92.5 -42.5q-1 -8 -1 -24q0 -58 28 -86t70 -28z" />
    <glyph glyph-name="fivesixths" unicode="&#x215a;" horiz-adv-x="1126" 
d="M316 -22l-39 31l565 697l40 -31zM848 -10q-65 0 -106 39t-41 114q0 97 71 181.5t223 127.5l13 -53q-197 -52 -239 -182q54 44 111.5 48.5t94.5 -28.5t37 -90q0 -69 -47 -113t-117 -44zM425 388q0 -66 -78 -108.5t-237 -30.5l8 57q90 -8 148.5 2.5t79 29t20.5 43.5
q0 68 -200 99l50 208h251l-16 -53h-192l-28 -115q194 -37 194 -132zM857 39q45 0 71.5 28t26.5 70q0 41 -28 64.5t-74.5 18t-92.5 -42.5q-1 -8 -1 -24q0 -58 28 -86t70 -28z" />
    <glyph glyph-name="oneeighth" unicode="&#x215b;" horiz-adv-x="1126" 
d="M412 250h-307l10 53h130l56 287l-123 -7l6 44l128 16l12 62l61 4l-81 -406h121zM316 -22l-39 31l565 697l40 -31zM988 106q0 -49 -46 -83t-116 -34q-61 0 -98.5 27t-37.5 71q0 34 27 67t101 80q-65 61 -65 105q0 55 67 87.5t181 14.5l-18 -59q-65 16 -103.5 12t-54 -16
t-15.5 -32q0 -29 58 -83q74 42 158 83l21 -36q-89 -43 -146 -76q87 -77 87 -128zM838 39q42 0 68 18t26 45q0 15 -13.5 34.5t-27 32t-41.5 36.5q-60 -37 -81 -60.5t-21 -44.5q0 -28 25.5 -44.5t64.5 -16.5z" />
    <glyph glyph-name="threeeighths" unicode="&#x215c;" horiz-adv-x="1126" 
d="M313 -22l-39 31l565 697l40 -31zM988 106q0 -49 -46 -83t-116 -34q-61 0 -98.5 27t-37.5 71q0 34 27 67t101 80q-65 61 -65 105q0 55 67 87.5t181 14.5l-18 -59q-65 16 -103.5 12t-54 -16t-15.5 -32q0 -29 58 -83q74 42 158 83l21 -36q-89 -43 -146 -76q87 -77 87 -128z
M422 373q0 -61 -75 -100t-237 -24l7 57q98 -11 152.5 -2t74 24t19.5 37q0 64 -178 101l4 27l200 142h-206l11 53h270l-6 -53l-196 -140q160 -39 160 -122zM838 39q42 0 68 18t26 45q0 15 -13.5 34.5t-27 32t-41.5 36.5q-60 -37 -81 -60.5t-21 -44.5q0 -28 25.5 -44.5
t64.5 -16.5z" />
    <glyph glyph-name="fiveeighths" unicode="&#x215d;" horiz-adv-x="1126" 
d="M313 -22l-39 31l565 697l40 -31zM988 106q0 -49 -46 -83t-116 -34q-61 0 -98.5 27t-37.5 71q0 34 27 67t101 80q-65 61 -65 105q0 55 67 87.5t181 14.5l-18 -59q-65 16 -103.5 12t-54 -16t-15.5 -32q0 -29 58 -83q74 42 158 83l21 -36q-89 -43 -146 -76q87 -77 87 -128z
M425 388q0 -66 -78 -108.5t-237 -30.5l8 57q90 -8 148.5 2.5t79 29t20.5 43.5q0 68 -200 99l50 208h251l-16 -53h-192l-28 -115q194 -37 194 -132zM838 39q42 0 68 18t26 45q0 15 -13.5 34.5t-27 32t-41.5 36.5q-60 -37 -81 -60.5t-21 -44.5q0 -28 25.5 -44.5t64.5 -16.5z
" />
    <glyph glyph-name="seveneighths" unicode="&#x215e;" horiz-adv-x="1126" 
d="M300 -22l-39 31l565 697l40 -31zM214 245l-64 8q117 207 263 379l-1 3h-239l12 54h303l-11 -50q-145 -177 -263 -394zM988 106q0 -49 -46 -83t-116 -34q-61 0 -98.5 27t-37.5 71q0 34 27 67t101 80q-65 61 -65 105q0 55 67 87.5t181 14.5l-18 -59q-65 16 -103.5 12
t-54 -16t-15.5 -32q0 -29 58 -83q74 42 158 83l21 -36q-89 -43 -146 -76q87 -77 87 -128zM838 39q42 0 68 18t26 45q0 15 -13.5 34.5t-27 32t-41.5 36.5q-60 -37 -81 -60.5t-21 -44.5q0 -28 25.5 -44.5t64.5 -16.5z" />
    <glyph glyph-name="minus" unicode="&#x2212;" 
d="M546 354l-13 -63h-435l12 63h436z" />
    <glyph glyph-name="approxequal" unicode="&#x2248;" 
d="M443 346q-30 0 -60 18t-50 39.5t-43.5 39.5t-41.5 18q-24 0 -44 -27t-46 -81l-48 19q32 78 65.5 114.5t78.5 36.5q29 0 58.5 -18t49 -39.5t42.5 -39.5t41 -18q39 0 88 120l48 -19q-33 -87 -64 -125t-74 -38zM397 126q-29 0 -58.5 18t-49.5 39t-44 39t-43 18
q-23 0 -44 -31t-48 -93l-47 19q32 85 66 126t79 41q38 0 74 -28.5t65.5 -57t51.5 -28.5q23 0 42.5 26t43.5 77l48 -19q-32 -78 -62.5 -112t-73.5 -34z" />
    <glyph glyph-name="notequal" unicode="&#x2260;" 
d="M511 174h-242l-95 -166l-53 25l81 141h-126l12 62h149l104 182h-218l12 62h242l94 165l53 -25l-80 -140h127l-13 -62h-150l-104 -182h220z" />
    <glyph glyph-name="lessequal" unicode="&#x2264;" 
d="M542 599l23 -56l-366 -172l-1 -6l302 -141l-25 -60l-355 165l14 73zM495 89l-13 -62h-435l12 62h436z" />
    <glyph glyph-name="greaterequal" unicode="&#x2265;" 
d="M199 600l341 -199l-14 -72l-410 -166l-18 58l364 145l1 7l-299 168zM495 90l-13 -63h-435l12 63h436z" />
    <glyph glyph-name="arrow.1_N" unicode="&#xe01c;" horiz-adv-x="704" 
d="M396 402v-402h-65v401l3 161l-195 -279l-53 40l279 368l276 -368l-53 -41l-195 279z" />
    <glyph glyph-name="arrow.1_W" unicode="&#xe01d;" horiz-adv-x="704" 
d="M458 98l-41 -55l-364 289l364 287l42 -54l-281 -204l149 2h336v-61h-335l-149 2z" />
    <glyph glyph-name="arrow.1_S" unicode="&#xe01e;" horiz-adv-x="704" 
d="M362 -3l-276 369l52 40l196 -279l-3 159v402h64v-401l-3 -160l196 279l53 -40z" />
    <glyph glyph-name="arrow.1_E" unicode="&#xe01f;" horiz-adv-x="704" 
d="M309 46l-41 54l279 204l-148 -2h-335v61h335l149 -2l-280 206l41 54l365 -287z" />
    <glyph glyph-name="hcoslug" unicode="&#xe10b;" horiz-adv-x="694" 
d="M644 700v-800h-594v800h594zM247 428q0 13 7.5 21t19.5 8q13 0 21 -10.5t8 -27.5q0 -22 -18 -50q-15 14 -21 20.5t-11.5 17t-5.5 21.5zM312 342q30 20 42 34q29 -29 -1 -80q-33 38 -41 46zM261 219q-22 0 -37 15.5t-15 38.5q0 24 16 40q34 -32 74 -82q-15 -12 -38 -12z
M382 264q20 26 46 42q15 -25 43 -25q21 0 35.5 15.5t14.5 38.5t-14.5 37.5t-35.5 14.5q-35 0 -60 -38q-3 39 -49 37q9 15 9 34q0 29 -25.5 51.5t-69.5 22.5q-48 0 -78.5 -25.5t-30.5 -59.5q0 -37 31 -69q-82 -28 -82 -91q0 -39 32 -66t77 -27q63 0 104 45q44 -45 85 -45
q33 0 56 25.5t24 68.5l-7 2q-17 -29 -43 -29q-27 0 -62 41zM286 124l-12 -2v-9h-7v-7h7v-20q0 -13 12 -13q11 0 14 13l-5 2q-1 -7 -5 -7t-4 5v20h13v7h-13v11zM174 94q0 -21 21 -21q9 0 15 6t6 15q0 20 -21 20t-21 -20zM203 94q0 -16 -8 -16t-8 16q0 15 8 15t8 -15zM379 93
q0 -13 -7 -13q-8 0 -8 13t8 13q7 0 7 -13zM219 81v-7h22v7h-4v15q0 10 7 10q6 0 6 -7v-18h-4v-7h22v7h-6v19q0 14 -12 14q-9 0 -14 -11v10h-17v-7h6v-25h-6zM125 81v-7h30v7h-10v16h4q5 0 6 -8h7v23h-7q-1 -8 -6 -8h-4v18h12q9 0 11 -13h8v20h-51v-7h7v-41h-7zM302 88v-14h7
l1 4q7 -5 13 -5q14 0 14 13q0 9 -12 12t-12 6q0 4 5 4t10 -7h7v13h-6l-2 -5q-3 5 -11 5q-14 0 -14 -12q0 -9 12 -12.5t12 -6.5q0 -4 -5 -4q-6 0 -12 9h-7zM352 125v-52h6l4 8q5 -8 14 -8q16 0 16 21q0 20 -15 20q-10 0 -13 -9v27h-18v-7h6zM405 65q3 2 1.5 6t-6.5 4
q-7 0 -7 -7q0 -9 11 -9q12 0 18 16l13 31h5v7h-17v-7h5l-8 -20l-9 20h6v7h-25v-7h5q12 -23 16 -33q-2 -8 -8 -8zM464 33h-18v-7h6q-2 -5 -6 -9q-2 2 -5.5 6t-6.5 7q11 5 11 12q0 12 -14 12q-17 0 -17 -14q0 -6 6 -12q-13 -4 -13 -15q0 -14 18 -14q9 0 15 6q5 -6 12 -6
q10 0 13 12l-5 1q-1 -5 -4 -5t-6 5q6 8 9 14h5v7zM294 39v3q0 12 6 12l3 -1q-1 -1 -1 -3q0 -6 6 -6v-5h-14zM469 27q0 -28 29 -28q22 0 24 23h-8q-2 -16 -14 -16q-16 0 -16 22t14 22q10 0 15 -16h8v22h-8l-1 -6q-7 7 -16 7q-11 0 -19 -8.5t-8 -21.5zM431 33q-6 6 -6 10
q0 5 5 5q6 0 6 -6t-5 -9zM247 18h26q2 22 -19 22q-8 0 -14 -6t-6 -15q0 -20 21 -20q15 0 18 14h-7q-1 -7 -9 -7q-10 0 -10 12zM189 20q0 -21 21 -21q9 0 15 6t6 15q0 20 -21 20t-21 -20zM525 20q0 -21 21 -21q9 0 15 6t6 15q0 20 -21 20t-21 -20zM340 18h26q2 22 -19 22
q-8 0 -14 -6t-6 -15q0 -20 21 -20q14 0 18 14h-7q-1 -7 -9 -7q-10 0 -10 12zM247 23q0 12 7 12t7 -12h-14zM218 20q0 -16 -8 -16t-8 16q0 15 8 15t8 -15zM554 20q0 -16 -8 -16t-8 16q0 15 8 15t8 -15zM340 23q0 12 7 12t7 -12h-14zM276 7v-7h23v7h-5v25h14v-25h-5v-7h23v7
h-6v52l-10 -2q-4 2 -9 2q-19 0 -19 -19v-1h-7v-7h7v-25h-6zM368 7v-7h26v7h-8v16q4 9 7 9v-1q0 -6 6 -6q7 0 7 7q0 8 -8 8t-12 -11v10h-18v-7h6v-25h-6zM437 9q-5 -3 -8 -3q-10 0 -10 10q0 5 4 9q4 -4 14 -16zM124 7v-7h29v7h-8v18h22v-18h-8v-7h29v7h-8v41h8v7h-29v-7h8
v-16h-22v16h8v7h-29v-7h8v-41h-8zM583 6q0 7 -7 7t-7 -7t7 -7t7 7z" />
    <glyph glyph-name="check.1" unicode="&#xe10c;" horiz-adv-x="627" 
d="M647 707q-236 -340 -393 -730l-61 2l-96 396l68 23l69 -320h4q142 367 340 665z" />
    <glyph glyph-name="check.2" unicode="&#xe10d;" horiz-adv-x="627" 
d="M345 -6l-76 246l-180 -242l-45 25l202 282l-78 235l70 21l60 -195l262 380l67 -38l-305 -409l94 -293z" />
    <glyph glyph-name="a.sc" horiz-adv-x="598" 
d="M424 -3q-3 27 -6.5 58t-8 69t-6.5 59h-231q-32 -61 -94 -183h-73q154 304 310 585h102q54 -360 79 -582zM352 523q-73 -133 -153 -287h197q-24 192 -38 287h-6z" />
    <glyph glyph-name="b.sc" horiz-adv-x="565" 
d="M481 174q0 -42 -23 -77t-73.5 -63t-131.5 -36.5t-197 2.5l113 581q169 23 254 -13t85 -109q0 -55 -41.5 -96.5t-115.5 -61.5q59 -12 94.5 -46t35.5 -81zM438 444q0 47 -53.5 71.5t-152.5 13.5l-43 -217q125 6 187 42t62 90zM410 168q0 51 -57 79.5t-172 21.5l-42 -214
q132 -15 201.5 19t69.5 94z" />
    <glyph glyph-name="c.sc" horiz-adv-x="583" 
d="M381 595q83 0 115 -52.5t29 -162.5l-69 -1q1 83 -17.5 119t-73.5 36q-66 0 -119 -46.5t-80.5 -116.5t-27.5 -146q0 -125 85 -161t249 21l-6 -64q-184 -61 -292.5 -9.5t-108.5 198.5q0 152 93.5 268.5t222.5 116.5z" />
    <glyph glyph-name="d.sc" horiz-adv-x="615" 
d="M557 356q0 -84 -31 -153.5t-91 -121t-158 -74t-222 -7.5l114 581q182 27 285 -30.5t103 -194.5zM485 348q0 101 -65 146.5t-189 34.5l-92 -473q171 -12 258.5 72.5t87.5 219.5z" />
    <glyph glyph-name="e.sc" horiz-adv-x="531" 
d="M416 60l-16 -60h-345l114 583h346l-11 -61h-274l-39 -201h234l-11 -53h-233l-41 -208h276z" />
    <glyph glyph-name="f.sc" horiz-adv-x="513" 
d="M413 256h-234l-50 -256h-73l113 583h349l-11 -61h-277l-41 -212h235z" />
    <glyph glyph-name="g.sc" horiz-adv-x="609" 
d="M435 -103l-66 -1l25 110q-150 -40 -239.5 15t-89.5 189q0 99 42.5 187.5t117 143t160.5 54.5q84 0 118 -51.5t32 -163.5l-69 -1q0 82 -19.5 118.5t-77.5 36.5q-67 0 -121 -46.5t-82 -117t-28 -146.5q0 -112 70 -153.5t200 -7.5l37 163l69 2z" />
    <glyph glyph-name="h.sc" horiz-adv-x="652" 
d="M417 0l52 267h-289l-52 -267h-73l114 583h73l-51 -261h289l51 261h73l-114 -583h-73z" />
    <glyph glyph-name="i.sc" horiz-adv-x="493" 
d="M240 56h135l-14 -56h-336l10 56h132l92 471h-134l11 56h336l-10 -56h-131z" />
    <glyph glyph-name="j.sc" horiz-adv-x="472" 
d="M291 43q-55 -55 -278 -54l11 66q107 -2 152 3.5t62 23.5q13 13 22.5 45t29.5 128l54 272h-183l12 56h253l-62 -319q-23 -120 -37 -159.5t-36 -61.5z" />
    <glyph glyph-name="k.sc" horiz-adv-x="577" 
d="M406 -5l-194 297l290 291h80l-288 -291l190 -287zM169 583h73l-114 -583h-73z" />
    <glyph glyph-name="l.sc" horiz-adv-x="502" 
d="M402 0h-346l113 583h73l-102 -522h275z" />
    <glyph glyph-name="m.sc" horiz-adv-x="738" 
d="M271 585l71 -431h2l240 429h105l-113 -583h-71l101 498h-6l-245 -439l-60 -1l-74 440h-6l-91 -498h-68l113 581z" />
    <glyph glyph-name="n.sc" horiz-adv-x="657" 
d="M416 0l-192 492h-7l-93 -492h-68l113 581l90 3l186 -475h6l90 474h68l-113 -583h-80z" />
    <glyph glyph-name="o.sc" horiz-adv-x="643" 
d="M376 595q93 0 151.5 -63.5t58.5 -171.5q0 -152 -91 -262.5t-220 -110.5q-94 0 -152 63.5t-58 172.5q0 153 91 262.5t220 109.5zM289 48q97 0 160.5 89t63.5 214q0 86 -42.5 135t-108.5 49q-96 0 -160 -89t-64 -214q0 -86 42.5 -135t108.5 -49z" />
    <glyph glyph-name="p.sc" horiz-adv-x="550" 
d="M129 0h-73l113 580q121 16 202.5 -1t116.5 -56t35 -97q0 -97 -94 -158.5t-263 -77.5zM452 415q0 61 -56 92t-165 20l-53 -271q131 -1 202.5 42.5t71.5 116.5z" />
    <glyph glyph-name="q.sc" horiz-adv-x="611" 
d="M460 -128l-306 121l17 49q142 50 231 144t89 201q0 69 -40 108.5t-110 39.5q-76 0 -127.5 -50.5t-63.5 -140.5t30 -213l-60 -24q-35 73 -42 147t12 134t56 107.5t92.5 73.5t120.5 26q98 0 152 -57t54 -147q0 -111 -84.5 -210t-223.5 -160l229 -89z" />
    <glyph glyph-name="r.sc" horiz-adv-x="579" 
d="M416 -6l-176 267l1 2q112 47 159 86.5t47 89.5q0 51 -55 74.5t-162 13.5l-101 -527h-73l113 581q180 22 265.5 -15.5t85.5 -113.5q0 -62 -49 -110.5t-143 -91.5l166 -244z" />
    <glyph glyph-name="s.sc" horiz-adv-x="516" 
d="M467 434l-65 -13q-17 113 -107 113q-47 0 -78 -30t-31 -71q0 -30 24 -60t58.5 -56.5t69 -53.5t58.5 -60.5t24 -68.5q0 -81 -99.5 -123t-294.5 0l16 69q114 -32 181.5 -28.5t95.5 23t28 52.5q0 32 -36.5 67.5t-80 64.5t-80 73t-36.5 90q0 68 58 119.5t141 51.5
q134 0 154 -159z" />
    <glyph glyph-name="t.sc" horiz-adv-x="535" 
d="M352 522l-101 -522h-72l101 522h-184l11 61h440l-11 -61h-184z" />
    <glyph glyph-name="u.sc" horiz-adv-x="633" 
d="M167 244q-39 -196 116 -196q134 0 165 162l72 373h73l-73 -373q-22 -114 -86 -168t-159 -54q-102 0 -153.5 63.5t-25.5 199.5l65 332h73z" />
    <glyph glyph-name="v.sc" horiz-adv-x="574" 
d="M283 0h-104q-42 283 -70 580l72 5q20 -225 57 -519h10q151 278 265 517h73q-147 -300 -303 -583z" />
    <glyph glyph-name="w.sc" horiz-adv-x="704" 
d="M420 0l-60 321l-182 -321h-83q4 210 53 583h71q-14 -105 -34.5 -280.5t-21.5 -217.5h6l186 333h50l59 -333h5q29 76 141 498h69q-98 -378 -178 -583h-81z" />
    <glyph glyph-name="x.sc" horiz-adv-x="581" 
d="M404 -3l-117 247l-201 -244h-81l253 297l-138 282l76 7l116 -242l196 239h82l-249 -291l139 -289z" />
    <glyph glyph-name="y.sc" horiz-adv-x="575" 
d="M270 0h-72l39 202l-131 379l74 4l107 -326h2l226 324h78l-285 -392z" />
    <glyph glyph-name="z.sc" horiz-adv-x="549" 
d="M425 0h-403l11 60l411 463l-315 -2l13 62h393l-10 -60l-409 -463l322 2z" />
    <glyph glyph-name="aacute.sc" horiz-adv-x="598" 
d="M279 698q50 34 114.5 89t105.5 99l53 -61q-90 -76 -257 -160zM424 -3q-3 27 -6.5 58t-8 69t-6.5 59h-231q-32 -61 -94 -183h-73q154 304 310 585h102q54 -360 79 -582zM352 523q-73 -133 -153 -287h197q-24 192 -38 287h-6z" />
    <glyph glyph-name="abreve.sc" horiz-adv-x="598" 
d="M560 859l42 -28q-114 -158 -217 -158q-102 0 -158 161l56 30q26 -71 53 -101t65 -30q37 0 73 30t86 96zM424 -3q-3 27 -6.5 58t-8 69t-6.5 59h-231q-32 -61 -94 -183h-73q154 304 310 585h102q54 -360 79 -582zM352 523q-73 -133 -153 -287h197q-24 192 -38 287h-6z" />
    <glyph glyph-name="acircumflex.sc" horiz-adv-x="598" 
d="M512 665l-102 130l-164 -125l-34 40l211 163h1l139 -167zM424 -3q-3 27 -6.5 58t-8 69t-6.5 59h-231q-32 -61 -94 -183h-73q154 304 310 585h102q54 -360 79 -582zM352 523q-73 -133 -153 -287h197q-24 192 -38 287h-6z" />
    <glyph glyph-name="adieresis.sc" horiz-adv-x="598" 
d="M522 681l-75 -1l35 144l84 2zM305 679l-75 -2l35 144l83 2zM424 -3q-3 27 -6.5 58t-8 69t-6.5 59h-231q-32 -61 -94 -183h-73q154 304 310 585h102q54 -360 79 -582zM352 523q-73 -133 -153 -287h197q-24 192 -38 287h-6z" />
    <glyph glyph-name="agrave.sc" horiz-adv-x="598" 
d="M476 689l-20 -32q-126 84 -214 175l52 60q85 -115 182 -203zM424 -3q-3 27 -6.5 58t-8 69t-6.5 59h-231q-32 -61 -94 -183h-73q154 304 310 585h102q54 -360 79 -582zM352 523q-73 -133 -153 -287h197q-24 192 -38 287h-6z" />
    <glyph glyph-name="amacron.sc" horiz-adv-x="598" 
d="M571 785l-12 -63h-334l13 63h333zM424 -3q-3 27 -6.5 58t-8 69t-6.5 59h-231q-32 -61 -94 -183h-73q154 304 310 585h102q54 -360 79 -582zM352 523q-73 -133 -153 -287h197q-24 192 -38 287h-6z" />
    <glyph glyph-name="aogonek.sc" horiz-adv-x="598" 
d="M464 -180q-54 -30 -98.5 -41t-72 -3.5t-42.5 25.5t-15 43q0 87 186 171q-3 25 -9.5 81.5t-9.5 86.5h-231q-32 -61 -94 -183h-73q154 304 310 585h102q54 -360 79 -582q-98 -36 -145.5 -71.5t-47.5 -66.5q0 -20 14.5 -30t49.5 -6.5t87 25.5zM352 523q-73 -133 -153 -287
h197q-24 192 -38 287h-6z" />
    <glyph glyph-name="aring.sc" horiz-adv-x="598" 
d="M409 880q55 0 89.5 -29.5t34.5 -75.5q0 -52 -41 -88t-102 -36q-54 0 -88 30t-34 76q0 52 40 87.5t101 35.5zM404 833q-35 0 -58 -20.5t-23 -50.5q0 -27 20.5 -45t53.5 -18q34 0 57.5 20.5t23.5 49.5q0 28 -21 46t-53 18zM424 -3q-3 27 -6.5 58t-8 69t-6.5 59h-231
q-32 -61 -94 -183h-73q154 304 310 585h102q54 -360 79 -582zM352 523q-73 -133 -153 -287h197q-24 192 -38 287h-6z" />
    <glyph glyph-name="aringacute.sc" horiz-adv-x="598" 
d="M331 963q50 34 114.5 89t105.5 99l53 -61q-90 -76 -257 -160zM409 880q55 0 89.5 -29.5t34.5 -75.5q0 -52 -41 -88t-102 -36q-54 0 -88 30t-34 76q0 52 40 87.5t101 35.5zM404 833q-35 0 -58 -20.5t-23 -50.5q0 -27 20.5 -45t53.5 -18q34 0 57.5 20.5t23.5 49.5
q0 28 -21 46t-53 18zM424 -3q-3 27 -6.5 58t-8 69t-6.5 59h-231q-32 -61 -94 -183h-73q154 304 310 585h102q54 -360 79 -582zM352 523q-73 -133 -153 -287h197q-24 192 -38 287h-6z" />
    <glyph glyph-name="atilde.sc" horiz-adv-x="598" 
d="M475 734q33 0 100 114l37 -23q-83 -149 -153 -149q-23 0 -43 18.5t-32 40.5t-27.5 40.5t-30.5 18.5q-36 0 -100 -109l-37 23q81 144 154 144q23 0 43 -18.5t32 -40.5t27 -40.5t30 -18.5zM424 -3q-3 27 -6.5 58t-8 69t-6.5 59h-231q-32 -61 -94 -183h-73q154 304 310 585
h102q54 -360 79 -582zM352 523q-73 -133 -153 -287h197q-24 192 -38 287h-6z" />
    <glyph glyph-name="cacute.sc" horiz-adv-x="583" 
d="M297 708q50 34 114.5 89t105.5 99l53 -61q-90 -76 -257 -160zM381 595q83 0 115 -52.5t29 -162.5l-69 -1q1 83 -17.5 119t-73.5 36q-66 0 -119 -46.5t-80.5 -116.5t-27.5 -146q0 -125 85 -161t249 21l-6 -64q-184 -61 -292.5 -9.5t-108.5 198.5q0 152 93.5 268.5
t222.5 116.5z" />
    <glyph glyph-name="ccaron.sc" horiz-adv-x="583" 
d="M397 671h-1l-139 167l51 41l103 -130l163 126l34 -40zM381 595q83 0 115 -52.5t29 -162.5l-69 -1q1 83 -17.5 119t-73.5 36q-66 0 -119 -46.5t-80.5 -116.5t-27.5 -146q0 -125 85 -161t249 21l-6 -64q-184 -61 -292.5 -9.5t-108.5 198.5q0 152 93.5 268.5t222.5 116.5z
" />
    <glyph glyph-name="ccedilla.sc" horiz-adv-x="583" 
d="M347 -189l-65 -1q10 148 -43 148q-44 0 -95 -117l-39 13q43 114 96 146q-136 44 -136 210q0 152 93.5 268.5t222.5 116.5q83 0 115 -52.5t29 -162.5l-69 -1q1 83 -17.5 119t-73.5 36q-66 0 -119 -46.5t-80.5 -116.5t-27.5 -146q0 -125 85 -161t249 21l-6 -64
q-89 -29 -159 -32q49 -50 40 -178z" />
    <glyph glyph-name="cdotaccent.sc" horiz-adv-x="583" 
d="M431 689l-75 -1l35 144l84 1zM381 595q83 0 115 -52.5t29 -162.5l-69 -1q1 83 -17.5 119t-73.5 36q-66 0 -119 -46.5t-80.5 -116.5t-27.5 -146q0 -125 85 -161t249 21l-6 -64q-184 -61 -292.5 -9.5t-108.5 198.5q0 152 93.5 268.5t222.5 116.5z" />
    <glyph glyph-name="dcaron.sc" horiz-adv-x="615" 
d="M371 665h-1l-139 167l51 41l103 -130l163 126l34 -40zM557 356q0 -84 -31 -153.5t-91 -121t-158 -74t-222 -7.5l114 581q182 27 285 -30.5t103 -194.5zM485 348q0 101 -65 146.5t-189 34.5l-92 -473q171 -12 258.5 72.5t87.5 219.5z" />
    <glyph glyph-name="dcroat.sc" horiz-adv-x="615" 
d="M557 356q0 -84 -31 -153.5t-91 -121t-158 -74t-222 -7.5l53 270h-71l10 53h71l51 258q182 27 285 -30.5t103 -194.5zM320 270h-139l-42 -214q171 -12 258.5 72.5t87.5 219.5q0 101 -65 146.5t-189 34.5l-40 -206h142z" />
    <glyph glyph-name="eacute.sc" horiz-adv-x="531" 
d="M255 695q50 34 114.5 89t105.5 99l53 -61q-90 -76 -257 -160zM416 60l-16 -60h-345l114 583h346l-11 -61h-274l-39 -201h234l-11 -53h-233l-41 -208h276z" />
    <glyph glyph-name="ebreve.sc" horiz-adv-x="531" 
d="M536 856l42 -28q-114 -158 -217 -158q-102 0 -158 161l56 30q26 -71 53 -101t65 -30q37 0 73 30t86 96zM416 60l-16 -60h-345l114 583h346l-11 -61h-274l-39 -201h234l-11 -53h-233l-41 -208h276z" />
    <glyph glyph-name="ecaron.sc" horiz-adv-x="531" 
d="M355 658h-1l-139 167l51 41l103 -130l163 126l34 -40zM416 60l-16 -60h-345l114 583h346l-11 -61h-274l-39 -201h234l-11 -53h-233l-41 -208h276z" />
    <glyph glyph-name="ecircumflex.sc" horiz-adv-x="531" 
d="M488 662l-102 130l-164 -125l-34 40l211 163h1l139 -167zM416 60l-16 -60h-345l114 583h346l-11 -61h-274l-39 -201h234l-11 -53h-233l-41 -208h276z" />
    <glyph glyph-name="edieresis.sc" horiz-adv-x="531" 
d="M498 678l-75 -1l35 144l84 2zM281 676l-75 -2l35 144l83 2zM416 60l-16 -60h-345l114 583h346l-11 -61h-274l-39 -201h234l-11 -53h-233l-41 -208h276z" />
    <glyph glyph-name="edotaccent.sc" horiz-adv-x="531" 
d="M389 676l-75 -1l35 144l84 1zM416 60l-16 -60h-345l114 583h346l-11 -61h-274l-39 -201h234l-11 -53h-233l-41 -208h276z" />
    <glyph glyph-name="egrave.sc" horiz-adv-x="531" 
d="M452 686l-20 -32q-126 84 -214 175l52 60q85 -115 182 -203zM416 60l-16 -60h-345l114 583h346l-11 -61h-274l-39 -201h234l-11 -53h-233l-41 -208h276z" />
    <glyph glyph-name="emacron.sc" horiz-adv-x="531" 
d="M547 782l-12 -63h-334l13 63h333zM416 60l-16 -60h-345l114 583h346l-11 -61h-274l-39 -201h234l-11 -53h-233l-41 -208h276z" />
    <glyph glyph-name="eogonek.sc" horiz-adv-x="531" 
d="M368 -183q-54 -30 -98.5 -41t-72 -3.5t-42.5 25.5t-15 43q0 81 161 159h-246l114 583h346l-11 -61h-274l-39 -201h234l-11 -53h-233l-41 -208h276l-16 -60q-98 -36 -145.5 -71.5t-47.5 -66.5q0 -20 14.5 -30t49.5 -6.5t87 25.5z" />
    <glyph glyph-name="gbreve.sc" horiz-adv-x="609" 
d="M580 869l42 -28q-114 -158 -217 -158q-102 0 -158 161l56 30q26 -71 53 -101t65 -30q37 0 73 30t86 96zM435 -103l-66 -1l25 110q-150 -40 -239.5 15t-89.5 189q0 99 42.5 187.5t117 143t160.5 54.5q84 0 118 -51.5t32 -163.5l-69 -1q0 82 -19.5 118.5t-77.5 36.5
q-67 0 -121 -46.5t-82 -117t-28 -146.5q0 -112 70 -153.5t200 -7.5l37 163l69 2z" />
    <glyph glyph-name="gcommaaccent.sc" horiz-adv-x="609" 
d="M435 -103l-66 -1l25 110q-150 -40 -239.5 15t-89.5 189q0 99 42.5 187.5t117 143t160.5 54.5q84 0 118 -51.5t32 -163.5l-69 -1q0 82 -19.5 118.5t-77.5 36.5q-67 0 -121 -46.5t-82 -117t-28 -146.5q0 -112 70 -153.5t200 -7.5l37 163l69 2zM147 -372q60 93 43 206l94 3
q-2 -56 -29.5 -114.5t-78.5 -108.5z" />
    <glyph glyph-name="gdotaccent.sc" horiz-adv-x="609" 
d="M433 689l-75 -1l35 144l84 1zM435 -103l-66 -1l25 110q-150 -40 -239.5 15t-89.5 189q0 99 42.5 187.5t117 143t160.5 54.5q84 0 118 -51.5t32 -163.5l-69 -1q0 82 -19.5 118.5t-77.5 36.5q-67 0 -121 -46.5t-82 -117t-28 -146.5q0 -112 70 -153.5t200 -7.5l37 163l69 2z
" />
    <glyph glyph-name="hbar.sc" horiz-adv-x="652" 
d="M480 322l19 95h-289l-19 -95h289zM417 0l52 267h-289l-52 -267h-73l81 415h-71l11 56h71l22 112h73l-22 -115h289l22 115h73l-22 -112h69l-11 -56h-69l-81 -415h-73z" />
    <glyph glyph-name="iacute.sc" horiz-adv-x="493" 
d="M221 695q50 34 114.5 89t105.5 99l53 -61q-90 -76 -257 -160zM240 56h135l-14 -56h-336l10 56h132l92 471h-134l11 56h336l-10 -56h-131z" />
    <glyph glyph-name="ibreve.sc" horiz-adv-x="493" 
d="M501 856l42 -28q-114 -158 -217 -158q-102 0 -158 161l56 30q26 -71 53 -101t65 -30q37 0 73 30t86 96zM240 56h135l-14 -56h-336l10 56h132l92 471h-134l11 56h336l-10 -56h-131z" />
    <glyph glyph-name="icircumflex.sc" horiz-adv-x="493" 
d="M454 662l-102 130l-164 -125l-34 40l211 163h1l139 -167zM240 56h135l-14 -56h-336l10 56h132l92 471h-134l11 56h336l-10 -56h-131z" />
    <glyph glyph-name="idieresis.sc" horiz-adv-x="493" 
d="M463 678l-75 -1l35 144l84 2zM246 676l-75 -2l35 144l83 2zM240 56h135l-14 -56h-336l10 56h132l92 471h-134l11 56h336l-10 -56h-131z" />
    <glyph glyph-name="idotaccent.sc" horiz-adv-x="493" 
d="M355 676l-75 -1l35 144l84 1zM240 56h135l-14 -56h-336l10 56h132l92 471h-134l11 56h336l-10 -56h-131z" />
    <glyph glyph-name="dotlessi.sc" horiz-adv-x="493" 
d="M240 56h135l-14 -56h-336l10 56h132l92 471h-134l11 56h336l-10 -56h-131z" />
    <glyph glyph-name="igrave.sc" horiz-adv-x="493" 
d="M418 686l-20 -32q-126 84 -214 175l52 60q85 -115 182 -203zM240 56h135l-14 -56h-336l10 56h132l92 471h-134l11 56h336l-10 -56h-131z" />
    <glyph glyph-name="imacron.sc" horiz-adv-x="493" 
d="M512 782l-12 -63h-334l13 63h333zM240 56h135l-14 -56h-336l10 56h132l92 471h-134l11 56h336l-10 -56h-131z" />
    <glyph glyph-name="iogonek.sc" horiz-adv-x="493" 
d="M274 -182q-69 -39 -122.5 -45t-79.5 14.5t-26 56.5q0 78 113 156h-134l10 56h132l92 471h-134l11 56h336l-10 -56h-131l-91 -471h135l-14 -56h-127q-60 -33 -91 -69.5t-31 -67.5q0 -21 16 -31t51 -6t84 26z" />
    <glyph glyph-name="kcommaaccent.sc" horiz-adv-x="577" 
d="M406 -5l-194 297l290 291h80l-288 -291l190 -287zM169 583h73l-114 -583h-73zM145 -292q60 93 43 206l94 3q-2 -56 -29.5 -114.5t-78.5 -108.5z" />
    <glyph glyph-name="lacute.sc" horiz-adv-x="502" 
d="M239 695q50 34 114.5 89t105.5 99l53 -61q-90 -76 -257 -160zM402 0h-346l113 583h73l-102 -522h275z" />
    <glyph glyph-name="lcaron.sc" horiz-adv-x="502" 
d="M424 717l86 5q-6 -148 -112 -278l-31 16q39 68 50 126.5t7 130.5zM402 0h-346l113 583h73l-102 -522h275z" />
    <glyph glyph-name="lcommaaccent.sc" horiz-adv-x="502" 
d="M402 0h-346l113 583h73l-102 -522h275zM116 -287q60 93 43 206l94 3q-2 -56 -29.5 -114.5t-78.5 -108.5z" />
    <glyph glyph-name="ldot.sc" horiz-adv-x="502" 
d="M402 0h-346l113 583h73l-102 -522h275zM429 260h-89l21 108h90z" />
    <glyph glyph-name="lslash.sc" horiz-adv-x="502" 
d="M402 0h-346l49 254l-82 -40l-2 60l97 47l51 262h73l-44 -224l156 75l3 -59l-172 -83l-45 -231h275z" />
    <glyph glyph-name="nacute.sc" horiz-adv-x="657" 
d="M302 696q50 34 114.5 89t105.5 99l53 -61q-90 -76 -257 -160zM416 0l-192 492h-7l-93 -492h-68l113 581l90 3l186 -475h6l90 474h68l-113 -583h-80z" />
    <glyph glyph-name="ncaron.sc" horiz-adv-x="657" 
d="M402 659h-1l-139 167l51 41l103 -130l163 126l34 -40zM416 0l-192 492h-7l-93 -492h-68l113 581l90 3l186 -475h6l90 474h68l-113 -583h-80z" />
    <glyph glyph-name="ncommaaccent.sc" horiz-adv-x="657" 
d="M416 0l-192 492h-7l-93 -492h-68l113 581l90 3l186 -475h6l90 474h68l-113 -583h-80zM169 -287q60 93 43 206l94 3q-2 -56 -29.5 -114.5t-78.5 -108.5z" />
    <glyph glyph-name="ntilde.sc" horiz-adv-x="657" 
d="M498 732q33 0 100 114l37 -23q-83 -149 -153 -149q-23 0 -43 18.5t-32 40.5t-27.5 40.5t-30.5 18.5q-36 0 -100 -109l-37 23q81 144 154 144q23 0 43 -18.5t32 -40.5t27 -40.5t30 -18.5zM416 0l-192 492h-7l-93 -492h-68l113 581l90 3l186 -475h6l90 474h68l-113 -583
h-80z" />
    <glyph glyph-name="oacute.sc" horiz-adv-x="643" 
d="M302 708q50 34 114.5 89t105.5 99l53 -61q-90 -76 -257 -160zM376 595q93 0 151.5 -63.5t58.5 -171.5q0 -152 -91 -262.5t-220 -110.5q-94 0 -152 63.5t-58 172.5q0 153 91 262.5t220 109.5zM289 48q97 0 160.5 89t63.5 214q0 86 -42.5 135t-108.5 49q-96 0 -160 -89
t-64 -214q0 -86 42.5 -135t108.5 -49z" />
    <glyph glyph-name="obreve.sc" horiz-adv-x="643" 
d="M582 869l42 -28q-114 -158 -217 -158q-102 0 -158 161l56 30q26 -71 53 -101t65 -30q37 0 73 30t86 96zM376 595q93 0 151.5 -63.5t58.5 -171.5q0 -152 -91 -262.5t-220 -110.5q-94 0 -152 63.5t-58 172.5q0 153 91 262.5t220 109.5zM289 48q97 0 160.5 89t63.5 214
q0 86 -42.5 135t-108.5 49q-96 0 -160 -89t-64 -214q0 -86 42.5 -135t108.5 -49z" />
    <glyph glyph-name="ocircumflex.sc" horiz-adv-x="643" 
d="M535 675l-102 130l-164 -125l-34 40l211 163h1l139 -167zM376 595q93 0 151.5 -63.5t58.5 -171.5q0 -152 -91 -262.5t-220 -110.5q-94 0 -152 63.5t-58 172.5q0 153 91 262.5t220 109.5zM289 48q97 0 160.5 89t63.5 214q0 86 -42.5 135t-108.5 49q-96 0 -160 -89
t-64 -214q0 -86 42.5 -135t108.5 -49z" />
    <glyph glyph-name="odieresis.sc" horiz-adv-x="643" 
d="M545 691l-75 -1l35 144l84 2zM328 689l-75 -2l35 144l83 2zM376 595q93 0 151.5 -63.5t58.5 -171.5q0 -152 -91 -262.5t-220 -110.5q-94 0 -152 63.5t-58 172.5q0 153 91 262.5t220 109.5zM289 48q97 0 160.5 89t63.5 214q0 86 -42.5 135t-108.5 49q-96 0 -160 -89
t-64 -214q0 -86 42.5 -135t108.5 -49z" />
    <glyph glyph-name="ograve.sc" horiz-adv-x="643" 
d="M499 699l-20 -32q-126 84 -214 175l52 60q85 -115 182 -203zM376 595q93 0 151.5 -63.5t58.5 -171.5q0 -152 -91 -262.5t-220 -110.5q-94 0 -152 63.5t-58 172.5q0 153 91 262.5t220 109.5zM289 48q97 0 160.5 89t63.5 214q0 86 -42.5 135t-108.5 49q-96 0 -160 -89
t-64 -214q0 -86 42.5 -135t108.5 -49z" />
    <glyph glyph-name="ohungarumlaut.sc" horiz-adv-x="643" 
d="M274 676l-32 27q76 91 143 212l71 -39q-76 -103 -182 -200zM486 676l-33 26q72 87 141 209l73 -35q-32 -45 -83.5 -101.5t-97.5 -98.5zM376 595q93 0 151.5 -63.5t58.5 -171.5q0 -152 -91 -262.5t-220 -110.5q-94 0 -152 63.5t-58 172.5q0 153 91 262.5t220 109.5z
M289 48q97 0 160.5 89t63.5 214q0 86 -42.5 135t-108.5 49q-96 0 -160 -89t-64 -214q0 -86 42.5 -135t108.5 -49z" />
    <glyph glyph-name="omacron.sc" horiz-adv-x="643" 
d="M593 795l-12 -63h-334l13 63h333zM376 595q93 0 151.5 -63.5t58.5 -171.5q0 -152 -91 -262.5t-220 -110.5q-94 0 -152 63.5t-58 172.5q0 153 91 262.5t220 109.5zM289 48q97 0 160.5 89t63.5 214q0 86 -42.5 135t-108.5 49q-96 0 -160 -89t-64 -214q0 -86 42.5 -135
t108.5 -49z" />
    <glyph glyph-name="oslash.sc" horiz-adv-x="643" 
d="M138 232q0 -45 12 -80l321 333q-41 50 -109 50q-96 0 -160 -89t-64 -214zM289 48q97 0 160.5 89t63.5 214q0 47 -14 84l-323 -333q43 -54 113 -54zM275 -13q-93 0 -150 62l-75 -77l-40 36l84 85q-29 55 -29 130q0 153 91 262.5t220 109.5q89 0 146 -57l73 75l40 -36
l-81 -82q32 -56 32 -135q0 -152 -91 -262.5t-220 -110.5z" />
    <glyph glyph-name="oslashacute.sc" horiz-adv-x="643" 
d="M294 710q50 34 114.5 89t105.5 99l53 -61q-90 -76 -257 -160zM138 232q0 -45 12 -80l321 333q-41 50 -109 50q-96 0 -160 -89t-64 -214zM289 48q97 0 160.5 89t63.5 214q0 47 -14 84l-323 -333q43 -54 113 -54zM275 -13q-93 0 -150 62l-75 -77l-40 36l84 85
q-29 55 -29 130q0 153 91 262.5t220 109.5q89 0 146 -57l73 75l40 -36l-81 -82q32 -56 32 -135q0 -152 -91 -262.5t-220 -110.5z" />
    <glyph glyph-name="otilde.sc" horiz-adv-x="643" 
d="M498 744q33 0 100 114l37 -23q-83 -149 -153 -149q-23 0 -43 18.5t-32 40.5t-27.5 40.5t-30.5 18.5q-36 0 -100 -109l-37 23q81 144 154 144q23 0 43 -18.5t32 -40.5t27 -40.5t30 -18.5zM376 595q93 0 151.5 -63.5t58.5 -171.5q0 -152 -91 -262.5t-220 -110.5
q-94 0 -152 63.5t-58 172.5q0 153 91 262.5t220 109.5zM289 48q97 0 160.5 89t63.5 214q0 86 -42.5 135t-108.5 49q-96 0 -160 -89t-64 -214q0 -86 42.5 -135t108.5 -49z" />
    <glyph glyph-name="racute.sc" horiz-adv-x="579" 
d="M261 701q50 34 114.5 89t105.5 99l53 -61q-90 -76 -257 -160zM416 -6l-176 267l1 2q112 47 159 86.5t47 89.5q0 51 -55 74.5t-162 13.5l-101 -527h-73l113 581q180 22 265.5 -15.5t85.5 -113.5q0 -62 -49 -110.5t-143 -91.5l166 -244z" />
    <glyph glyph-name="rcaron.sc" horiz-adv-x="579" 
d="M361 664h-1l-139 167l51 41l103 -130l163 126l34 -40zM416 -6l-176 267l1 2q112 47 159 86.5t47 89.5q0 51 -55 74.5t-162 13.5l-101 -527h-73l113 581q180 22 265.5 -15.5t85.5 -113.5q0 -62 -49 -110.5t-143 -91.5l166 -244z" />
    <glyph glyph-name="rcommaaccent.sc" horiz-adv-x="579" 
d="M416 -6l-176 267l1 2q112 47 159 86.5t47 89.5q0 51 -55 74.5t-162 13.5l-101 -527h-73l113 581q180 22 265.5 -15.5t85.5 -113.5q0 -62 -49 -110.5t-143 -91.5l166 -244zM157 -293q60 93 43 206l94 3q-2 -56 -29.5 -114.5t-78.5 -108.5z" />
    <glyph glyph-name="sacute.sc" horiz-adv-x="516" 
d="M240 706q50 34 114.5 89t105.5 99l53 -61q-90 -76 -257 -160zM467 434l-65 -13q-17 113 -107 113q-47 0 -78 -30t-31 -71q0 -30 24 -60t58.5 -56.5t69 -53.5t58.5 -60.5t24 -68.5q0 -81 -99.5 -123t-294.5 0l16 69q114 -32 181.5 -28.5t95.5 23t28 52.5q0 32 -36.5 67.5
t-80 64.5t-80 73t-36.5 90q0 68 58 119.5t141 51.5q134 0 154 -159z" />
    <glyph glyph-name="scaron.sc" horiz-adv-x="516" 
d="M340 669h-1l-139 167l51 41l103 -130l163 126l34 -40zM467 434l-65 -13q-17 113 -107 113q-47 0 -78 -30t-31 -71q0 -30 24 -60t58.5 -56.5t69 -53.5t58.5 -60.5t24 -68.5q0 -81 -99.5 -123t-294.5 0l16 69q114 -32 181.5 -28.5t95.5 23t28 52.5q0 32 -36.5 67.5
t-80 64.5t-80 73t-36.5 90q0 68 58 119.5t141 51.5q134 0 154 -159z" />
    <glyph glyph-name="scedilla.sc" horiz-adv-x="516" 
d="M234 -190q10 148 -43 148q-44 0 -95 -117l-39 13q40 103 86 139q-53 5 -117 18l16 69q114 -32 181.5 -28.5t95.5 23t28 52.5q0 32 -36.5 67.5t-80 64.5t-80 73t-36.5 90q0 68 58 119.5t141 51.5q134 0 154 -159l-65 -13q-17 113 -107 113q-47 0 -78 -30t-31 -71
q0 -30 24 -60t58.5 -56.5t69 -53.5t58.5 -60.5t24 -68.5q0 -51 -42 -89.5t-125 -49.5q56 -47 46 -184z" />
    <glyph glyph-name="scommaaccent.sc" horiz-adv-x="516" 
d="M467 434l-65 -13q-17 113 -107 113q-47 0 -78 -30t-31 -71q0 -30 24 -60t58.5 -56.5t69 -53.5t58.5 -60.5t24 -68.5q0 -81 -99.5 -123t-294.5 0l16 69q114 -32 181.5 -28.5t95.5 23t28 52.5q0 32 -36.5 67.5t-80 64.5t-80 73t-36.5 90q0 68 58 119.5t141 51.5
q134 0 154 -159zM96 -296q60 93 43 206l94 3q-2 -56 -29.5 -114.5t-78.5 -108.5z" />
    <glyph glyph-name="tcaron.sc" horiz-adv-x="535" 
d="M342 658h-1l-139 167l51 41l103 -130l163 126l34 -40zM352 522l-101 -522h-72l101 522h-184l11 61h440l-11 -61h-184z" />
    <glyph glyph-name="tcommaaccent.sc" horiz-adv-x="535" 
d="M352 522l-101 -522h-72l101 522h-184l11 61h440l-11 -61h-184zM109 -287q60 93 43 206l94 3q-2 -56 -29.5 -114.5t-78.5 -108.5z" />
    <glyph glyph-name="uacute.sc" horiz-adv-x="633" 
d="M296 695q50 34 114.5 89t105.5 99l53 -61q-90 -76 -257 -160zM167 244q-39 -196 116 -196q134 0 165 162l72 373h73l-73 -373q-22 -114 -86 -168t-159 -54q-102 0 -153.5 63.5t-25.5 199.5l65 332h73z" />
    <glyph glyph-name="ubreve.sc" horiz-adv-x="633" 
d="M576 856l42 -28q-114 -158 -217 -158q-102 0 -158 161l56 30q26 -71 53 -101t65 -30q37 0 73 30t86 96zM167 244q-39 -196 116 -196q134 0 165 162l72 373h73l-73 -373q-22 -114 -86 -168t-159 -54q-102 0 -153.5 63.5t-25.5 199.5l65 332h73z" />
    <glyph glyph-name="ucircumflex.sc" horiz-adv-x="633" 
d="M529 662l-102 130l-164 -125l-34 40l211 163h1l139 -167zM167 244q-39 -196 116 -196q134 0 165 162l72 373h73l-73 -373q-22 -114 -86 -168t-159 -54q-102 0 -153.5 63.5t-25.5 199.5l65 332h73z" />
    <glyph glyph-name="udieresis.sc" horiz-adv-x="633" 
d="M539 678l-75 -1l35 144l84 2zM322 676l-75 -2l35 144l83 2zM167 244q-39 -196 116 -196q134 0 165 162l72 373h73l-73 -373q-22 -114 -86 -168t-159 -54q-102 0 -153.5 63.5t-25.5 199.5l65 332h73z" />
    <glyph glyph-name="ugrave.sc" horiz-adv-x="633" 
d="M493 686l-20 -32q-126 84 -214 175l52 60q85 -115 182 -203zM167 244q-39 -196 116 -196q134 0 165 162l72 373h73l-73 -373q-22 -114 -86 -168t-159 -54q-102 0 -153.5 63.5t-25.5 199.5l65 332h73z" />
    <glyph glyph-name="uhungarumlaut.sc" horiz-adv-x="633" 
d="M268 663l-32 27q76 91 143 212l71 -39q-76 -103 -182 -200zM480 663l-33 26q72 87 141 209l73 -35q-32 -45 -83.5 -101.5t-97.5 -98.5zM167 244q-39 -196 116 -196q134 0 165 162l72 373h73l-73 -373q-22 -114 -86 -168t-159 -54q-102 0 -153.5 63.5t-25.5 199.5l65 332
h73z" />
    <glyph glyph-name="umacron.sc" horiz-adv-x="633" 
d="M587 782l-12 -63h-334l13 63h333zM167 244q-39 -196 116 -196q134 0 165 162l72 373h73l-73 -373q-22 -114 -86 -168t-159 -54q-102 0 -153.5 63.5t-25.5 199.5l65 332h73z" />
    <glyph glyph-name="uogonek.sc" horiz-adv-x="633" 
d="M363 -182q-53 -30 -97.5 -41t-71 -3.5t-41 25.5t-14.5 43q0 71 132 146q-101 2 -151 65t-24 198l65 332h73l-67 -339q-39 -196 116 -196q134 0 165 162l72 373h73l-73 -373q-15 -81 -49.5 -127.5t-99.5 -81.5q-85 -43 -125 -74.5t-40 -65.5q0 -20 13.5 -29.5t47.5 -5.5
t86 26z" />
    <glyph glyph-name="uring.sc" horiz-adv-x="633" 
d="M426 877q55 0 89.5 -29.5t34.5 -75.5q0 -52 -41 -88t-102 -36q-54 0 -88 30t-34 76q0 52 40 87.5t101 35.5zM421 830q-35 0 -58 -20.5t-23 -50.5q0 -27 20.5 -45t53.5 -18q34 0 57.5 20.5t23.5 49.5q0 28 -21 46t-53 18zM167 244q-39 -196 116 -196q134 0 165 162l72 373
h73l-73 -373q-22 -114 -86 -168t-159 -54q-102 0 -153.5 63.5t-25.5 199.5l65 332h73z" />
    <glyph glyph-name="wacute.sc" horiz-adv-x="704" 
d="M328 695q50 34 114.5 89t105.5 99l53 -61q-90 -76 -257 -160zM420 0l-60 321l-182 -321h-83q4 210 53 583h71q-14 -105 -34.5 -280.5t-21.5 -217.5h6l186 333h50l59 -333h5q29 76 141 498h69q-98 -378 -178 -583h-81z" />
    <glyph glyph-name="wcircumflex.sc" horiz-adv-x="704" 
d="M561 662l-102 130l-164 -125l-34 40l211 163h1l139 -167zM420 0l-60 321l-182 -321h-83q4 210 53 583h71q-14 -105 -34.5 -280.5t-21.5 -217.5h6l186 333h50l59 -333h5q29 76 141 498h69q-98 -378 -178 -583h-81z" />
    <glyph glyph-name="wdieresis.sc" horiz-adv-x="704" 
d="M571 678l-75 -1l35 144l84 2zM354 676l-75 -2l35 144l83 2zM420 0l-60 321l-182 -321h-83q4 210 53 583h71q-14 -105 -34.5 -280.5t-21.5 -217.5h6l186 333h50l59 -333h5q29 76 141 498h69q-98 -378 -178 -583h-81z" />
    <glyph glyph-name="wgrave.sc" horiz-adv-x="704" 
d="M525 686l-20 -32q-126 84 -214 175l52 60q85 -115 182 -203zM420 0l-60 321l-182 -321h-83q4 210 53 583h71q-14 -105 -34.5 -280.5t-21.5 -217.5h6l186 333h50l59 -333h5q29 76 141 498h69q-98 -378 -178 -583h-81z" />
    <glyph glyph-name="yacute.sc" horiz-adv-x="575" 
d="M263 697q50 34 114.5 89t105.5 99l53 -61q-90 -76 -257 -160zM270 0h-72l39 202l-131 379l74 4l107 -326h2l226 324h78l-285 -392z" />
    <glyph glyph-name="ycircumflex.sc" horiz-adv-x="575" 
d="M496 664l-102 130l-164 -125l-34 40l211 163h1l139 -167zM270 0h-72l39 202l-131 379l74 4l107 -326h2l226 324h78l-285 -392z" />
    <glyph glyph-name="ydieresis.sc" horiz-adv-x="575" 
d="M506 680l-75 -1l35 144l84 2zM289 678l-75 -2l35 144l83 2zM270 0h-72l39 202l-131 379l74 4l107 -326h2l226 324h78l-285 -392z" />
    <glyph glyph-name="ygrave.sc" horiz-adv-x="575" 
d="M460 688l-20 -32q-126 84 -214 175l52 60q85 -115 182 -203zM270 0h-72l39 202l-131 379l74 4l107 -326h2l226 324h78l-285 -392z" />
    <glyph glyph-name="zacute.sc" horiz-adv-x="549" 
d="M245 695q50 34 114.5 89t105.5 99l53 -61q-90 -76 -257 -160zM425 0h-403l11 60l411 463l-315 -2l13 62h393l-10 -60l-409 -463l322 2z" />
    <glyph glyph-name="zcaron.sc" horiz-adv-x="549" 
d="M345 658h-1l-139 167l51 41l103 -130l163 126l34 -40zM425 0h-403l11 60l411 463l-315 -2l13 62h393l-10 -60l-409 -463l322 2z" />
    <glyph glyph-name="zdotaccent.sc" horiz-adv-x="549" 
d="M379 676l-75 -1l35 144l84 1zM425 0h-403l11 60l411 463l-315 -2l13 62h393l-10 -60l-409 -463l322 2z" />
    <glyph glyph-name="ae.sc" horiz-adv-x="857" 
d="M476 522q-156 -193 -239 -299h188l59 299h-8zM382 0l33 170h-219q-35 -44 -132 -170h-80q232 305 463 583h394l-11 -61h-274l-39 -201h234l-11 -53h-233l-40 -208h275l-16 -60h-344z" />
    <glyph glyph-name="aeacute.sc" horiz-adv-x="857" 
d="M483 695q50 34 114.5 89t105.5 99l53 -61q-90 -76 -257 -160zM476 522q-156 -193 -239 -299h188l59 299h-8zM382 0l33 170h-219q-35 -44 -132 -170h-80q232 305 463 583h394l-11 -61h-274l-39 -201h234l-11 -53h-233l-40 -208h275l-16 -60h-344z" />
    <glyph glyph-name="oe.sc" horiz-adv-x="858" 
d="M744 60l-17 -60h-327q-164 0 -248.5 57t-84.5 180q0 74 25 135t77.5 109t141 75t206.5 27h326l-12 -61h-274l-39 -201h234l-10 -53h-234l-40 -208h276zM140 245q0 -97 62.5 -140.5t193.5 -43.5l90 462q-183 -1 -264.5 -76.5t-81.5 -201.5z" />
    <glyph glyph-name="eth.sc" horiz-adv-x="612" 
d="M557 356q0 -84 -31 -153.5t-91 -121t-158 -74t-222 -7.5l53 270h-71l10 53h71l51 258q182 27 285 -30.5t103 -194.5zM320 270h-139l-42 -214q171 -12 258.5 72.5t87.5 219.5q0 101 -65 146.5t-189 34.5l-40 -206h142z" />
    <glyph glyph-name="thorn.sc" horiz-adv-x="550" 
d="M129 0h-73l113 581l72 -1l-17 -88q143 6 212 -38t69 -124q0 -97 -94 -158.5t-264 -77.5zM434 319q0 61 -56 92t-166 20l-52 -271q131 -1 202.5 42.5t71.5 116.5z" />
    <glyph glyph-name="zero.alt" horiz-adv-x="627" 
d="M74 241q0 119 40.5 224.5t113 170.5t159.5 65q89 0 141 -65t52 -188q0 -119 -40.5 -225t-113 -171t-159.5 -65q-89 0 -141 65.5t-52 188.5zM373 638q-92 0 -156 -106.5t-71 -248.5l361 195q-7 79 -42 119.5t-92 40.5zM282 50q93 0 157.5 109.5t69.5 254.5l-363 -194
q6 -84 41.5 -127t94.5 -43z" />
    <glyph glyph-name="colon.alt" horiz-adv-x="333" 
d="M261 495h-102l22 112h101zM178 68h-101l21 112h101z" />
    <glyph glyph-name="ampersand.sc" horiz-adv-x="601" 
d="M507 -19q-76 68 -127 129q-125 -120 -232 -120q-57 0 -89.5 30.5t-32.5 84.5q0 132 219 303v13q0 72 36 127t74 55q22 0 35.5 -13t13.5 -37q0 -73 -96 -163q14 -92 82 -186q46 57 94 146l64 -21q-63 -101 -123 -170q51 -61 135 -132zM168 51q80 0 178 102
q-72 100 -93 196q-158 -139 -158 -229q0 -34 20 -51.5t53 -17.5z" />
    <glyph glyph-name="guillemotleft.cap" horiz-adv-x="755" 
d="M271 55l-189 246l18 83l277 245l45 -55l-281 -237l186 -234zM581 55l-183 243l21 83l279 247l44 -57l-284 -237l180 -232z" />
    <glyph glyph-name="guillemotright.cap" horiz-adv-x="759" 
d="M406 55l-45 55l282 237l-186 234l55 48l190 -246l-19 -83zM85 57l-44 56l285 237l-180 232l56 47l183 -243l-21 -82z" />
    <glyph glyph-name="guilsinglleft.cap" horiz-adv-x="441" 
d="M255 57l-186 249l20 83l283 241l44 -57l-287 -232l182 -237z" />
    <glyph glyph-name="guilsinglright.cap" horiz-adv-x="443" 
d="M82 57l-44 56l287 232l-182 237l56 47l187 -249l-21 -82z" />
    <glyph glyph-name="parenleft.cap" horiz-adv-x="478" 
d="M479 848l39 -52q-194 -133 -276.5 -254.5t-82.5 -252.5q0 -189 193 -413l-56 -42q-205 249 -205 453q0 144 91.5 278.5t296.5 282.5z" />
    <glyph glyph-name="parenright.cap" horiz-adv-x="479" 
d="M10 -176l-38 52q194 133 276.5 254.5t82.5 252.5q0 188 -194 413l56 42q206 -250 206 -453q0 -144 -91.5 -278.5t-297.5 -282.5z" />
    <glyph glyph-name="bracketleft.cap" horiz-adv-x="481" 
d="M34 -144l187 964h311l-12 -60h-242l-164 -844h243l-12 -60h-311z" />
    <glyph glyph-name="bracketright.cap" horiz-adv-x="481" 
d="M474 820l-187 -963h-311l12 60h242l164 843h-243l12 60h311z" />
    <glyph glyph-name="braceleft.cap" horiz-adv-x="496" 
d="M337 -174q-138 68 -195 117t-57 100q0 27 13 52t31.5 43.5t37 35t31.5 34t13 33.5q0 62 -136 79l11 53q169 10 169 80q0 20 -32.5 78.5t-32.5 96.5q0 138 340 226l11 -65q-149 -34 -217 -69t-68 -79q0 -24 33 -84t33 -88q0 -36 -33.5 -70.5t-99.5 -52.5q91 -28 91 -93
q0 -27 -19.5 -54t-42.5 -46t-42.5 -44.5t-19.5 -50.5q0 -39 50 -78.5t165 -95.5z" />
    <glyph glyph-name="braceright.cap" horiz-adv-x="491" 
d="M-24 -174l-11 65q149 33 216.5 69t67.5 79q0 24 -32.5 84t-32.5 88q0 36 33.5 70.5t99.5 52.5q-91 28 -91 93q0 27 19.5 54t42.5 46t42.5 44.5t19.5 50.5q0 39 -50 78.5t-165 95.5l34 58q138 -68 195 -117t57 -100q0 -33 -20 -64t-43.5 -50t-43.5 -41.5t-20 -42.5
q0 -62 137 -79l-11 -53q-170 -10 -170 -80q0 -20 33 -78.5t33 -96.5q0 -138 -340 -226z" />
    <glyph glyph-name="registered.alt" horiz-adv-x="922" 
d="M849 385q0 -123 -59 -220t-155 -148t-209 -51q-151 0 -246.5 89.5t-95.5 248.5q0 122 59 219t155.5 148.5t209.5 51.5q150 0 245.5 -89.5t95.5 -248.5zM506 672q-98 0 -181 -44.5t-134 -128.5t-51 -189q0 -140 80 -216.5t207 -76.5q151 0 259 101.5t108 260.5
q0 140 -80.5 216.5t-207.5 76.5zM549 149l-108 168l1 2q68 30 95.5 53.5t27.5 56.5q0 31 -34.5 46t-101.5 6l-60 -328h-58l73 375q117 18 178.5 -9.5t61.5 -80.5q0 -40 -28.5 -71.5t-88.5 -60.5l101 -149z" />
    <glyph glyph-name="asterisk.alt" horiz-adv-x="599" 
d="M384 607l-39 8l21 151l71 -17zM298 604l-27 -30l-119 93l50 53zM430 533l-13 39l140 57l22 -70zM258 528l13 -39l-141 -57l-21 70zM390 457l27 31l120 -93l-50 -54zM304 454l39 -8l-20 -151l-72 17z" />
    <glyph glyph-name="bullet.alt" horiz-adv-x="544" 
d="M370 217h-222l45 226h222z" />
    <glyph glyph-name="R_p" horiz-adv-x="1080" 
d="M429 -7l-178 314l1 2q124 58 175 105t51 106q0 133 -221 110l-123 -630h-71l132 687q185 24 270.5 -19.5t85.5 -133.5q0 -73 -54 -130t-161 -111l166 -284zM759 47q81 0 139.5 94.5t58.5 213.5q0 65 -22 98.5t-58 33.5q-35 0 -82.5 -31t-88.5 -76q-18 -102 -60 -312
q69 -21 113 -21zM596 -189l-69 -6q112 580 135 732l69 5q-1 -8 -4 -24.5t-6.5 -39.5t-5.5 -38q47 49 97.5 80.5t91.5 31.5q52 0 87 -46.5t35 -133.5q0 -100 -37.5 -187.5t-107 -142t-154.5 -54.5q-36 0 -94 12q-32 -163 -37 -189z" />
    <glyph glyph-name="onehalf.afrc" horiz-adv-x="570" 
d="M480 472h-307l10 53h130l56 287l-123 -7l6 44l128 16l12 62l61 4l-81 -406h121zM69 313l10 51h448l-10 -51h-448zM347 -233h-296l-1 49q150 97 215 154t65 111q0 96 -203 66l9 56q125 19 191 -10t66 -98q0 -67 -59.5 -127t-193.5 -147h219z" />
    <glyph glyph-name="onethird.afrc" horiz-adv-x="570" 
d="M480 472h-307l10 53h130l56 287l-123 -7l6 44l128 16l12 62l61 4l-81 -406h121zM69 313l10 51h448l-10 -51h-448zM370 -110q0 -61 -75 -100t-237 -24l7 57q98 -11 152.5 -2t74 24t19.5 37q0 64 -178 101l4 27l200 142h-206l11 53h270l-6 -53l-196 -140q160 -39 160 -122z
" />
    <glyph glyph-name="twothirds.afrc" horiz-adv-x="570" 
d="M467 472h-296l-1 49q150 97 215 154t65 111q0 96 -203 66l9 56q125 19 191 -10t66 -98q0 -67 -59.5 -127t-193.5 -147h219zM69 313l10 51h448l-10 -51h-448zM370 -110q0 -61 -75 -100t-237 -24l7 57q98 -11 152.5 -2t74 24t19.5 37q0 64 -178 101l4 27l200 142h-206
l11 53h270l-6 -53l-196 -140q160 -39 160 -122z" />
    <glyph glyph-name="onequarter.afrc" horiz-adv-x="570" 
d="M480 472h-307l10 53h130l56 287l-123 -7l6 44l128 16l12 62l61 4l-81 -406h121zM69 313l10 51h448l-10 -51h-448zM385 -141h-52l-18 -92h-56l18 92h-216l4 42q85 141 137 309l64 -3q-55 -164 -140 -295l161 -1l29 147l56 6l-29 -153h57z" />
    <glyph glyph-name="threequarters.afrc" horiz-adv-x="570" 
d="M490 595q0 -61 -75 -100t-237 -24l7 57q98 -11 152.5 -2t74 24t19.5 37q0 64 -178 101l4 27l200 142h-206l11 53h270l-6 -53l-196 -140q160 -39 160 -122zM69 313l10 51h448l-10 -51h-448zM385 -141h-52l-18 -92h-56l18 92h-216l4 42q85 141 137 309l64 -3
q-55 -164 -140 -295l161 -1l29 147l56 6l-29 -153h57z" />
    <glyph glyph-name="onefifth.afrc" horiz-adv-x="570" 
d="M480 472h-307l10 53h130l56 287l-123 -7l6 44l128 16l12 62l61 4l-81 -406h121zM69 313l10 51h448l-10 -51h-448zM373 -95q0 -66 -78 -108.5t-237 -30.5l8 57q90 -8 148.5 2.5t79 29t20.5 43.5q0 68 -200 99l50 208h251l-16 -53h-192l-28 -115q194 -37 194 -132z" />
    <glyph glyph-name="twofifths.afrc" horiz-adv-x="570" 
d="M467 472h-296l-1 49q150 97 215 154t65 111q0 96 -203 66l9 56q125 19 191 -10t66 -98q0 -67 -59.5 -127t-193.5 -147h219zM69 313l10 51h448l-10 -51h-448zM373 -95q0 -66 -78 -108.5t-237 -30.5l8 57q90 -8 148.5 2.5t79 29t20.5 43.5q0 68 -200 99l50 208h251l-16 -53
h-192l-28 -115q194 -37 194 -132z" />
    <glyph glyph-name="threefifths.afrc" horiz-adv-x="570" 
d="M490 595q0 -61 -75 -100t-237 -24l7 57q98 -11 152.5 -2t74 24t19.5 37q0 64 -178 101l4 27l200 142h-206l11 53h270l-6 -53l-196 -140q160 -39 160 -122zM69 313l10 51h448l-10 -51h-448zM373 -95q0 -66 -78 -108.5t-237 -30.5l8 57q90 -8 148.5 2.5t79 29t20.5 43.5
q0 68 -200 99l50 208h251l-16 -53h-192l-28 -115q194 -37 194 -132z" />
    <glyph glyph-name="fourfifths.afrc" horiz-adv-x="570" 
d="M505 564h-52l-18 -92h-56l18 92h-216l4 42q85 141 137 309l64 -3q-55 -164 -140 -295l161 -1l29 147l56 6l-29 -153h57zM69 313l10 51h448l-10 -51h-448zM373 -95q0 -66 -78 -108.5t-237 -30.5l8 57q90 -8 148.5 2.5t79 29t20.5 43.5q0 68 -200 99l50 208h251l-16 -53
h-192l-28 -115q194 -37 194 -132z" />
    <glyph glyph-name="onesixth.afrc" horiz-adv-x="570" 
d="M480 472h-307l10 53h130l56 287l-123 -7l6 44l128 16l12 62l61 4l-81 -406h121zM69 313l10 51h448l-10 -51h-448zM221 -243q-65 0 -106 39t-41 114q0 97 71 181.5t223 127.5l13 -53q-197 -52 -239 -182q54 44 111.5 48.5t94.5 -28.5t37 -90q0 -69 -47 -113t-117 -44z
M230 -194q45 0 71.5 28t26.5 70q0 41 -28 64.5t-74.5 18t-92.5 -42.5q-1 -8 -1 -24q0 -58 28 -86t70 -28z" />
    <glyph glyph-name="fivesixths.afrc" horiz-adv-x="570" 
d="M493 610q0 -66 -78 -108.5t-237 -30.5l8 57q90 -8 148.5 2.5t79 29t20.5 43.5q0 68 -200 99l50 208h251l-16 -53h-192l-28 -115q194 -37 194 -132zM69 313l10 51h448l-10 -51h-448zM221 -243q-65 0 -106 39t-41 114q0 97 71 181.5t223 127.5l13 -53q-197 -52 -239 -182
q54 44 111.5 48.5t94.5 -28.5t37 -90q0 -69 -47 -113t-117 -44zM230 -194q45 0 71.5 28t26.5 70q0 41 -28 64.5t-74.5 18t-92.5 -42.5q-1 -8 -1 -24q0 -58 28 -86t70 -28z" />
    <glyph glyph-name="oneeighth.afrc" horiz-adv-x="570" 
d="M480 472h-307l10 53h130l56 287l-123 -7l6 44l128 16l12 62l61 4l-81 -406h121zM69 313l10 51h448l-10 -51h-448zM361 -127q0 -49 -46 -83t-116 -34q-61 0 -98.5 27t-37.5 71q0 34 27 67t101 80q-65 61 -65 105q0 55 67 87.5t181 14.5l-18 -59q-65 16 -103.5 12t-54 -16
t-15.5 -32q0 -29 58 -83q74 42 158 83l21 -36q-89 -43 -146 -76q87 -77 87 -128zM211 -194q42 0 68 18t26 45q0 15 -13.5 34.5t-27 32t-41.5 36.5q-60 -37 -81 -60.5t-21 -44.5q0 -28 25.5 -44.5t64.5 -16.5z" />
    <glyph glyph-name="threeeighths.afrc" horiz-adv-x="570" 
d="M490 595q0 -61 -75 -100t-237 -24l7 57q98 -11 152.5 -2t74 24t19.5 37q0 64 -178 101l4 27l200 142h-206l11 53h270l-6 -53l-196 -140q160 -39 160 -122zM69 313l10 51h448l-10 -51h-448zM361 -127q0 -49 -46 -83t-116 -34q-61 0 -98.5 27t-37.5 71q0 34 27 67t101 80
q-65 61 -65 105q0 55 67 87.5t181 14.5l-18 -59q-65 16 -103.5 12t-54 -16t-15.5 -32q0 -29 58 -83q74 42 158 83l21 -36q-89 -43 -146 -76q87 -77 87 -128zM211 -194q42 0 68 18t26 45q0 15 -13.5 34.5t-27 32t-41.5 36.5q-60 -37 -81 -60.5t-21 -44.5q0 -28 25.5 -44.5
t64.5 -16.5z" />
    <glyph glyph-name="fiveeighths.afrc" horiz-adv-x="570" 
d="M493 610q0 -66 -78 -108.5t-237 -30.5l8 57q90 -8 148.5 2.5t79 29t20.5 43.5q0 68 -200 99l50 208h251l-16 -53h-192l-28 -115q194 -37 194 -132zM69 313l10 51h448l-10 -51h-448zM361 -127q0 -49 -46 -83t-116 -34q-61 0 -98.5 27t-37.5 71q0 34 27 67t101 80
q-65 61 -65 105q0 55 67 87.5t181 14.5l-18 -59q-65 16 -103.5 12t-54 -16t-15.5 -32q0 -29 58 -83q74 42 158 83l21 -36q-89 -43 -146 -76q87 -77 87 -128zM211 -194q42 0 68 18t26 45q0 15 -13.5 34.5t-27 32t-41.5 36.5q-60 -37 -81 -60.5t-21 -44.5q0 -28 25.5 -44.5
t64.5 -16.5z" />
    <glyph glyph-name="seveneighths.afrc" horiz-adv-x="570" 
d="M282 467l-64 8q117 207 263 379l-1 3h-239l12 54h303l-11 -50q-145 -177 -263 -394zM69 313l10 51h448l-10 -51h-448zM361 -127q0 -49 -46 -83t-116 -34q-61 0 -98.5 27t-37.5 71q0 34 27 67t101 80q-65 61 -65 105q0 55 67 87.5t181 14.5l-18 -59q-65 16 -103.5 12
t-54 -16t-15.5 -32q0 -29 58 -83q74 42 158 83l21 -36q-89 -43 -146 -76q87 -77 87 -128zM211 -194q42 0 68 18t26 45q0 15 -13.5 34.5t-27 32t-41.5 36.5q-60 -37 -81 -60.5t-21 -44.5q0 -28 25.5 -44.5t64.5 -16.5z" />
    <glyph glyph-name="period.tab" horiz-adv-x="446" 
d="M219 0h-102l21 112h101z" />
    <glyph glyph-name="comma.tab" horiz-adv-x="446" 
d="M56 -177q59 65 78 128.5t11 158.5l99 3q-7 -96 -44.5 -167t-114.5 -141z" />
    <glyph glyph-name="colon.tab" horiz-adv-x="446" 
d="M290 427h-102l22 112h101zM207 0h-101l21 112h101z" />
    <glyph glyph-name="semicolon.tab" horiz-adv-x="446" 
d="M292 427h-102l21 112h102zM43 -177q59 65 78 128.5t11 158.5l100 3q-7 -96 -45 -167t-115 -141z" />
    <glyph glyph-name="periodcentered.tab" horiz-adv-x="449" 
d="M268 252h-101l21 112h101z" />
    <glyph glyph-name="slash.tab" 
d="M673 765l-695 -961l-66 15l702 968z" />
    <glyph glyph-name="bar.tab" horiz-adv-x="446" 
d="M289 778h66l-191 -978h-65z" />
    <glyph glyph-name="backslash.tab" 
d="M149 774l61 16l314 -973l-62 -15z" />
    <glyph glyph-name="underscore.tab" 
d="M560 -56l-10 -57h-622l11 57h621z" />
    <glyph glyph-name="hyphen.tab" 
d="M508 354l-11 -62h-361l11 62h361z" />
    <glyph glyph-name="endash.tab" 
d="M558 351l-10 -56h-462l10 56h462z" />
    <glyph glyph-name="A.sc" horiz-adv-x="598" 
d="M424 -3q-3 27 -6.5 58t-8 69t-6.5 59h-231q-32 -61 -94 -183h-73q154 304 310 585h102q54 -360 79 -582zM352 523q-73 -133 -153 -287h197q-24 192 -38 287h-6z" />
    <glyph glyph-name="B.sc" horiz-adv-x="565" 
d="M481 174q0 -42 -23 -77t-73.5 -63t-131.5 -36.5t-197 2.5l113 581q169 23 254 -13t85 -109q0 -55 -41.5 -96.5t-115.5 -61.5q59 -12 94.5 -46t35.5 -81zM438 444q0 47 -53.5 71.5t-152.5 13.5l-43 -217q125 6 187 42t62 90zM410 168q0 51 -57 79.5t-172 21.5l-42 -214
q132 -15 201.5 19t69.5 94z" />
    <glyph glyph-name="C.sc" horiz-adv-x="583" 
d="M381 595q83 0 115 -52.5t29 -162.5l-69 -1q1 83 -17.5 119t-73.5 36q-66 0 -119 -46.5t-80.5 -116.5t-27.5 -146q0 -125 85 -161t249 21l-6 -64q-184 -61 -292.5 -9.5t-108.5 198.5q0 152 93.5 268.5t222.5 116.5z" />
    <glyph glyph-name="D.sc" horiz-adv-x="615" 
d="M557 356q0 -84 -31 -153.5t-91 -121t-158 -74t-222 -7.5l114 581q182 27 285 -30.5t103 -194.5zM485 348q0 101 -65 146.5t-189 34.5l-92 -473q171 -12 258.5 72.5t87.5 219.5z" />
    <glyph glyph-name="E.sc" horiz-adv-x="531" 
d="M416 60l-16 -60h-345l114 583h346l-11 -61h-274l-39 -201h234l-11 -53h-233l-41 -208h276z" />
    <glyph glyph-name="F.sc" horiz-adv-x="513" 
d="M413 256h-234l-50 -256h-73l113 583h349l-11 -61h-277l-41 -212h235z" />
    <glyph glyph-name="G.sc" horiz-adv-x="609" 
d="M435 -103l-66 -1l25 110q-150 -40 -239.5 15t-89.5 189q0 99 42.5 187.5t117 143t160.5 54.5q84 0 118 -51.5t32 -163.5l-69 -1q0 82 -19.5 118.5t-77.5 36.5q-67 0 -121 -46.5t-82 -117t-28 -146.5q0 -112 70 -153.5t200 -7.5l37 163l69 2z" />
    <glyph glyph-name="H.sc" horiz-adv-x="652" 
d="M417 0l52 267h-289l-52 -267h-73l114 583h73l-51 -261h289l51 261h73l-114 -583h-73z" />
    <glyph glyph-name="I.sc" horiz-adv-x="493" 
d="M240 56h135l-14 -56h-336l10 56h132l92 471h-134l11 56h336l-10 -56h-131z" />
    <glyph glyph-name="J.sc" horiz-adv-x="472" 
d="M291 43q-55 -55 -278 -54l11 66q107 -2 152 3.5t62 23.5q13 13 22.5 45t29.5 128l54 272h-183l12 56h253l-62 -319q-23 -120 -37 -159.5t-36 -61.5z" />
    <glyph glyph-name="K.sc" horiz-adv-x="577" 
d="M406 -5l-194 297l290 291h80l-288 -291l190 -287zM169 583h73l-114 -583h-73z" />
    <glyph glyph-name="L.sc" horiz-adv-x="502" 
d="M402 0h-346l113 583h73l-102 -522h275z" />
    <glyph glyph-name="M.sc" horiz-adv-x="738" 
d="M271 585l71 -431h2l240 429h105l-113 -583h-71l101 498h-6l-245 -439l-60 -1l-74 440h-6l-91 -498h-68l113 581z" />
    <glyph glyph-name="N.sc" horiz-adv-x="657" 
d="M416 0l-192 492h-7l-93 -492h-68l113 581l90 3l186 -475h6l90 474h68l-113 -583h-80z" />
    <glyph glyph-name="O.sc" horiz-adv-x="643" 
d="M376 595q93 0 151.5 -63.5t58.5 -171.5q0 -152 -91 -262.5t-220 -110.5q-94 0 -152 63.5t-58 172.5q0 153 91 262.5t220 109.5zM289 48q97 0 160.5 89t63.5 214q0 86 -42.5 135t-108.5 49q-96 0 -160 -89t-64 -214q0 -86 42.5 -135t108.5 -49z" />
    <glyph glyph-name="P.sc" horiz-adv-x="550" 
d="M129 0h-73l113 580q121 16 202.5 -1t116.5 -56t35 -97q0 -97 -94 -158.5t-263 -77.5zM452 415q0 61 -56 92t-165 20l-53 -271q131 -1 202.5 42.5t71.5 116.5z" />
    <glyph glyph-name="Q.sc" horiz-adv-x="611" 
d="M460 -128l-306 121l17 49q142 50 231 144t89 201q0 69 -40 108.5t-110 39.5q-76 0 -127.5 -50.5t-63.5 -140.5t30 -213l-60 -24q-35 73 -42 147t12 134t56 107.5t92.5 73.5t120.5 26q98 0 152 -57t54 -147q0 -111 -84.5 -210t-223.5 -160l229 -89z" />
    <glyph glyph-name="R.sc" horiz-adv-x="579" 
d="M416 -6l-176 267l1 2q112 47 159 86.5t47 89.5q0 51 -55 74.5t-162 13.5l-101 -527h-73l113 581q180 22 265.5 -15.5t85.5 -113.5q0 -62 -49 -110.5t-143 -91.5l166 -244z" />
    <glyph glyph-name="S.sc" horiz-adv-x="516" 
d="M467 434l-65 -13q-17 113 -107 113q-47 0 -78 -30t-31 -71q0 -30 24 -60t58.5 -56.5t69 -53.5t58.5 -60.5t24 -68.5q0 -81 -99.5 -123t-294.5 0l16 69q114 -32 181.5 -28.5t95.5 23t28 52.5q0 32 -36.5 67.5t-80 64.5t-80 73t-36.5 90q0 68 58 119.5t141 51.5
q134 0 154 -159z" />
    <glyph glyph-name="T.sc" horiz-adv-x="535" 
d="M352 522l-101 -522h-72l101 522h-184l11 61h440l-11 -61h-184z" />
    <glyph glyph-name="U.sc" horiz-adv-x="633" 
d="M167 244q-39 -196 116 -196q134 0 165 162l72 373h73l-73 -373q-22 -114 -86 -168t-159 -54q-102 0 -153.5 63.5t-25.5 199.5l65 332h73z" />
    <glyph glyph-name="V.sc" horiz-adv-x="574" 
d="M283 0h-104q-42 283 -70 580l72 5q20 -225 57 -519h10q151 278 265 517h73q-147 -300 -303 -583z" />
    <glyph glyph-name="W.sc" horiz-adv-x="704" 
d="M420 0l-60 321l-182 -321h-83q4 210 53 583h71q-14 -105 -34.5 -280.5t-21.5 -217.5h6l186 333h50l59 -333h5q29 76 141 498h69q-98 -378 -178 -583h-81z" />
    <glyph glyph-name="X.sc" horiz-adv-x="581" 
d="M404 -3l-117 247l-201 -244h-81l253 297l-138 282l76 7l116 -242l196 239h82l-249 -291l139 -289z" />
    <glyph glyph-name="Y.sc" horiz-adv-x="575" 
d="M270 0h-72l39 202l-131 379l74 4l107 -326h2l226 324h78l-285 -392z" />
    <glyph glyph-name="Z.sc" horiz-adv-x="549" 
d="M425 0h-403l11 60l411 463l-315 -2l13 62h393l-10 -60l-409 -463l322 2z" />
    <glyph glyph-name="AE.sc" horiz-adv-x="857" 
d="M476 522q-156 -193 -239 -299h188l59 299h-8zM382 0l33 170h-219q-35 -44 -132 -170h-80q232 305 463 583h394l-11 -61h-274l-39 -201h234l-11 -53h-233l-40 -208h275l-16 -60h-344z" />
    <glyph glyph-name="OE.sc" horiz-adv-x="858" 
d="M744 60l-17 -60h-327q-164 0 -248.5 57t-84.5 180q0 74 25 135t77.5 109t141 75t206.5 27h326l-12 -61h-274l-39 -201h234l-10 -53h-234l-40 -208h276zM140 245q0 -97 62.5 -140.5t193.5 -43.5l90 462q-183 -1 -264.5 -76.5t-81.5 -201.5z" />
    <glyph glyph-name="Thorn.sc" horiz-adv-x="550" 
d="M129 0h-73l113 581l72 -1l-17 -88q143 6 212 -38t69 -124q0 -97 -94 -158.5t-264 -77.5zM434 319q0 61 -56 92t-166 20l-52 -271q131 -1 202.5 42.5t71.5 116.5z" />
    <glyph glyph-name="Eth.sc" horiz-adv-x="612" 
d="M557 356q0 -84 -31 -153.5t-91 -121t-158 -74t-222 -7.5l53 270h-71l10 53h71l51 258q182 27 285 -30.5t103 -194.5zM320 270h-139l-42 -214q171 -12 258.5 72.5t87.5 219.5q0 101 -65 146.5t-189 34.5l-40 -206h142z" />
    <glyph glyph-name="Dcroat.sc" horiz-adv-x="615" 
d="M557 356q0 -84 -31 -153.5t-91 -121t-158 -74t-222 -7.5l53 270h-71l10 53h71l51 258q182 27 285 -30.5t103 -194.5zM320 270h-139l-42 -214q171 -12 258.5 72.5t87.5 219.5q0 101 -65 146.5t-189 34.5l-40 -206h142z" />
    <glyph glyph-name="Hbar.sc" horiz-adv-x="652" 
d="M480 322l19 95h-289l-19 -95h289zM417 0l52 267h-289l-52 -267h-73l81 415h-71l11 56h71l22 112h73l-22 -115h289l22 115h73l-22 -112h69l-11 -56h-69l-81 -415h-73z" />
    <glyph glyph-name="Lslash.sc" horiz-adv-x="502" 
d="M402 0h-346l49 254l-82 -40l-2 60l97 47l51 262h73l-44 -224l156 75l3 -59l-172 -83l-45 -231h275z" />
    <glyph glyph-name="Oslash.sc" horiz-adv-x="643" 
d="M138 232q0 -45 12 -80l321 333q-41 50 -109 50q-96 0 -160 -89t-64 -214zM289 48q97 0 160.5 89t63.5 214q0 47 -14 84l-323 -333q43 -54 113 -54zM275 -13q-93 0 -150 62l-75 -77l-40 36l84 85q-29 55 -29 130q0 153 91 262.5t220 109.5q89 0 146 -57l73 75l40 -36
l-81 -82q32 -56 32 -135q0 -152 -91 -262.5t-220 -110.5z" />
    <glyph glyph-name="Ccedilla.sc" horiz-adv-x="583" 
d="M347 -189l-65 -1q10 148 -43 148q-44 0 -95 -117l-39 13q43 114 96 146q-136 44 -136 210q0 152 93.5 268.5t222.5 116.5q83 0 115 -52.5t29 -162.5l-69 -1q1 83 -17.5 119t-73.5 36q-66 0 -119 -46.5t-80.5 -116.5t-27.5 -146q0 -125 85 -161t249 21l-6 -64
q-89 -29 -159 -32q49 -50 40 -178z" />
    <glyph glyph-name="Scedilla.sc" horiz-adv-x="516" 
d="M234 -190q10 148 -43 148q-44 0 -95 -117l-39 13q40 103 86 139q-53 5 -117 18l16 69q114 -32 181.5 -28.5t95.5 23t28 52.5q0 32 -36.5 67.5t-80 64.5t-80 73t-36.5 90q0 68 58 119.5t141 51.5q134 0 154 -159l-65 -13q-17 113 -107 113q-47 0 -78 -30t-31 -71
q0 -30 24 -60t58.5 -56.5t69 -53.5t58.5 -60.5t24 -68.5q0 -51 -42 -89.5t-125 -49.5q56 -47 46 -184z" />
    <glyph glyph-name="Aogonek.sc" horiz-adv-x="598" 
d="M464 -180q-54 -30 -98.5 -41t-72 -3.5t-42.5 25.5t-15 43q0 87 186 171q-3 25 -9.5 81.5t-9.5 86.5h-231q-32 -61 -94 -183h-73q154 304 310 585h102q54 -360 79 -582q-98 -36 -145.5 -71.5t-47.5 -66.5q0 -20 14.5 -30t49.5 -6.5t87 25.5zM352 523q-73 -133 -153 -287
h197q-24 192 -38 287h-6z" />
    <glyph glyph-name="Eogonek.sc" horiz-adv-x="531" 
d="M368 -183q-54 -30 -98.5 -41t-72 -3.5t-42.5 25.5t-15 43q0 81 161 159h-246l114 583h346l-11 -61h-274l-39 -201h234l-11 -53h-233l-41 -208h276l-16 -60q-98 -36 -145.5 -71.5t-47.5 -66.5q0 -20 14.5 -30t49.5 -6.5t87 25.5z" />
    <glyph glyph-name="Iogonek.sc" horiz-adv-x="493" 
d="M274 -182q-69 -39 -122.5 -45t-79.5 14.5t-26 56.5q0 78 113 156h-134l10 56h132l92 471h-134l11 56h336l-10 -56h-131l-91 -471h135l-14 -56h-127q-60 -33 -91 -69.5t-31 -67.5q0 -21 16 -31t51 -6t84 26z" />
    <glyph glyph-name="Uogonek.sc" horiz-adv-x="633" 
d="M363 -182q-53 -30 -97.5 -41t-71 -3.5t-41 25.5t-14.5 43q0 71 132 146q-101 2 -151 65t-24 198l65 332h73l-67 -339q-39 -196 116 -196q134 0 165 162l72 373h73l-73 -373q-15 -81 -49.5 -127.5t-99.5 -81.5q-85 -43 -125 -74.5t-40 -65.5q0 -20 13.5 -29.5t47.5 -5.5
t86 26z" />
    <glyph glyph-name="Aring.sc" horiz-adv-x="598" 
d="M409 880q55 0 89.5 -29.5t34.5 -75.5q0 -52 -41 -88t-102 -36q-54 0 -88 30t-34 76q0 52 40 87.5t101 35.5zM404 833q-35 0 -58 -20.5t-23 -50.5q0 -27 20.5 -45t53.5 -18q34 0 57.5 20.5t23.5 49.5q0 28 -21 46t-53 18zM424 -3q-3 27 -6.5 58t-8 69t-6.5 59h-231
q-32 -61 -94 -183h-73q154 304 310 585h102q54 -360 79 -582zM352 523q-73 -133 -153 -287h197q-24 192 -38 287h-6z" />
    <glyph glyph-name="Aringacute.sc" horiz-adv-x="598" 
d="M331 963q50 34 114.5 89t105.5 99l53 -61q-90 -76 -257 -160zM409 880q55 0 89.5 -29.5t34.5 -75.5q0 -52 -41 -88t-102 -36q-54 0 -88 30t-34 76q0 52 40 87.5t101 35.5zM404 833q-35 0 -58 -20.5t-23 -50.5q0 -27 20.5 -45t53.5 -18q34 0 57.5 20.5t23.5 49.5
q0 28 -21 46t-53 18zM424 -3q-3 27 -6.5 58t-8 69t-6.5 59h-231q-32 -61 -94 -183h-73q154 304 310 585h102q54 -360 79 -582zM352 523q-73 -133 -153 -287h197q-24 192 -38 287h-6z" />
    <glyph glyph-name="Ldot.sc" horiz-adv-x="502" 
d="M402 0h-346l113 583h73l-102 -522h275zM429 260h-89l21 108h90z" />
    <glyph glyph-name="Aacute.sc" horiz-adv-x="598" 
d="M279 698q50 34 114.5 89t105.5 99l53 -61q-90 -76 -257 -160zM424 -3q-3 27 -6.5 58t-8 69t-6.5 59h-231q-32 -61 -94 -183h-73q154 304 310 585h102q54 -360 79 -582zM352 523q-73 -133 -153 -287h197q-24 192 -38 287h-6z" />
    <glyph glyph-name="Agrave.sc" horiz-adv-x="598" 
d="M476 689l-20 -32q-126 84 -214 175l52 60q85 -115 182 -203zM424 -3q-3 27 -6.5 58t-8 69t-6.5 59h-231q-32 -61 -94 -183h-73q154 304 310 585h102q54 -360 79 -582zM352 523q-73 -133 -153 -287h197q-24 192 -38 287h-6z" />
    <glyph glyph-name="Acircumflex.sc" horiz-adv-x="598" 
d="M512 665l-102 130l-164 -125l-34 40l211 163h1l139 -167zM424 -3q-3 27 -6.5 58t-8 69t-6.5 59h-231q-32 -61 -94 -183h-73q154 304 310 585h102q54 -360 79 -582zM352 523q-73 -133 -153 -287h197q-24 192 -38 287h-6z" />
    <glyph glyph-name="Abreve.sc" horiz-adv-x="598" 
d="M560 859l42 -28q-114 -158 -217 -158q-102 0 -158 161l56 30q26 -71 53 -101t65 -30q37 0 73 30t86 96zM424 -3q-3 27 -6.5 58t-8 69t-6.5 59h-231q-32 -61 -94 -183h-73q154 304 310 585h102q54 -360 79 -582zM352 523q-73 -133 -153 -287h197q-24 192 -38 287h-6z" />
    <glyph glyph-name="Atilde.sc" horiz-adv-x="598" 
d="M475 734q33 0 100 114l37 -23q-83 -149 -153 -149q-23 0 -43 18.5t-32 40.5t-27.5 40.5t-30.5 18.5q-36 0 -100 -109l-37 23q81 144 154 144q23 0 43 -18.5t32 -40.5t27 -40.5t30 -18.5zM424 -3q-3 27 -6.5 58t-8 69t-6.5 59h-231q-32 -61 -94 -183h-73q154 304 310 585
h102q54 -360 79 -582zM352 523q-73 -133 -153 -287h197q-24 192 -38 287h-6z" />
    <glyph glyph-name="Adieresis.sc" horiz-adv-x="598" 
d="M522 681l-75 -1l35 144l84 2zM305 679l-75 -2l35 144l83 2zM424 -3q-3 27 -6.5 58t-8 69t-6.5 59h-231q-32 -61 -94 -183h-73q154 304 310 585h102q54 -360 79 -582zM352 523q-73 -133 -153 -287h197q-24 192 -38 287h-6z" />
    <glyph glyph-name="Amacron.sc" horiz-adv-x="598" 
d="M571 785l-12 -63h-334l13 63h333zM424 -3q-3 27 -6.5 58t-8 69t-6.5 59h-231q-32 -61 -94 -183h-73q154 304 310 585h102q54 -360 79 -582zM352 523q-73 -133 -153 -287h197q-24 192 -38 287h-6z" />
    <glyph glyph-name="Cacute.sc" horiz-adv-x="583" 
d="M297 708q50 34 114.5 89t105.5 99l53 -61q-90 -76 -257 -160zM381 595q83 0 115 -52.5t29 -162.5l-69 -1q1 83 -17.5 119t-73.5 36q-66 0 -119 -46.5t-80.5 -116.5t-27.5 -146q0 -125 85 -161t249 21l-6 -64q-184 -61 -292.5 -9.5t-108.5 198.5q0 152 93.5 268.5
t222.5 116.5z" />
    <glyph glyph-name="Ccaron.sc" horiz-adv-x="583" 
d="M397 671h-1l-139 167l51 41l103 -130l163 126l34 -40zM381 595q83 0 115 -52.5t29 -162.5l-69 -1q1 83 -17.5 119t-73.5 36q-66 0 -119 -46.5t-80.5 -116.5t-27.5 -146q0 -125 85 -161t249 21l-6 -64q-184 -61 -292.5 -9.5t-108.5 198.5q0 152 93.5 268.5t222.5 116.5z
" />
    <glyph glyph-name="Cdotaccent.sc" horiz-adv-x="583" 
d="M431 689l-75 -1l35 144l84 1zM381 595q83 0 115 -52.5t29 -162.5l-69 -1q1 83 -17.5 119t-73.5 36q-66 0 -119 -46.5t-80.5 -116.5t-27.5 -146q0 -125 85 -161t249 21l-6 -64q-184 -61 -292.5 -9.5t-108.5 198.5q0 152 93.5 268.5t222.5 116.5z" />
    <glyph glyph-name="Dcaron.sc" horiz-adv-x="615" 
d="M371 665h-1l-139 167l51 41l103 -130l163 126l34 -40zM557 356q0 -84 -31 -153.5t-91 -121t-158 -74t-222 -7.5l114 581q182 27 285 -30.5t103 -194.5zM485 348q0 101 -65 146.5t-189 34.5l-92 -473q171 -12 258.5 72.5t87.5 219.5z" />
    <glyph glyph-name="Eacute.sc" horiz-adv-x="531" 
d="M255 695q50 34 114.5 89t105.5 99l53 -61q-90 -76 -257 -160zM416 60l-16 -60h-345l114 583h346l-11 -61h-274l-39 -201h234l-11 -53h-233l-41 -208h276z" />
    <glyph glyph-name="Egrave.sc" horiz-adv-x="531" 
d="M452 686l-20 -32q-126 84 -214 175l52 60q85 -115 182 -203zM416 60l-16 -60h-345l114 583h346l-11 -61h-274l-39 -201h234l-11 -53h-233l-41 -208h276z" />
    <glyph glyph-name="Ecircumflex.sc" horiz-adv-x="531" 
d="M488 662l-102 130l-164 -125l-34 40l211 163h1l139 -167zM416 60l-16 -60h-345l114 583h346l-11 -61h-274l-39 -201h234l-11 -53h-233l-41 -208h276z" />
    <glyph glyph-name="Ecaron.sc" horiz-adv-x="531" 
d="M355 658h-1l-139 167l51 41l103 -130l163 126l34 -40zM416 60l-16 -60h-345l114 583h346l-11 -61h-274l-39 -201h234l-11 -53h-233l-41 -208h276z" />
    <glyph glyph-name="Ebreve.sc" horiz-adv-x="531" 
d="M536 856l42 -28q-114 -158 -217 -158q-102 0 -158 161l56 30q26 -71 53 -101t65 -30q37 0 73 30t86 96zM416 60l-16 -60h-345l114 583h346l-11 -61h-274l-39 -201h234l-11 -53h-233l-41 -208h276z" />
    <glyph glyph-name="Emacron.sc" horiz-adv-x="531" 
d="M547 782l-12 -63h-334l13 63h333zM416 60l-16 -60h-345l114 583h346l-11 -61h-274l-39 -201h234l-11 -53h-233l-41 -208h276z" />
    <glyph glyph-name="Edieresis.sc" horiz-adv-x="531" 
d="M498 678l-75 -1l35 144l84 2zM281 676l-75 -2l35 144l83 2zM416 60l-16 -60h-345l114 583h346l-11 -61h-274l-39 -201h234l-11 -53h-233l-41 -208h276z" />
    <glyph glyph-name="Edotaccent.sc" horiz-adv-x="531" 
d="M389 676l-75 -1l35 144l84 1zM416 60l-16 -60h-345l114 583h346l-11 -61h-274l-39 -201h234l-11 -53h-233l-41 -208h276z" />
    <glyph glyph-name="Gbreve.sc" horiz-adv-x="609" 
d="M580 869l42 -28q-114 -158 -217 -158q-102 0 -158 161l56 30q26 -71 53 -101t65 -30q37 0 73 30t86 96zM435 -103l-66 -1l25 110q-150 -40 -239.5 15t-89.5 189q0 99 42.5 187.5t117 143t160.5 54.5q84 0 118 -51.5t32 -163.5l-69 -1q0 82 -19.5 118.5t-77.5 36.5
q-67 0 -121 -46.5t-82 -117t-28 -146.5q0 -112 70 -153.5t200 -7.5l37 163l69 2z" />
    <glyph glyph-name="Gdotaccent.sc" horiz-adv-x="609" 
d="M433 689l-75 -1l35 144l84 1zM435 -103l-66 -1l25 110q-150 -40 -239.5 15t-89.5 189q0 99 42.5 187.5t117 143t160.5 54.5q84 0 118 -51.5t32 -163.5l-69 -1q0 82 -19.5 118.5t-77.5 36.5q-67 0 -121 -46.5t-82 -117t-28 -146.5q0 -112 70 -153.5t200 -7.5l37 163l69 2z
" />
    <glyph glyph-name="Gcommaaccent.sc" horiz-adv-x="609" 
d="M435 -103l-66 -1l25 110q-150 -40 -239.5 15t-89.5 189q0 99 42.5 187.5t117 143t160.5 54.5q84 0 118 -51.5t32 -163.5l-69 -1q0 82 -19.5 118.5t-77.5 36.5q-67 0 -121 -46.5t-82 -117t-28 -146.5q0 -112 70 -153.5t200 -7.5l37 163l69 2zM147 -372q60 93 43 206l94 3
q-2 -56 -29.5 -114.5t-78.5 -108.5z" />
    <glyph glyph-name="Iacute.sc" horiz-adv-x="493" 
d="M221 695q50 34 114.5 89t105.5 99l53 -61q-90 -76 -257 -160zM240 56h135l-14 -56h-336l10 56h132l92 471h-134l11 56h336l-10 -56h-131z" />
    <glyph glyph-name="Igrave.sc" horiz-adv-x="493" 
d="M418 686l-20 -32q-126 84 -214 175l52 60q85 -115 182 -203zM240 56h135l-14 -56h-336l10 56h132l92 471h-134l11 56h336l-10 -56h-131z" />
    <glyph glyph-name="Icircumflex.sc" horiz-adv-x="493" 
d="M454 662l-102 130l-164 -125l-34 40l211 163h1l139 -167zM240 56h135l-14 -56h-336l10 56h132l92 471h-134l11 56h336l-10 -56h-131z" />
    <glyph glyph-name="Ibreve.sc" horiz-adv-x="493" 
d="M501 856l42 -28q-114 -158 -217 -158q-102 0 -158 161l56 30q26 -71 53 -101t65 -30q37 0 73 30t86 96zM240 56h135l-14 -56h-336l10 56h132l92 471h-134l11 56h336l-10 -56h-131z" />
    <glyph glyph-name="Imacron.sc" horiz-adv-x="493" 
d="M512 782l-12 -63h-334l13 63h333zM240 56h135l-14 -56h-336l10 56h132l92 471h-134l11 56h336l-10 -56h-131z" />
    <glyph glyph-name="Idieresis.sc" horiz-adv-x="493" 
d="M463 678l-75 -1l35 144l84 2zM246 676l-75 -2l35 144l83 2zM240 56h135l-14 -56h-336l10 56h132l92 471h-134l11 56h336l-10 -56h-131z" />
    <glyph glyph-name="Idotaccent.sc" horiz-adv-x="493" 
d="M355 676l-75 -1l35 144l84 1zM240 56h135l-14 -56h-336l10 56h132l92 471h-134l11 56h336l-10 -56h-131z" />
    <glyph glyph-name="Kcommaaccent.sc" horiz-adv-x="577" 
d="M406 -5l-194 297l290 291h80l-288 -291l190 -287zM169 583h73l-114 -583h-73zM145 -292q60 93 43 206l94 3q-2 -56 -29.5 -114.5t-78.5 -108.5z" />
    <glyph glyph-name="Lacute.sc" horiz-adv-x="502" 
d="M239 695q50 34 114.5 89t105.5 99l53 -61q-90 -76 -257 -160zM402 0h-346l113 583h73l-102 -522h275z" />
    <glyph glyph-name="Lcaron.sc" horiz-adv-x="502" 
d="M424 717l86 5q-6 -148 -112 -278l-31 16q39 68 50 126.5t7 130.5zM402 0h-346l113 583h73l-102 -522h275z" />
    <glyph glyph-name="Lcommaaccent.sc" horiz-adv-x="502" 
d="M402 0h-346l113 583h73l-102 -522h275zM116 -287q60 93 43 206l94 3q-2 -56 -29.5 -114.5t-78.5 -108.5z" />
    <glyph glyph-name="Nacute.sc" horiz-adv-x="657" 
d="M302 696q50 34 114.5 89t105.5 99l53 -61q-90 -76 -257 -160zM416 0l-192 492h-7l-93 -492h-68l113 581l90 3l186 -475h6l90 474h68l-113 -583h-80z" />
    <glyph glyph-name="Ncaron.sc" horiz-adv-x="657" 
d="M402 659h-1l-139 167l51 41l103 -130l163 126l34 -40zM416 0l-192 492h-7l-93 -492h-68l113 581l90 3l186 -475h6l90 474h68l-113 -583h-80z" />
    <glyph glyph-name="Ntilde.sc" horiz-adv-x="657" 
d="M498 732q33 0 100 114l37 -23q-83 -149 -153 -149q-23 0 -43 18.5t-32 40.5t-27.5 40.5t-30.5 18.5q-36 0 -100 -109l-37 23q81 144 154 144q23 0 43 -18.5t32 -40.5t27 -40.5t30 -18.5zM416 0l-192 492h-7l-93 -492h-68l113 581l90 3l186 -475h6l90 474h68l-113 -583
h-80z" />
    <glyph glyph-name="Ncommaaccent.sc" horiz-adv-x="657" 
d="M416 0l-192 492h-7l-93 -492h-68l113 581l90 3l186 -475h6l90 474h68l-113 -583h-80zM169 -287q60 93 43 206l94 3q-2 -56 -29.5 -114.5t-78.5 -108.5z" />
    <glyph glyph-name="Oacute.sc" horiz-adv-x="643" 
d="M302 708q50 34 114.5 89t105.5 99l53 -61q-90 -76 -257 -160zM376 595q93 0 151.5 -63.5t58.5 -171.5q0 -152 -91 -262.5t-220 -110.5q-94 0 -152 63.5t-58 172.5q0 153 91 262.5t220 109.5zM289 48q97 0 160.5 89t63.5 214q0 86 -42.5 135t-108.5 49q-96 0 -160 -89
t-64 -214q0 -86 42.5 -135t108.5 -49z" />
    <glyph glyph-name="Ohungarumlaut.sc" horiz-adv-x="643" 
d="M274 676l-32 27q76 91 143 212l71 -39q-76 -103 -182 -200zM486 676l-33 26q72 87 141 209l73 -35q-32 -45 -83.5 -101.5t-97.5 -98.5zM376 595q93 0 151.5 -63.5t58.5 -171.5q0 -152 -91 -262.5t-220 -110.5q-94 0 -152 63.5t-58 172.5q0 153 91 262.5t220 109.5z
M289 48q97 0 160.5 89t63.5 214q0 86 -42.5 135t-108.5 49q-96 0 -160 -89t-64 -214q0 -86 42.5 -135t108.5 -49z" />
    <glyph glyph-name="Ograve.sc" horiz-adv-x="643" 
d="M499 699l-20 -32q-126 84 -214 175l52 60q85 -115 182 -203zM376 595q93 0 151.5 -63.5t58.5 -171.5q0 -152 -91 -262.5t-220 -110.5q-94 0 -152 63.5t-58 172.5q0 153 91 262.5t220 109.5zM289 48q97 0 160.5 89t63.5 214q0 86 -42.5 135t-108.5 49q-96 0 -160 -89
t-64 -214q0 -86 42.5 -135t108.5 -49z" />
    <glyph glyph-name="Ocircumflex.sc" horiz-adv-x="643" 
d="M535 675l-102 130l-164 -125l-34 40l211 163h1l139 -167zM376 595q93 0 151.5 -63.5t58.5 -171.5q0 -152 -91 -262.5t-220 -110.5q-94 0 -152 63.5t-58 172.5q0 153 91 262.5t220 109.5zM289 48q97 0 160.5 89t63.5 214q0 86 -42.5 135t-108.5 49q-96 0 -160 -89
t-64 -214q0 -86 42.5 -135t108.5 -49z" />
    <glyph glyph-name="Obreve.sc" horiz-adv-x="643" 
d="M582 869l42 -28q-114 -158 -217 -158q-102 0 -158 161l56 30q26 -71 53 -101t65 -30q37 0 73 30t86 96zM376 595q93 0 151.5 -63.5t58.5 -171.5q0 -152 -91 -262.5t-220 -110.5q-94 0 -152 63.5t-58 172.5q0 153 91 262.5t220 109.5zM289 48q97 0 160.5 89t63.5 214
q0 86 -42.5 135t-108.5 49q-96 0 -160 -89t-64 -214q0 -86 42.5 -135t108.5 -49z" />
    <glyph glyph-name="Omacron.sc" horiz-adv-x="643" 
d="M593 795l-12 -63h-334l13 63h333zM376 595q93 0 151.5 -63.5t58.5 -171.5q0 -152 -91 -262.5t-220 -110.5q-94 0 -152 63.5t-58 172.5q0 153 91 262.5t220 109.5zM289 48q97 0 160.5 89t63.5 214q0 86 -42.5 135t-108.5 49q-96 0 -160 -89t-64 -214q0 -86 42.5 -135
t108.5 -49z" />
    <glyph glyph-name="Odieresis.sc" horiz-adv-x="643" 
d="M545 691l-75 -1l35 144l84 2zM328 689l-75 -2l35 144l83 2zM376 595q93 0 151.5 -63.5t58.5 -171.5q0 -152 -91 -262.5t-220 -110.5q-94 0 -152 63.5t-58 172.5q0 153 91 262.5t220 109.5zM289 48q97 0 160.5 89t63.5 214q0 86 -42.5 135t-108.5 49q-96 0 -160 -89
t-64 -214q0 -86 42.5 -135t108.5 -49z" />
    <glyph glyph-name="Otilde.sc" horiz-adv-x="643" 
d="M498 744q33 0 100 114l37 -23q-83 -149 -153 -149q-23 0 -43 18.5t-32 40.5t-27.5 40.5t-30.5 18.5q-36 0 -100 -109l-37 23q81 144 154 144q23 0 43 -18.5t32 -40.5t27 -40.5t30 -18.5zM376 595q93 0 151.5 -63.5t58.5 -171.5q0 -152 -91 -262.5t-220 -110.5
q-94 0 -152 63.5t-58 172.5q0 153 91 262.5t220 109.5zM289 48q97 0 160.5 89t63.5 214q0 86 -42.5 135t-108.5 49q-96 0 -160 -89t-64 -214q0 -86 42.5 -135t108.5 -49z" />
    <glyph glyph-name="Oslashacute.sc" horiz-adv-x="643" 
d="M294 710q50 34 114.5 89t105.5 99l53 -61q-90 -76 -257 -160zM138 232q0 -45 12 -80l321 333q-41 50 -109 50q-96 0 -160 -89t-64 -214zM289 48q97 0 160.5 89t63.5 214q0 47 -14 84l-323 -333q43 -54 113 -54zM275 -13q-93 0 -150 62l-75 -77l-40 36l84 85
q-29 55 -29 130q0 153 91 262.5t220 109.5q89 0 146 -57l73 75l40 -36l-81 -82q32 -56 32 -135q0 -152 -91 -262.5t-220 -110.5z" />
    <glyph glyph-name="Racute.sc" horiz-adv-x="579" 
d="M261 701q50 34 114.5 89t105.5 99l53 -61q-90 -76 -257 -160zM416 -6l-176 267l1 2q112 47 159 86.5t47 89.5q0 51 -55 74.5t-162 13.5l-101 -527h-73l113 581q180 22 265.5 -15.5t85.5 -113.5q0 -62 -49 -110.5t-143 -91.5l166 -244z" />
    <glyph glyph-name="Rcaron.sc" horiz-adv-x="579" 
d="M361 664h-1l-139 167l51 41l103 -130l163 126l34 -40zM416 -6l-176 267l1 2q112 47 159 86.5t47 89.5q0 51 -55 74.5t-162 13.5l-101 -527h-73l113 581q180 22 265.5 -15.5t85.5 -113.5q0 -62 -49 -110.5t-143 -91.5l166 -244z" />
    <glyph glyph-name="Rcommaaccent.sc" horiz-adv-x="579" 
d="M416 -6l-176 267l1 2q112 47 159 86.5t47 89.5q0 51 -55 74.5t-162 13.5l-101 -527h-73l113 581q180 22 265.5 -15.5t85.5 -113.5q0 -62 -49 -110.5t-143 -91.5l166 -244zM157 -293q60 93 43 206l94 3q-2 -56 -29.5 -114.5t-78.5 -108.5z" />
    <glyph glyph-name="Sacute.sc" horiz-adv-x="516" 
d="M240 706q50 34 114.5 89t105.5 99l53 -61q-90 -76 -257 -160zM467 434l-65 -13q-17 113 -107 113q-47 0 -78 -30t-31 -71q0 -30 24 -60t58.5 -56.5t69 -53.5t58.5 -60.5t24 -68.5q0 -81 -99.5 -123t-294.5 0l16 69q114 -32 181.5 -28.5t95.5 23t28 52.5q0 32 -36.5 67.5
t-80 64.5t-80 73t-36.5 90q0 68 58 119.5t141 51.5q134 0 154 -159z" />
    <glyph glyph-name="Scaron.sc" horiz-adv-x="516" 
d="M340 669h-1l-139 167l51 41l103 -130l163 126l34 -40zM467 434l-65 -13q-17 113 -107 113q-47 0 -78 -30t-31 -71q0 -30 24 -60t58.5 -56.5t69 -53.5t58.5 -60.5t24 -68.5q0 -81 -99.5 -123t-294.5 0l16 69q114 -32 181.5 -28.5t95.5 23t28 52.5q0 32 -36.5 67.5
t-80 64.5t-80 73t-36.5 90q0 68 58 119.5t141 51.5q134 0 154 -159z" />
    <glyph glyph-name="Scommaaccent.sc" horiz-adv-x="516" 
d="M467 434l-65 -13q-17 113 -107 113q-47 0 -78 -30t-31 -71q0 -30 24 -60t58.5 -56.5t69 -53.5t58.5 -60.5t24 -68.5q0 -81 -99.5 -123t-294.5 0l16 69q114 -32 181.5 -28.5t95.5 23t28 52.5q0 32 -36.5 67.5t-80 64.5t-80 73t-36.5 90q0 68 58 119.5t141 51.5
q134 0 154 -159zM96 -296q60 93 43 206l94 3q-2 -56 -29.5 -114.5t-78.5 -108.5z" />
    <glyph glyph-name="Tcaron.sc" horiz-adv-x="535" 
d="M342 658h-1l-139 167l51 41l103 -130l163 126l34 -40zM352 522l-101 -522h-72l101 522h-184l11 61h440l-11 -61h-184z" />
    <glyph glyph-name="Tcommaaccent.sc" horiz-adv-x="535" 
d="M352 522l-101 -522h-72l101 522h-184l11 61h440l-11 -61h-184zM109 -287q60 93 43 206l94 3q-2 -56 -29.5 -114.5t-78.5 -108.5z" />
    <glyph glyph-name="Uacute.sc" horiz-adv-x="633" 
d="M296 695q50 34 114.5 89t105.5 99l53 -61q-90 -76 -257 -160zM167 244q-39 -196 116 -196q134 0 165 162l72 373h73l-73 -373q-22 -114 -86 -168t-159 -54q-102 0 -153.5 63.5t-25.5 199.5l65 332h73z" />
    <glyph glyph-name="Uhungarumlaut.sc" horiz-adv-x="633" 
d="M268 663l-32 27q76 91 143 212l71 -39q-76 -103 -182 -200zM480 663l-33 26q72 87 141 209l73 -35q-32 -45 -83.5 -101.5t-97.5 -98.5zM167 244q-39 -196 116 -196q134 0 165 162l72 373h73l-73 -373q-22 -114 -86 -168t-159 -54q-102 0 -153.5 63.5t-25.5 199.5l65 332
h73z" />
    <glyph glyph-name="Ugrave.sc" horiz-adv-x="633" 
d="M493 686l-20 -32q-126 84 -214 175l52 60q85 -115 182 -203zM167 244q-39 -196 116 -196q134 0 165 162l72 373h73l-73 -373q-22 -114 -86 -168t-159 -54q-102 0 -153.5 63.5t-25.5 199.5l65 332h73z" />
    <glyph glyph-name="Ucircumflex.sc" horiz-adv-x="633" 
d="M529 662l-102 130l-164 -125l-34 40l211 163h1l139 -167zM167 244q-39 -196 116 -196q134 0 165 162l72 373h73l-73 -373q-22 -114 -86 -168t-159 -54q-102 0 -153.5 63.5t-25.5 199.5l65 332h73z" />
    <glyph glyph-name="Ubreve.sc" horiz-adv-x="633" 
d="M576 856l42 -28q-114 -158 -217 -158q-102 0 -158 161l56 30q26 -71 53 -101t65 -30q37 0 73 30t86 96zM167 244q-39 -196 116 -196q134 0 165 162l72 373h73l-73 -373q-22 -114 -86 -168t-159 -54q-102 0 -153.5 63.5t-25.5 199.5l65 332h73z" />
    <glyph glyph-name="Umacron.sc" horiz-adv-x="633" 
d="M587 782l-12 -63h-334l13 63h333zM167 244q-39 -196 116 -196q134 0 165 162l72 373h73l-73 -373q-22 -114 -86 -168t-159 -54q-102 0 -153.5 63.5t-25.5 199.5l65 332h73z" />
    <glyph glyph-name="Udieresis.sc" horiz-adv-x="633" 
d="M539 678l-75 -1l35 144l84 2zM322 676l-75 -2l35 144l83 2zM167 244q-39 -196 116 -196q134 0 165 162l72 373h73l-73 -373q-22 -114 -86 -168t-159 -54q-102 0 -153.5 63.5t-25.5 199.5l65 332h73z" />
    <glyph glyph-name="Uring.sc" horiz-adv-x="633" 
d="M426 877q55 0 89.5 -29.5t34.5 -75.5q0 -52 -41 -88t-102 -36q-54 0 -88 30t-34 76q0 52 40 87.5t101 35.5zM421 830q-35 0 -58 -20.5t-23 -50.5q0 -27 20.5 -45t53.5 -18q34 0 57.5 20.5t23.5 49.5q0 28 -21 46t-53 18zM167 244q-39 -196 116 -196q134 0 165 162l72 373
h73l-73 -373q-22 -114 -86 -168t-159 -54q-102 0 -153.5 63.5t-25.5 199.5l65 332h73z" />
    <glyph glyph-name="Wacute.sc" horiz-adv-x="704" 
d="M328 695q50 34 114.5 89t105.5 99l53 -61q-90 -76 -257 -160zM420 0l-60 321l-182 -321h-83q4 210 53 583h71q-14 -105 -34.5 -280.5t-21.5 -217.5h6l186 333h50l59 -333h5q29 76 141 498h69q-98 -378 -178 -583h-81z" />
    <glyph glyph-name="Wgrave.sc" horiz-adv-x="704" 
d="M525 686l-20 -32q-126 84 -214 175l52 60q85 -115 182 -203zM420 0l-60 321l-182 -321h-83q4 210 53 583h71q-14 -105 -34.5 -280.5t-21.5 -217.5h6l186 333h50l59 -333h5q29 76 141 498h69q-98 -378 -178 -583h-81z" />
    <glyph glyph-name="Wcircumflex.sc" horiz-adv-x="704" 
d="M561 662l-102 130l-164 -125l-34 40l211 163h1l139 -167zM420 0l-60 321l-182 -321h-83q4 210 53 583h71q-14 -105 -34.5 -280.5t-21.5 -217.5h6l186 333h50l59 -333h5q29 76 141 498h69q-98 -378 -178 -583h-81z" />
    <glyph glyph-name="Wdieresis.sc" horiz-adv-x="704" 
d="M571 678l-75 -1l35 144l84 2zM354 676l-75 -2l35 144l83 2zM420 0l-60 321l-182 -321h-83q4 210 53 583h71q-14 -105 -34.5 -280.5t-21.5 -217.5h6l186 333h50l59 -333h5q29 76 141 498h69q-98 -378 -178 -583h-81z" />
    <glyph glyph-name="Yacute.sc" horiz-adv-x="575" 
d="M263 697q50 34 114.5 89t105.5 99l53 -61q-90 -76 -257 -160zM270 0h-72l39 202l-131 379l74 4l107 -326h2l226 324h78l-285 -392z" />
    <glyph glyph-name="Ygrave.sc" horiz-adv-x="575" 
d="M460 688l-20 -32q-126 84 -214 175l52 60q85 -115 182 -203zM270 0h-72l39 202l-131 379l74 4l107 -326h2l226 324h78l-285 -392z" />
    <glyph glyph-name="Ycircumflex.sc" horiz-adv-x="575" 
d="M496 664l-102 130l-164 -125l-34 40l211 163h1l139 -167zM270 0h-72l39 202l-131 379l74 4l107 -326h2l226 324h78l-285 -392z" />
    <glyph glyph-name="Ydieresis.sc" horiz-adv-x="575" 
d="M506 680l-75 -1l35 144l84 2zM289 678l-75 -2l35 144l83 2zM270 0h-72l39 202l-131 379l74 4l107 -326h2l226 324h78l-285 -392z" />
    <glyph glyph-name="Zacute.sc" horiz-adv-x="549" 
d="M245 695q50 34 114.5 89t105.5 99l53 -61q-90 -76 -257 -160zM425 0h-403l11 60l411 463l-315 -2l13 62h393l-10 -60l-409 -463l322 2z" />
    <glyph glyph-name="Zcaron.sc" horiz-adv-x="549" 
d="M345 658h-1l-139 167l51 41l103 -130l163 126l34 -40zM425 0h-403l11 60l411 463l-315 -2l13 62h393l-10 -60l-409 -463l322 2z" />
    <glyph glyph-name="Zdotaccent.sc" horiz-adv-x="549" 
d="M379 676l-75 -1l35 144l84 1zM425 0h-403l11 60l411 463l-315 -2l13 62h393l-10 -60l-409 -463l322 2z" />
    <glyph glyph-name="AEacute.sc" horiz-adv-x="857" 
d="M483 695q50 34 114.5 89t105.5 99l53 -61q-90 -76 -257 -160zM476 522q-156 -193 -239 -299h188l59 299h-8zM382 0l33 170h-219q-35 -44 -132 -170h-80q232 305 463 583h394l-11 -61h-274l-39 -201h234l-11 -53h-233l-40 -208h275l-16 -60h-344z" />
    <glyph glyph-name="germandbls.sc" horiz-adv-x="1007" 
d="M959 434l-65 -13q-17 113 -107 113q-47 0 -78 -30t-31 -71q0 -30 24 -60t58.5 -56.5t69 -53.5t58.5 -60.5t24 -68.5q0 -81 -99.5 -123t-294.5 0l16 69q114 -32 181.5 -28.5t95.5 23t28 52.5q0 32 -36.5 67.5t-80 64.5t-80 73t-36.5 90q0 68 58 119.5t141 51.5
q134 0 154 -159zM467 434l-65 -13q-17 113 -107 113q-47 0 -78 -30t-31 -71q0 -30 24 -60t58.5 -56.5t69 -53.5t58.5 -60.5t24 -68.5q0 -81 -99.5 -123t-294.5 0l16 69q114 -32 181.5 -28.5t95.5 23t28 52.5q0 32 -36.5 67.5t-80 64.5t-80 73t-36.5 90q0 68 58 119.5
t141 51.5q134 0 154 -159z" />
    <glyph glyph-name="i.dot" horiz-adv-x="379" 
d="M315 636l-75 -4l35 144l83 4zM380 45q-151 -79 -215 -47t-35 154l79 321l-139 -21l-7 39l170 50l59 -2l-90 -374q-21 -89 13 -106t155 24z" />
    <glyph glyph-name="f.lig" horiz-adv-x="536" 
d="M402 -1q0 -85 -52 -141.5t-124 -56.5q-65 0 -105.5 60t-40.5 178q0 114 37 251l-38 19l11 39h45q61 181 163.5 307t201.5 126q34 0 56.5 -15.5t29 -43t0 -62.5t-32 -78.5t-67.5 -86.5l-25 21q41 52 55 96.5t0 69.5t-50 25q-67 0 -141 -104t-123 -255l282 -1l-11 -58
l-237 3q166 -148 166 -293zM253 -138q42 0 69 34t27 89q0 136 -171 280q-28 -120 -28 -218q0 -94 28 -139.5t75 -45.5z" />
    <glyph glyph-name="l.ultra" horiz-adv-x="479" 
d="M417 74q-154 -104 -242.5 -78t-88.5 181q0 112 31 225t78 195.5t104.5 134t108.5 51.5q43 0 67 -29t24 -81q0 -106 -84.5 -234.5t-256.5 -268.5q3 -71 32 -98t79.5 -16.5t131.5 55.5zM381 710q-44 0 -94 -66t-87.5 -180.5t-41.5 -237.5q139 122 204.5 229.5t65.5 189.5
q0 31 -13 48t-34 17z" />
    <glyph glyph-name="lacute.ultra" horiz-adv-x="479" 
d="M323 886q50 34 114.5 89t105.5 99l53 -61q-90 -76 -257 -160zM417 74q-154 -104 -242.5 -78t-88.5 181q0 112 31 225t78 195.5t104.5 134t108.5 51.5q43 0 67 -29t24 -81q0 -106 -84.5 -234.5t-256.5 -268.5q3 -71 32 -98t79.5 -16.5t131.5 55.5zM381 710q-44 0 -94 -66
t-87.5 -180.5t-41.5 -237.5q139 122 204.5 229.5t65.5 189.5q0 31 -13 48t-34 17z" />
    <glyph glyph-name="lcaron.ultra" horiz-adv-x="479" 
d="M607 885l86 5q-6 -148 -112 -278l-31 16q39 68 50 126.5t7 130.5zM417 74q-154 -104 -242.5 -78t-88.5 181q0 112 31 225t78 195.5t104.5 134t108.5 51.5q43 0 67 -29t24 -81q0 -106 -84.5 -234.5t-256.5 -268.5q3 -71 32 -98t79.5 -16.5t131.5 55.5zM381 710
q-44 0 -94 -66t-87.5 -180.5t-41.5 -237.5q139 122 204.5 229.5t65.5 189.5q0 31 -13 48t-34 17z" />
    <glyph glyph-name="lcommaaccent.ultra" horiz-adv-x="479" 
d="M417 74q-154 -104 -242.5 -78t-88.5 181q0 112 31 225t78 195.5t104.5 134t108.5 51.5q43 0 67 -29t24 -81q0 -106 -84.5 -234.5t-256.5 -268.5q3 -71 32 -98t79.5 -16.5t131.5 55.5zM381 710q-44 0 -94 -66t-87.5 -180.5t-41.5 -237.5q139 122 204.5 229.5t65.5 189.5
q0 31 -13 48t-34 17zM86 -296q60 93 43 206l94 3q-2 -56 -29.5 -114.5t-78.5 -108.5z" />
    <glyph glyph-name="ldot.ultra" horiz-adv-x="531" 
d="M417 74q-154 -104 -242.5 -78t-88.5 181q0 112 31 225t78 195.5t104.5 134t108.5 51.5q43 0 67 -29t24 -81q0 -106 -84.5 -234.5t-256.5 -268.5q3 -71 32 -98t79.5 -16.5t131.5 55.5zM381 710q-44 0 -94 -66t-87.5 -180.5t-41.5 -237.5q139 122 204.5 229.5t65.5 189.5
q0 31 -13 48t-34 17zM532 291h-87l20 105h88z" />
    <glyph glyph-name="lslash.ultra" horiz-adv-x="479" 
d="M103 798q0 58 74.5 94t196 37.5t276.5 -40.5l-23 -59q-128 38 -241.5 43t-173 -14t-59.5 -48q0 -13 13.5 -27t46.5 -39l-40 -49q-70 50 -70 102zM417 74q-154 -104 -242.5 -78t-88.5 181q0 112 31 225t78 195.5t104.5 134t108.5 51.5q43 0 67 -29t24 -81
q0 -106 -84.5 -234.5t-256.5 -268.5q3 -71 32 -98t79.5 -16.5t131.5 55.5zM381 710q-44 0 -94 -66t-87.5 -180.5t-41.5 -237.5q139 122 204.5 229.5t65.5 189.5q0 31 -13 48t-34 17z" />
    <glyph glyph-name="fraction.tab" horiz-adv-x="289" 
d="M-105 -22l-39 32l565 697l40 -32z" />
    <glyph glyph-name="fraction.afrc" horiz-adv-x="570" 
d="M69 313l10 51h448l-10 -51h-448z" />
    <glyph glyph-name="fraction.afrc2" horiz-adv-x="990" 
d="M70 313l10 51h867l-10 -51h-867z" />
    <glyph glyph-name="zero.num" horiz-adv-x="434" 
d="M120 409q0 115 62.5 202t148.5 87q61 0 97.5 -44.5t36.5 -124.5q0 -115 -62.5 -202.5t-149.5 -87.5q-62 0 -97.5 44.5t-35.5 125.5zM404 520q0 124 -83 124q-61 0 -101 -69.5t-40 -159.5q0 -123 83 -123q60 0 100.5 69t40.5 159z" />
    <glyph glyph-name="one.num" horiz-adv-x="434" 
d="M412 250h-307l10 53h130l56 287l-123 -7l6 44l128 16l12 62l61 4l-81 -406h121z" />
    <glyph glyph-name="two.num" horiz-adv-x="434" 
d="M399 250h-296l-1 49q150 97 215 154t65 111q0 96 -203 66l9 56q125 19 191 -10t66 -98q0 -67 -59.5 -127t-193.5 -147h219z" />
    <glyph glyph-name="three.num" horiz-adv-x="434" 
d="M422 373q0 -61 -75 -100t-237 -24l7 57q98 -11 152.5 -2t74 24t19.5 37q0 64 -178 101l4 27l200 142h-206l11 53h270l-6 -53l-196 -140q160 -39 160 -122z" />
    <glyph glyph-name="four.num" horiz-adv-x="434" 
d="M437 342h-52l-18 -92h-56l18 92h-216l4 42q85 141 137 309l64 -3q-55 -164 -140 -295l161 -1l29 147l56 6l-29 -153h57z" />
    <glyph glyph-name="five.num" horiz-adv-x="434" 
d="M425 388q0 -66 -78 -108.5t-237 -30.5l8 57q90 -8 148.5 2.5t79 29t20.5 43.5q0 68 -200 99l50 208h251l-16 -53h-192l-28 -115q194 -37 194 -132z" />
    <glyph glyph-name="six.num" horiz-adv-x="434" 
d="M273 240q-65 0 -106 39t-41 114q0 97 71 181.5t223 127.5l13 -53q-197 -52 -239 -182q54 44 111.5 48.5t94.5 -28.5t37 -90q0 -69 -47 -113t-117 -44zM282 289q45 0 71.5 28t26.5 70q0 41 -28 64.5t-74.5 18t-92.5 -42.5q-1 -8 -1 -24q0 -58 28 -86t70 -28z" />
    <glyph glyph-name="seven.num" horiz-adv-x="434" 
d="M214 245l-64 8q117 207 263 379l-1 3h-239l12 54h303l-11 -50q-145 -177 -263 -394z" />
    <glyph glyph-name="eight.num" horiz-adv-x="434" 
d="M413 356q0 -49 -46 -83t-116 -34q-61 0 -98.5 27t-37.5 71q0 34 27 67t101 80q-65 61 -65 105q0 55 67 87.5t181 14.5l-18 -59q-65 16 -103.5 12t-54 -16t-15.5 -32q0 -29 58 -83q74 42 158 83l21 -36q-89 -43 -146 -76q87 -77 87 -128zM263 289q42 0 68 18t26 45
q0 15 -13.5 34.5t-27 32t-41.5 36.5q-60 -37 -81 -60.5t-21 -44.5q0 -28 25.5 -44.5t64.5 -16.5z" />
    <glyph glyph-name="nine.num" horiz-adv-x="434" 
d="M164 237l-14 53q197 50 239 181q-54 -43 -111 -47.5t-94 28.5t-37 90q0 70 46.5 113.5t116.5 43.5q65 0 106 -39.5t41 -113.5q0 -97 -71 -181.5t-222 -127.5zM203 551q0 -41 28 -64.5t74.5 -18t92.5 42.5q1 9 1 25q0 58 -28 86t-70 28q-45 0 -71.5 -28t-26.5 -71z" />
    <glyph glyph-name="zero.den" horiz-adv-x="434" 
d="M3 159q0 115 62.5 202t148.5 87q61 0 97.5 -44.5t36.5 -124.5q0 -115 -62.5 -202.5t-149.5 -87.5q-62 0 -97.5 44.5t-35.5 125.5zM287 270q0 124 -83 124q-61 0 -101 -69.5t-40 -159.5q0 -123 83 -123q60 0 100.5 69t40.5 159z" />
    <glyph glyph-name="one.den" horiz-adv-x="434" 
d="M295 0h-307l10 53h130l56 287l-123 -7l6 44l128 16l12 62l61 4l-81 -406h121z" />
    <glyph glyph-name="two.den" horiz-adv-x="434" 
d="M282 0h-296l-1 49q150 97 215 154t65 111q0 96 -203 66l9 56q125 19 191 -10t66 -98q0 -67 -59.5 -127t-193.5 -147h219z" />
    <glyph glyph-name="three.den" horiz-adv-x="434" 
d="M305 123q0 -61 -75 -100t-237 -24l7 57q98 -11 152.5 -2t74 24t19.5 37q0 64 -178 101l4 27l200 142h-206l11 53h270l-6 -53l-196 -140q160 -39 160 -122z" />
    <glyph glyph-name="four.den" horiz-adv-x="434" 
d="M320 92h-52l-18 -92h-56l18 92h-216l4 42q85 141 137 309l64 -3q-55 -164 -140 -295l161 -1l29 147l56 6l-29 -153h57z" />
    <glyph glyph-name="five.den" horiz-adv-x="434" 
d="M308 138q0 -66 -78 -108.5t-237 -30.5l8 57q90 -8 148.5 2.5t79 29t20.5 43.5q0 68 -200 99l50 208h251l-16 -53h-192l-28 -115q194 -37 194 -132z" />
    <glyph glyph-name="six.den" horiz-adv-x="434" 
d="M156 -10q-65 0 -106 39t-41 114q0 97 71 181.5t223 127.5l13 -53q-197 -52 -239 -182q54 44 111.5 48.5t94.5 -28.5t37 -90q0 -69 -47 -113t-117 -44zM165 39q45 0 71.5 28t26.5 70q0 41 -28 64.5t-74.5 18t-92.5 -42.5q-1 -8 -1 -24q0 -58 28 -86t70 -28z" />
    <glyph glyph-name="seven.den" horiz-adv-x="434" 
d="M97 -5l-64 8q117 207 263 379l-1 3h-239l12 54h303l-11 -50q-145 -177 -263 -394z" />
    <glyph glyph-name="eight.den" horiz-adv-x="434" 
d="M296 106q0 -49 -46 -83t-116 -34q-61 0 -98.5 27t-37.5 71q0 34 27 67t101 80q-65 61 -65 105q0 55 67 87.5t181 14.5l-18 -59q-65 16 -103.5 12t-54 -16t-15.5 -32q0 -29 58 -83q74 42 158 83l21 -36q-89 -43 -146 -76q87 -77 87 -128zM146 39q42 0 68 18t26 45
q0 15 -13.5 34.5t-27 32t-41.5 36.5q-60 -37 -81 -60.5t-21 -44.5q0 -28 25.5 -44.5t64.5 -16.5z" />
    <glyph glyph-name="nine.den" horiz-adv-x="434" 
d="M47 -13l-14 53q197 50 239 181q-54 -43 -111 -47.5t-94 28.5t-37 90q0 70 46.5 113.5t116.5 43.5q65 0 106 -39.5t41 -113.5q0 -97 -71 -181.5t-222 -127.5zM86 301q0 -41 28 -64.5t74.5 -18t92.5 42.5q1 9 1 25q0 58 -28 86t-70 28q-45 0 -71.5 -28t-26.5 -71z" />
    <glyph glyph-name="zero.num_afrc" horiz-adv-x="570" 
d="M188 631q0 115 62.5 202t148.5 87q61 0 97.5 -44.5t36.5 -124.5q0 -115 -62.5 -202.5t-149.5 -87.5q-62 0 -97.5 44.5t-35.5 125.5zM472 742q0 124 -83 124q-61 0 -101 -69.5t-40 -159.5q0 -123 83 -123q60 0 100.5 69t40.5 159z" />
    <glyph glyph-name="one.num_afrc" horiz-adv-x="570" 
d="M480 472h-307l10 53h130l56 287l-123 -7l6 44l128 16l12 62l61 4l-81 -406h121z" />
    <glyph glyph-name="two.num_afrc" horiz-adv-x="570" 
d="M467 472h-296l-1 49q150 97 215 154t65 111q0 96 -203 66l9 56q125 19 191 -10t66 -98q0 -67 -59.5 -127t-193.5 -147h219z" />
    <glyph glyph-name="three.num_afrc" horiz-adv-x="570" 
d="M490 595q0 -61 -75 -100t-237 -24l7 57q98 -11 152.5 -2t74 24t19.5 37q0 64 -178 101l4 27l200 142h-206l11 53h270l-6 -53l-196 -140q160 -39 160 -122z" />
    <glyph glyph-name="four.num_afrc" horiz-adv-x="570" 
d="M505 564h-52l-18 -92h-56l18 92h-216l4 42q85 141 137 309l64 -3q-55 -164 -140 -295l161 -1l29 147l56 6l-29 -153h57z" />
    <glyph glyph-name="five.num_afrc" horiz-adv-x="570" 
d="M493 610q0 -66 -78 -108.5t-237 -30.5l8 57q90 -8 148.5 2.5t79 29t20.5 43.5q0 68 -200 99l50 208h251l-16 -53h-192l-28 -115q194 -37 194 -132z" />
    <glyph glyph-name="six.num_afrc" horiz-adv-x="570" 
d="M341 462q-65 0 -106 39t-41 114q0 97 71 181.5t223 127.5l13 -53q-197 -52 -239 -182q54 44 111.5 48.5t94.5 -28.5t37 -90q0 -69 -47 -113t-117 -44zM350 511q45 0 71.5 28t26.5 70q0 41 -28 64.5t-74.5 18t-92.5 -42.5q-1 -8 -1 -24q0 -58 28 -86t70 -28z" />
    <glyph glyph-name="seven.num_afrc" horiz-adv-x="570" 
d="M282 467l-64 8q117 207 263 379l-1 3h-239l12 54h303l-11 -50q-145 -177 -263 -394z" />
    <glyph glyph-name="eight.num_afrc" horiz-adv-x="570" 
d="M481 578q0 -49 -46 -83t-116 -34q-61 0 -98.5 27t-37.5 71q0 34 27 67t101 80q-65 61 -65 105q0 55 67 87.5t181 14.5l-18 -59q-65 16 -103.5 12t-54 -16t-15.5 -32q0 -29 58 -83q74 42 158 83l21 -36q-89 -43 -146 -76q87 -77 87 -128zM331 511q42 0 68 18t26 45
q0 15 -13.5 34.5t-27 32t-41.5 36.5q-60 -37 -81 -60.5t-21 -44.5q0 -28 25.5 -44.5t64.5 -16.5z" />
    <glyph glyph-name="nine.num_afrc" horiz-adv-x="570" 
d="M232 459l-14 53q197 50 239 181q-54 -43 -111 -47.5t-94 28.5t-37 90q0 70 46.5 113.5t116.5 43.5q65 0 106 -39.5t41 -113.5q0 -97 -71 -181.5t-222 -127.5zM271 773q0 -41 28 -64.5t74.5 -18t92.5 42.5q1 9 1 25q0 58 -28 86t-70 28q-45 0 -71.5 -28t-26.5 -71z" />
    <glyph glyph-name="zero.den_afrc" horiz-adv-x="570" 
d="M68 -74q0 115 62.5 202t148.5 87q61 0 97.5 -44.5t36.5 -124.5q0 -115 -62.5 -202.5t-149.5 -87.5q-62 0 -97.5 44.5t-35.5 125.5zM352 37q0 124 -83 124q-61 0 -101 -69.5t-40 -159.5q0 -123 83 -123q60 0 100.5 69t40.5 159z" />
    <glyph glyph-name="one.den_afrc" horiz-adv-x="570" 
d="M360 -233h-307l10 53h130l56 287l-123 -7l6 44l128 16l12 62l61 4l-81 -406h121z" />
    <glyph glyph-name="two.den_afrc" horiz-adv-x="570" 
d="M347 -233h-296l-1 49q150 97 215 154t65 111q0 96 -203 66l9 56q125 19 191 -10t66 -98q0 -67 -59.5 -127t-193.5 -147h219z" />
    <glyph glyph-name="three.den_afrc" horiz-adv-x="570" 
d="M370 -110q0 -61 -75 -100t-237 -24l7 57q98 -11 152.5 -2t74 24t19.5 37q0 64 -178 101l4 27l200 142h-206l11 53h270l-6 -53l-196 -140q160 -39 160 -122z" />
    <glyph glyph-name="four.den_afrc" horiz-adv-x="570" 
d="M385 -141h-52l-18 -92h-56l18 92h-216l4 42q85 141 137 309l64 -3q-55 -164 -140 -295l161 -1l29 147l56 6l-29 -153h57z" />
    <glyph glyph-name="five.den_afrc" horiz-adv-x="570" 
d="M373 -95q0 -66 -78 -108.5t-237 -30.5l8 57q90 -8 148.5 2.5t79 29t20.5 43.5q0 68 -200 99l50 208h251l-16 -53h-192l-28 -115q194 -37 194 -132z" />
    <glyph glyph-name="six.den_afrc" horiz-adv-x="570" 
d="M221 -243q-65 0 -106 39t-41 114q0 97 71 181.5t223 127.5l13 -53q-197 -52 -239 -182q54 44 111.5 48.5t94.5 -28.5t37 -90q0 -69 -47 -113t-117 -44zM230 -194q45 0 71.5 28t26.5 70q0 41 -28 64.5t-74.5 18t-92.5 -42.5q-1 -8 -1 -24q0 -58 28 -86t70 -28z" />
    <glyph glyph-name="seven.den_afrc" horiz-adv-x="570" 
d="M162 -238l-64 8q117 207 263 379l-1 3h-239l12 54h303l-11 -50q-145 -177 -263 -394z" />
    <glyph glyph-name="eight.den_afrc" horiz-adv-x="570" 
d="M361 -127q0 -49 -46 -83t-116 -34q-61 0 -98.5 27t-37.5 71q0 34 27 67t101 80q-65 61 -65 105q0 55 67 87.5t181 14.5l-18 -59q-65 16 -103.5 12t-54 -16t-15.5 -32q0 -29 58 -83q74 42 158 83l21 -36q-89 -43 -146 -76q87 -77 87 -128zM211 -194q42 0 68 18t26 45
q0 15 -13.5 34.5t-27 32t-41.5 36.5q-60 -37 -81 -60.5t-21 -44.5q0 -28 25.5 -44.5t64.5 -16.5z" />
    <glyph glyph-name="nine.den_afrc" horiz-adv-x="570" 
d="M112 -246l-14 53q197 50 239 181q-54 -43 -111 -47.5t-94 28.5t-37 90q0 70 46.5 113.5t116.5 43.5q65 0 106 -39.5t41 -113.5q0 -97 -71 -181.5t-222 -127.5zM151 68q0 -41 28 -64.5t74.5 -18t92.5 42.5q1 9 1 25q0 58 -28 86t-70 28q-45 0 -71.5 -28t-26.5 -71z" />
    <glyph glyph-name="zero.num_afrc2" horiz-adv-x="990" 
d="M397 631q0 115 62.5 202t148.5 87q61 0 97.5 -44.5t36.5 -124.5q0 -115 -62.5 -202.5t-149.5 -87.5q-62 0 -97.5 44.5t-35.5 125.5zM681 742q0 124 -83 124q-61 0 -101 -69.5t-40 -159.5q0 -123 83 -123q60 0 100.5 69t40.5 159z" />
    <glyph glyph-name="one.num_afrc2" horiz-adv-x="990" 
d="M689 472h-307l10 53h130l56 287l-123 -7l6 44l128 16l12 62l61 4l-81 -406h121z" />
    <glyph glyph-name="two.num_afrc2" horiz-adv-x="990" 
d="M676 472h-296l-1 49q150 97 215 154t65 111q0 96 -203 66l9 56q125 19 191 -10t66 -98q0 -67 -59.5 -127t-193.5 -147h219z" />
    <glyph glyph-name="three.num_afrc2" horiz-adv-x="990" 
d="M699 595q0 -61 -75 -100t-237 -24l7 57q98 -11 152.5 -2t74 24t19.5 37q0 64 -178 101l4 27l200 142h-206l11 53h270l-6 -53l-196 -140q160 -39 160 -122z" />
    <glyph glyph-name="four.num_afrc2" horiz-adv-x="990" 
d="M714 564h-52l-18 -92h-56l18 92h-216l4 42q85 141 137 309l64 -3q-55 -164 -140 -295l161 -1l29 147l56 6l-29 -153h57z" />
    <glyph glyph-name="five.num_afrc2" horiz-adv-x="990" 
d="M702 610q0 -66 -78 -108.5t-237 -30.5l8 57q90 -8 148.5 2.5t79 29t20.5 43.5q0 68 -200 99l50 208h251l-16 -53h-192l-28 -115q194 -37 194 -132z" />
    <glyph glyph-name="six.num_afrc2" horiz-adv-x="990" 
d="M550 462q-65 0 -106 39t-41 114q0 97 71 181.5t223 127.5l13 -53q-197 -52 -239 -182q54 44 111.5 48.5t94.5 -28.5t37 -90q0 -69 -47 -113t-117 -44zM559 511q45 0 71.5 28t26.5 70q0 41 -28 64.5t-74.5 18t-92.5 -42.5q-1 -8 -1 -24q0 -58 28 -86t70 -28z" />
    <glyph glyph-name="seven.num_afrc2" horiz-adv-x="990" 
d="M491 467l-64 8q117 207 263 379l-1 3h-239l12 54h303l-11 -50q-145 -177 -263 -394z" />
    </font>
</defs>
</svg>
