<svg xmlns="http://www.w3.org/2000/svg" xmlns:xlink="http://www.w3.org/1999/xlink" version="1.1" id="Capa_1" x="0px" y="0px" viewBox="0 0 92.361 92.361" style="enable-background:new 0 0 92.361 92.361;" xml:space="preserve">
<g>
	<g>
		<path d="M90.67,32.361c1.5-16-16-17.5-16-17.5c-5-14.5-18-7-18-7c-6.5-14.5-19.5-4.5-19.5-4.5    c-18.5-5.5-20.5,10.5-20.5,10.5c-1.312,4.964-0.896,21.13-0.896,21.13c-1.25-9.5-8.604-3.13-8.604-3.13c-9.5,10.5-5,18-5,18    c8,14,27,32.5,27,32.5c7,6,3,9.5,3,9.5l48.5,0.5l2.666-9C94.336,62.361,90.67,32.361,90.67,32.361z" fill="#000"/>
	</g>
</g>
<g>
</g>
<g>
</g>
<g>
</g>
<g>
</g>
<g>
</g>
<g>
</g>
<g>
</g>
<g>
</g>
<g>
</g>
<g>
</g>
<g>
</g>
<g>
</g>
<g>
</g>
<g>
</g>
<g>
</g>
</svg>
